<svg id="svg" version="1.1" width="400" height="73.84615384615384" viewBox="0 0 400 73.84615384615384" xmlns="http://www.w3.org/2000/svg" xmlns:xlink="http://www.w3.org/1999/xlink" ><g id="svgg"><path id="path0" d="M33.877 14.017 C 20.835 15.534,11.484 28.495,14.087 41.445 C 16.149 51.703,25.087 59.579,35.167 60.021 C 37.104 60.106,42.500 59.832,42.500 59.649 C 42.500 59.567,42.762 59.500,43.083 59.500 C 43.404 59.500,43.667 59.425,43.667 59.333 C 43.667 59.242,43.892 59.167,44.167 59.167 C 44.442 59.167,44.667 59.101,44.667 59.021 C 44.667 58.941,44.910 58.828,45.208 58.770 C 45.908 58.634,48.502 57.348,48.853 56.963 C 49.001 56.800,49.219 56.667,49.337 56.667 C 49.563 56.667,50.710 55.858,50.806 55.632 C 50.836 55.559,50.959 55.500,51.079 55.500 C 51.370 55.500,54.848 52.062,55.253 51.375 C 55.428 51.077,55.631 50.833,55.703 50.833 C 55.775 50.833,55.833 50.755,55.833 50.660 C 55.833 50.564,55.973 50.336,56.145 50.152 C 56.316 49.968,56.597 49.540,56.770 49.201 C 56.942 48.861,57.121 48.546,57.167 48.500 C 57.366 48.301,57.667 47.650,57.667 47.419 C 57.667 47.280,57.733 47.167,57.814 47.167 C 57.895 47.167,58.126 46.735,58.327 46.208 C 58.528 45.681,58.800 45.004,58.930 44.703 C 59.060 44.402,59.167 43.975,59.167 43.754 C 59.167 43.534,59.242 43.307,59.333 43.250 C 59.425 43.193,59.500 42.893,59.500 42.583 C 59.500 42.273,59.567 41.978,59.649 41.928 C 60.211 41.580,60.211 32.253,59.649 31.906 C 59.567 31.855,59.500 31.560,59.500 31.250 C 59.500 30.940,59.425 30.640,59.333 30.583 C 59.242 30.527,59.167 30.264,59.167 30.000 C 59.167 29.736,59.097 29.477,59.013 29.425 C 58.928 29.372,58.806 29.089,58.742 28.795 C 58.677 28.501,58.564 28.146,58.490 28.005 C 58.416 27.865,58.257 27.506,58.137 27.208 C 58.017 26.910,57.876 26.667,57.824 26.667 C 57.772 26.667,57.626 26.404,57.500 26.083 C 57.374 25.762,57.210 25.500,57.136 25.500 C 57.061 25.500,57.000 25.405,57.000 25.290 C 57.000 25.074,55.614 22.926,55.218 22.529 C 55.097 22.407,54.921 22.163,54.826 21.987 C 54.732 21.811,54.561 21.667,54.446 21.667 C 54.331 21.667,53.865 21.286,53.410 20.820 C 48.386 15.679,41.176 13.168,33.877 14.017 M40.500 16.934 C 43.483 17.486,46.583 18.832,48.919 20.591 C 50.153 21.519,52.833 24.095,52.833 24.353 C 52.833 24.421,52.931 24.575,53.050 24.696 C 54.101 25.767,55.694 28.939,56.394 31.355 C 57.665 35.741,57.330 40.717,55.479 44.943 C 54.887 46.295,53.489 48.775,53.191 49.000 C 53.131 49.046,52.868 49.369,52.608 49.719 C 51.167 51.651,48.458 53.830,45.979 55.051 C 29.803 63.017,12.101 47.839,17.537 30.667 C 18.062 29.008,18.397 28.245,18.760 27.883 C 19.078 27.565,19.139 27.610,19.203 28.208 C 19.235 28.506,19.275 28.091,19.291 27.286 C 19.328 25.469,19.303 25.505,20.552 25.477 C 21.119 25.465,21.396 25.424,21.167 25.386 C 20.106 25.211,20.125 25.139,21.688 23.433 L 22.742 22.283 22.689 21.133 L 22.636 19.982 23.610 20.033 L 24.583 20.083 24.635 20.888 C 24.663 21.338,24.599 21.797,24.489 21.930 C 24.333 22.118,24.348 22.167,24.563 22.167 C 24.771 22.167,24.833 22.000,24.833 21.449 C 24.833 19.488,29.970 17.191,35.667 16.604 C 36.596 16.509,39.139 16.682,40.500 16.934 M20.706 22.631 C 20.869 23.255,20.544 23.692,19.960 23.636 C 19.405 23.582,19.176 23.149,19.398 22.571 C 19.537 22.209,20.608 22.258,20.706 22.631 M25.375 23.946 L 24.167 24.015 24.167 27.094 L 24.167 30.174 27.292 30.129 L 30.417 30.083 30.417 27.139 C 30.417 25.519,30.364 24.141,30.300 24.077 C 30.157 23.935,27.038 23.852,25.375 23.946 M35.792 23.946 L 32.333 24.007 32.333 27.080 L 32.333 30.154 37.840 30.202 C 43.821 30.254,43.659 30.227,43.664 31.189 C 43.666 31.502,43.774 31.657,44.042 31.728 C 44.701 31.905,49.639 31.847,49.754 31.661 C 49.876 31.463,49.889 24.166,49.767 24.045 C 49.659 23.937,40.126 23.870,35.792 23.946 M24.278 32.111 C 24.011 32.378,24.156 39.793,24.430 39.899 C 24.575 39.954,28.919 40.000,34.084 40.000 L 43.473 40.000 43.571 41.042 C 43.625 41.615,43.610 42.346,43.536 42.667 L 43.403 43.250 33.827 43.337 C 28.559 43.384,24.230 43.441,24.205 43.462 C 24.180 43.483,24.180 44.869,24.205 46.542 L 24.250 49.583 37.042 49.626 L 49.833 49.669 49.833 41.668 L 49.833 33.667 40.542 33.664 C 30.326 33.662,30.500 33.673,30.500 32.994 C 30.500 31.979,30.566 32.000,27.343 32.000 C 25.718 32.000,24.339 32.050,24.278 32.111 " stroke="none" fill="#dde7fb" fill-rule="evenodd"></path><path id="path1" d="M33.500 3.334 C 33.500 3.411,32.919 3.512,32.208 3.557 C 30.584 3.660,29.667 3.827,29.667 4.018 C 29.667 4.100,29.371 4.167,29.010 4.167 C 28.649 4.167,28.307 4.242,28.250 4.333 C 28.193 4.425,27.889 4.500,27.573 4.500 C 27.258 4.500,27.000 4.575,27.000 4.667 C 27.000 4.758,26.850 4.833,26.667 4.833 C 26.483 4.833,26.333 4.908,26.333 5.000 C 26.333 5.092,26.154 5.167,25.936 5.167 C 25.399 5.167,23.833 5.682,23.833 5.859 C 23.833 5.936,23.646 6.000,23.417 6.000 C 23.188 6.000,23.000 6.075,23.000 6.167 C 23.000 6.258,22.902 6.333,22.783 6.333 C 22.491 6.333,21.670 6.722,21.668 6.862 C 21.667 6.923,21.452 7.021,21.189 7.078 C 20.927 7.136,20.555 7.330,20.363 7.508 C 20.171 7.687,19.898 7.833,19.757 7.833 C 19.616 7.833,19.500 7.908,19.500 8.000 C 19.500 8.092,19.387 8.167,19.250 8.167 C 19.112 8.167,19.000 8.242,19.000 8.333 C 19.000 8.425,18.902 8.500,18.781 8.500 C 18.661 8.500,18.402 8.650,18.205 8.833 C 18.008 9.017,17.773 9.167,17.681 9.167 C 17.590 9.167,17.328 9.354,17.098 9.583 C 16.869 9.813,16.608 10.000,16.519 10.000 C 16.429 10.000,16.308 10.150,16.250 10.333 C 16.192 10.517,16.037 10.667,15.905 10.667 C 15.629 10.667,15.418 10.839,13.763 12.417 C 13.090 13.058,12.380 13.694,12.186 13.829 C 11.991 13.964,11.794 14.193,11.748 14.339 C 11.702 14.484,11.291 15.011,10.835 15.510 C 10.378 16.009,10.004 16.476,10.003 16.549 C 10.001 16.622,9.813 16.883,9.583 17.131 C 9.354 17.378,9.167 17.640,9.167 17.714 C 9.167 17.787,9.022 18.003,8.845 18.193 C 8.539 18.521,8.537 18.554,8.812 18.848 C 8.970 19.019,9.254 19.442,9.441 19.788 C 9.628 20.134,10.555 21.767,11.500 23.417 C 13.815 27.456,13.836 27.494,14.223 28.208 C 14.639 28.975,14.854 28.995,15.137 28.292 C 17.919 21.395,23.781 16.221,30.951 14.333 C 37.204 12.687,43.361 13.643,49.333 17.186 C 50.302 17.761,51.653 18.845,53.078 20.193 L 54.429 21.469 60.714 21.526 C 66.620 21.580,67.713 21.511,66.875 21.139 C 66.806 21.108,66.569 20.727,66.349 20.292 C 66.128 19.856,65.884 19.500,65.807 19.500 C 65.730 19.500,65.667 19.387,65.667 19.250 C 65.667 19.112,65.592 19.000,65.500 19.000 C 65.408 19.000,65.333 18.850,65.333 18.667 C 65.333 18.483,65.263 18.333,65.178 18.333 C 65.092 18.333,64.978 18.192,64.923 18.019 C 64.868 17.847,64.600 17.472,64.328 17.188 C 64.056 16.903,63.833 16.613,63.833 16.543 C 63.833 16.474,63.646 16.199,63.416 15.932 C 63.187 15.666,63.000 15.393,63.000 15.325 C 63.000 15.136,59.832 11.975,59.081 11.414 C 58.715 11.141,58.218 10.711,57.975 10.459 C 57.732 10.206,57.447 10.000,57.342 10.000 C 57.237 10.000,56.977 9.812,56.765 9.583 C 56.552 9.354,56.294 9.167,56.191 9.167 C 56.017 9.167,55.596 8.868,55.077 8.375 C 54.956 8.260,54.739 8.167,54.595 8.167 C 54.451 8.167,54.333 8.101,54.333 8.020 C 54.333 7.940,54.108 7.781,53.833 7.667 C 53.558 7.553,53.333 7.400,53.333 7.326 C 53.333 7.253,53.096 7.141,52.806 7.077 C 52.515 7.013,52.126 6.820,51.941 6.647 C 51.755 6.475,51.437 6.333,51.232 6.333 C 51.028 6.333,50.836 6.274,50.806 6.200 C 50.717 5.990,49.313 5.390,48.604 5.261 C 48.249 5.197,47.799 5.062,47.604 4.963 C 46.789 4.546,46.649 4.500,46.179 4.500 C 45.908 4.500,45.640 4.425,45.583 4.333 C 45.527 4.242,45.185 4.167,44.823 4.167 C 44.462 4.167,44.167 4.100,44.167 4.018 C 44.167 3.825,43.244 3.660,41.584 3.556 C 40.850 3.510,40.164 3.401,40.059 3.313 C 39.823 3.117,33.500 3.137,33.500 3.334 M34.917 17.006 C 32.188 17.233,30.552 17.708,27.750 19.089 C 25.467 20.214,25.338 20.317,25.232 21.107 C 25.034 22.574,25.104 22.500,23.928 22.500 L 22.863 22.500 21.844 23.612 C 20.647 24.918,20.647 25.056,21.846 25.167 L 22.750 25.250 22.798 26.986 C 22.833 28.263,22.789 28.759,22.631 28.859 C 22.174 29.149,19.030 29.025,18.854 28.710 C 18.635 28.319,18.627 28.334,17.953 30.333 C 15.034 38.995,18.144 48.539,25.470 53.399 C 27.885 55.001,30.011 55.911,33.044 56.642 C 37.474 57.710,46.520 55.629,48.833 53.011 C 48.879 52.959,49.259 52.642,49.678 52.306 C 50.645 51.529,51.529 50.645,52.306 49.678 C 52.642 49.260,53.010 48.818,53.124 48.698 C 53.238 48.577,53.624 47.977,53.982 47.364 C 59.111 38.580,57.307 27.781,49.667 21.530 C 49.254 21.193,48.879 20.870,48.833 20.813 C 48.677 20.619,46.418 19.227,45.833 18.964 C 45.512 18.820,44.913 18.552,44.500 18.368 C 43.714 18.019,41.997 17.507,40.583 17.201 C 39.428 16.951,36.708 16.857,34.917 17.006 M19.500 22.899 C 19.500 23.325,19.841 23.550,20.250 23.394 C 20.750 23.202,20.553 22.500,20.000 22.500 C 19.584 22.500,19.500 22.567,19.500 22.899 M30.622 24.125 C 30.925 25.210,30.773 30.010,30.426 30.263 C 29.986 30.585,24.258 30.611,24.052 30.292 C 23.870 30.010,23.771 26.052,23.913 24.730 L 24.027 23.667 27.260 23.667 L 30.494 23.667 30.622 24.125 M50.128 27.739 C 50.155 30.126,50.109 31.791,50.013 31.887 C 49.793 32.107,46.195 32.218,44.667 32.052 L 43.417 31.917 43.365 31.208 L 43.314 30.500 37.857 30.500 C 33.835 30.500,32.347 30.447,32.200 30.300 C 31.983 30.083,31.901 23.988,32.113 23.776 C 32.174 23.714,36.243 23.683,41.154 23.707 L 50.083 23.750 50.128 27.739 M19.500 27.007 L 19.500 28.347 20.792 28.299 L 22.083 28.250 22.135 27.342 C 22.227 25.719,22.184 25.667,20.747 25.667 L 19.500 25.667 19.500 27.007 M30.500 32.000 C 30.685 32.185,30.833 32.556,30.833 32.833 L 30.833 33.333 33.473 33.333 C 34.924 33.333,39.274 33.383,43.139 33.444 L 50.167 33.554 50.167 41.678 L 50.167 49.802 48.625 49.915 C 46.461 50.073,24.225 49.947,24.055 49.776 C 23.883 49.602,23.895 43.383,24.068 43.209 C 24.137 43.140,28.501 43.059,33.764 43.030 L 43.333 42.976 43.333 41.682 L 43.333 40.387 38.056 40.277 C 35.154 40.216,30.839 40.167,28.468 40.167 C 24.518 40.167,24.146 40.142,24.036 39.875 C 23.780 39.250,23.897 32.000,24.167 31.830 C 24.710 31.486,30.132 31.632,30.500 32.000 " stroke="none" fill="#245cb4" fill-rule="evenodd"></path><path id="path2" d="M34.583 13.649 C 34.217 13.704,35.229 13.750,36.833 13.750 C 38.514 13.750,39.397 13.703,38.917 13.640 C 37.902 13.505,35.494 13.510,34.583 13.649 M32.333 14.000 C 31.773 14.179,32.378 14.179,33.083 14.000 C 33.532 13.886,33.541 13.872,33.167 13.870 C 32.938 13.868,32.563 13.927,32.333 14.000 M40.583 14.000 C 40.858 14.070,41.271 14.127,41.500 14.127 C 41.872 14.127,41.863 14.113,41.417 14.000 C 41.142 13.930,40.729 13.873,40.500 13.873 C 40.128 13.873,40.137 13.887,40.583 14.000 M30.917 14.333 C 30.707 14.424,30.676 14.477,30.833 14.477 C 30.971 14.477,31.233 14.412,31.417 14.333 C 31.627 14.243,31.658 14.190,31.500 14.190 C 31.363 14.190,31.100 14.255,30.917 14.333 M28.583 15.089 C 28.167 15.290,28.153 15.313,28.500 15.228 C 28.972 15.113,29.503 14.842,29.250 14.846 C 29.158 14.847,28.858 14.957,28.583 15.089 M45.833 15.550 C 46.521 15.850,47.515 16.330,48.042 16.615 C 48.569 16.901,48.952 17.058,48.895 16.964 C 48.757 16.741,45.157 15.003,44.833 15.004 C 44.696 15.004,45.146 15.250,45.833 15.550 M27.167 15.667 C 26.846 15.842,26.658 15.986,26.750 15.986 C 26.842 15.986,27.179 15.842,27.500 15.667 C 27.821 15.491,28.008 15.347,27.917 15.347 C 27.825 15.347,27.488 15.491,27.167 15.667 M34.917 16.825 C 34.340 16.884,35.153 16.926,36.833 16.925 C 38.686 16.923,39.385 16.883,38.750 16.813 C 37.557 16.682,36.279 16.686,34.917 16.825 M23.610 17.676 C 22.355 18.575,22.398 18.686,23.667 17.820 C 24.551 17.216,24.800 17.000,24.610 17.000 C 24.580 17.000,24.130 17.304,23.610 17.676 M32.667 17.167 C 32.090 17.288,32.089 17.290,32.583 17.309 C 32.858 17.320,33.196 17.256,33.333 17.167 C 33.611 16.987,33.519 16.987,32.667 17.167 M40.417 17.159 C 40.737 17.304,41.629 17.398,41.486 17.272 C 41.448 17.238,41.117 17.165,40.750 17.109 C 40.285 17.039,40.184 17.054,40.417 17.159 M49.181 17.218 C 50.048 17.860,51.009 18.482,50.926 18.348 C 50.794 18.135,49.407 17.167,49.234 17.167 C 49.166 17.167,49.142 17.190,49.181 17.218 M30.750 17.667 C 30.540 17.757,30.509 17.810,30.667 17.810 C 30.804 17.810,31.067 17.745,31.250 17.667 C 31.460 17.576,31.491 17.523,31.333 17.523 C 31.196 17.523,30.933 17.588,30.750 17.667 M20.627 20.148 C 19.686 21.054,18.667 22.160,18.361 22.606 L 17.806 23.417 18.345 22.750 C 18.642 22.383,19.699 21.277,20.695 20.292 C 21.690 19.306,22.467 18.500,22.422 18.500 C 22.376 18.500,21.568 19.242,20.627 20.148 M27.625 18.928 C 27.190 19.154,26.833 19.377,26.833 19.423 C 26.833 19.497,28.483 18.718,28.653 18.563 C 28.859 18.375,28.317 18.567,27.625 18.928 M8.417 18.881 C 8.325 18.992,8.137 19.308,8.000 19.583 C 7.862 19.858,7.656 20.182,7.542 20.304 C 7.427 20.425,7.333 20.668,7.333 20.845 C 7.333 21.022,7.258 21.167,7.167 21.167 C 7.075 21.167,7.000 21.279,7.000 21.417 C 7.000 21.554,6.925 21.667,6.833 21.667 C 6.742 21.667,6.667 21.817,6.667 22.000 C 6.667 22.183,6.592 22.333,6.500 22.333 C 6.408 22.333,6.333 22.483,6.333 22.667 C 6.333 22.850,6.258 23.000,6.167 23.000 C 6.075 23.000,6.000 23.146,6.000 23.324 C 6.000 23.502,5.856 23.896,5.680 24.199 C 5.503 24.502,5.307 25.106,5.244 25.542 C 5.181 25.977,5.062 26.333,4.981 26.333 C 4.900 26.333,4.833 26.483,4.833 26.667 C 4.833 26.850,4.758 27.000,4.667 27.000 C 4.575 27.000,4.500 27.248,4.500 27.550 C 4.500 27.853,4.433 28.171,4.350 28.258 C 4.268 28.345,4.162 28.717,4.115 29.083 C 4.068 29.450,3.896 30.238,3.732 30.833 C 3.352 32.215,3.261 42.328,3.625 42.692 C 3.740 42.806,3.833 43.143,3.833 43.440 C 3.833 43.737,3.908 44.027,4.000 44.083 C 4.092 44.140,4.167 44.524,4.167 44.936 C 4.167 45.394,4.232 45.646,4.333 45.583 C 4.432 45.522,4.500 45.717,4.500 46.064 C 4.500 46.384,4.575 46.693,4.667 46.750 C 4.758 46.807,4.833 46.999,4.833 47.177 C 4.833 47.354,4.899 47.500,4.979 47.500 C 5.058 47.500,5.172 47.866,5.232 48.313 C 5.329 49.049,5.958 50.583,6.605 51.667 C 6.742 51.896,6.896 52.215,6.946 52.375 C 6.997 52.535,7.105 52.667,7.186 52.667 C 7.267 52.667,7.333 52.811,7.333 52.988 C 7.333 53.165,7.446 53.422,7.583 53.560 C 7.721 53.697,7.833 53.927,7.833 54.071 C 7.833 54.215,7.908 54.333,8.000 54.333 C 8.092 54.333,8.167 54.446,8.167 54.583 C 8.167 54.721,8.242 54.833,8.333 54.833 C 8.425 54.833,8.500 54.946,8.500 55.083 C 8.500 55.221,8.575 55.333,8.667 55.333 C 8.758 55.333,8.833 55.446,8.833 55.583 C 8.833 55.721,8.908 55.833,9.000 55.833 C 9.092 55.833,9.168 55.927,9.169 56.042 C 9.171 56.156,9.396 56.504,9.669 56.814 C 9.943 57.125,10.168 57.425,10.169 57.481 C 10.171 57.537,10.377 57.818,10.628 58.105 C 10.878 58.392,11.286 58.883,11.534 59.197 C 12.126 59.946,13.000 60.858,13.000 60.726 C 13.000 60.585,13.994 61.719,13.997 61.864 C 13.999 61.926,14.131 62.019,14.292 62.071 C 14.452 62.122,14.902 62.464,15.292 62.832 C 15.682 63.199,16.076 63.500,16.167 63.500 C 16.258 63.500,16.333 63.575,16.333 63.667 C 16.333 63.758,16.446 63.833,16.583 63.833 C 16.721 63.833,16.833 63.890,16.834 63.958 C 16.834 64.027,17.170 64.308,17.580 64.583 C 17.990 64.858,18.328 65.140,18.330 65.208 C 18.332 65.277,18.477 65.333,18.653 65.333 C 18.828 65.333,18.997 65.390,19.028 65.458 C 19.164 65.764,20.159 66.326,21.792 67.018 C 22.090 67.145,22.333 67.305,22.333 67.374 C 22.333 67.443,22.483 67.500,22.667 67.500 C 22.850 67.500,23.000 67.575,23.000 67.667 C 23.000 67.758,23.181 67.833,23.403 67.833 C 23.624 67.833,23.832 67.913,23.865 68.010 C 23.928 68.202,26.216 69.000,26.702 69.000 C 26.866 69.000,27.000 69.075,27.000 69.167 C 27.000 69.258,27.258 69.333,27.573 69.333 C 27.889 69.333,28.193 69.408,28.250 69.500 C 28.307 69.592,28.649 69.667,29.010 69.667 C 29.371 69.667,29.667 69.742,29.667 69.833 C 29.667 69.925,29.887 70.000,30.157 70.000 C 30.426 70.000,30.684 70.059,30.729 70.132 C 30.774 70.205,31.434 70.285,32.197 70.310 C 32.959 70.335,33.655 70.426,33.742 70.511 C 34.187 70.949,35.249 70.684,35.288 70.126 C 35.309 69.829,35.403 69.560,35.496 69.529 C 35.590 69.498,35.667 69.413,35.667 69.341 C 35.667 69.218,36.759 67.305,38.558 64.278 C 38.984 63.560,39.333 62.936,39.333 62.891 C 39.333 62.847,39.542 62.497,39.798 62.113 C 41.191 60.023,41.159 59.914,39.222 60.152 C 33.466 60.858,27.689 59.258,22.752 55.591 C 21.533 54.686,18.333 51.583,18.333 51.307 C 18.333 51.243,18.226 51.084,18.096 50.953 C 17.502 50.359,15.779 47.324,15.142 45.750 C 13.106 40.717,12.961 32.665,14.844 29.147 C 14.970 28.912,14.955 28.833,14.787 28.833 C 14.663 28.833,14.409 28.552,14.223 28.208 C 13.844 27.508,13.871 27.556,11.502 23.417 C 10.558 21.767,9.653 20.183,9.492 19.898 C 8.745 18.578,8.701 18.537,8.417 18.881 M53.167 20.417 C 53.757 21.012,54.278 21.500,54.324 21.500 C 54.370 21.500,53.924 21.012,53.333 20.417 C 52.743 19.821,52.222 19.333,52.176 19.333 C 52.130 19.333,52.576 19.821,53.167 20.417 M47.333 19.718 C 47.333 19.757,47.652 19.999,48.042 20.256 C 48.431 20.513,48.662 20.617,48.554 20.487 C 48.348 20.236,47.333 19.598,47.333 19.718 M22.833 21.000 L 22.833 21.833 23.667 21.833 L 24.500 21.833 24.500 21.000 L 24.500 20.167 23.667 20.167 L 22.833 20.167 22.833 21.000 M25.090 20.708 C 25.044 20.915,24.986 21.346,24.962 21.667 C 24.920 22.209,24.870 22.257,24.250 22.351 L 23.583 22.453 24.288 22.476 C 25.061 22.502,25.040 22.534,25.241 21.042 C 25.342 20.300,25.233 20.062,25.090 20.708 M48.833 20.818 C 48.833 20.918,48.891 21.000,48.961 21.000 C 49.032 21.000,49.500 21.355,50.003 21.789 C 50.505 22.224,50.812 22.446,50.684 22.284 C 50.280 21.774,48.833 20.627,48.833 20.818 M54.750 21.586 C 55.111 21.714,65.341 21.765,65.539 21.639 C 65.655 21.565,63.237 21.510,60.167 21.516 C 57.096 21.522,54.658 21.553,54.750 21.586 M20.500 22.899 C 20.500 23.333,20.169 23.542,19.708 23.399 C 19.432 23.313,19.432 23.318,19.706 23.494 C 20.122 23.762,20.667 23.432,20.667 22.911 C 20.667 22.685,20.629 22.500,20.583 22.500 C 20.537 22.500,20.500 22.679,20.500 22.899 M22.075 23.208 L 21.417 23.917 22.125 23.258 C 22.515 22.895,22.833 22.577,22.833 22.550 C 22.833 22.423,22.688 22.550,22.075 23.208 M52.153 23.958 C 52.646 24.531,53.083 25.000,53.124 25.000 C 53.234 25.000,51.889 23.419,51.550 23.150 C 51.389 23.022,51.660 23.385,52.153 23.958 M24.000 23.792 C 24.000 23.860,24.993 23.897,26.208 23.873 C 30.236 23.795,30.623 23.732,27.292 23.699 C 25.481 23.681,24.000 23.723,24.000 23.792 M32.113 23.776 C 31.901 23.988,31.983 30.083,32.200 30.300 C 32.349 30.449,33.766 30.490,37.742 30.462 L 43.083 30.424 37.667 30.337 L 32.250 30.250 32.250 27.083 L 32.250 23.917 41.083 23.917 L 49.917 23.917 49.917 27.950 C 49.917 30.169,49.974 31.926,50.045 31.855 C 50.115 31.785,50.153 29.932,50.128 27.739 L 50.083 23.750 41.154 23.707 C 36.243 23.683,32.174 23.714,32.113 23.776 M30.575 26.964 C 30.585 30.677,30.928 30.352,27.057 30.295 C 25.393 30.270,24.066 30.306,24.109 30.375 C 24.263 30.623,30.075 30.520,30.426 30.264 C 30.793 29.996,30.985 26.154,30.706 24.667 C 30.609 24.146,30.568 24.850,30.575 26.964 M20.942 24.471 C 20.630 24.817,20.580 25.167,20.843 25.167 C 20.940 25.167,20.970 25.087,20.910 24.989 C 20.850 24.892,20.932 24.667,21.093 24.489 C 21.254 24.312,21.347 24.167,21.302 24.167 C 21.256 24.167,21.094 24.304,20.942 24.471 M16.897 24.708 C 16.323 25.682,16.286 25.765,16.578 25.417 C 16.916 25.013,17.208 24.500,17.099 24.500 C 17.055 24.500,16.964 24.594,16.897 24.708 M23.900 27.167 C 23.900 28.587,23.926 29.169,23.957 28.458 C 23.988 27.748,23.988 26.585,23.957 25.875 C 23.926 25.165,23.900 25.746,23.900 27.167 M22.298 25.332 C 22.663 25.487,22.677 25.563,22.631 27.122 L 22.583 28.750 20.861 28.798 C 19.248 28.842,19.133 28.824,19.050 28.506 C 18.961 28.167,18.809 28.080,18.625 28.264 C 18.067 28.821,21.814 29.378,22.631 28.859 C 23.094 28.565,22.824 25.257,22.333 25.210 C 21.917 25.170,21.917 25.170,22.298 25.332 M21.080 25.619 C 21.537 25.657,21.974 25.777,22.051 25.886 C 22.149 26.023,22.171 26.007,22.125 25.833 C 22.076 25.653,21.805 25.579,21.154 25.567 L 20.250 25.550 21.080 25.619 M19.390 27.083 C 19.391 27.817,19.420 28.096,19.456 27.704 C 19.491 27.312,19.490 26.712,19.454 26.371 C 19.419 26.029,19.390 26.350,19.390 27.083 M15.613 27.091 C 15.222 27.912,15.277 28.052,15.686 27.276 C 15.872 26.924,15.995 26.606,15.959 26.570 C 15.923 26.534,15.767 26.768,15.613 27.091 M20.833 28.333 L 19.583 28.440 20.782 28.470 C 21.441 28.486,22.027 28.425,22.083 28.333 C 22.140 28.242,22.163 28.180,22.135 28.197 C 22.107 28.213,21.521 28.275,20.833 28.333 M18.107 29.377 C 17.720 30.392,17.783 30.585,18.182 29.603 C 18.363 29.156,18.482 28.760,18.447 28.724 C 18.411 28.689,18.258 28.982,18.107 29.377 M43.397 31.249 C 43.412 31.756,43.487 31.920,43.712 31.940 C 43.900 31.957,43.918 31.938,43.763 31.889 C 43.626 31.846,43.488 31.542,43.448 31.198 L 43.377 30.583 43.397 31.249 M56.005 31.000 C 56.005 31.137,56.078 31.363,56.167 31.500 C 56.310 31.722,56.328 31.722,56.328 31.500 C 56.328 31.363,56.256 31.137,56.167 31.000 C 56.023 30.778,56.005 30.778,56.005 31.000 M24.191 31.815 C 24.064 31.895,25.122 31.920,26.627 31.872 C 30.179 31.759,30.412 31.808,30.603 32.712 L 30.751 33.417 35.792 33.420 L 40.833 33.424 35.833 33.376 L 30.833 33.328 30.833 32.831 C 30.833 31.776,30.499 31.666,27.292 31.669 C 25.710 31.671,24.315 31.736,24.191 31.815 M17.187 32.250 C 17.173 32.433,17.124 32.771,17.076 33.000 L 16.991 33.417 17.169 33.008 C 17.267 32.783,17.317 32.445,17.280 32.258 C 17.214 31.925,17.211 31.925,17.187 32.250 M46.132 32.124 C 46.708 32.156,47.608 32.156,48.132 32.123 C 48.655 32.090,48.183 32.063,47.083 32.064 C 45.983 32.064,45.555 32.091,46.132 32.124 M56.539 33.000 C 56.539 33.321,56.573 33.452,56.615 33.292 C 56.657 33.131,56.657 32.869,56.615 32.708 C 56.573 32.548,56.539 32.679,56.539 33.000 M23.902 36.083 C 23.901 37.642,23.926 38.302,23.957 37.550 C 23.988 36.798,23.988 35.523,23.958 34.717 C 23.927 33.910,23.902 34.525,23.902 36.083 M49.917 41.667 C 49.917 46.158,49.973 49.833,50.042 49.833 C 50.110 49.833,50.167 46.158,50.167 41.667 C 50.167 37.175,50.110 33.500,50.042 33.500 C 49.973 33.500,49.917 37.175,49.917 41.667 M16.774 34.691 C 16.642 35.952,16.658 38.299,16.806 39.417 C 16.867 39.875,16.917 38.769,16.917 36.958 C 16.917 33.249,16.920 33.296,16.774 34.691 M56.900 36.917 C 56.900 38.292,56.926 38.832,56.957 38.117 C 56.989 37.403,56.988 36.278,56.957 35.617 C 56.925 34.957,56.900 35.542,56.900 36.917 M24.145 40.045 C 24.216 40.116,25.843 40.153,27.762 40.128 L 31.250 40.083 27.633 40.000 C 25.644 39.954,24.074 39.974,24.145 40.045 M39.833 40.290 L 43.333 40.340 43.333 41.669 L 43.333 42.997 34.500 43.042 L 25.667 43.088 34.542 43.086 L 43.417 43.083 43.417 41.667 L 43.417 40.250 39.875 40.245 L 36.333 40.240 39.833 40.290 M17.028 40.750 C 17.031 40.933,17.093 41.271,17.167 41.500 L 17.300 41.917 17.305 41.500 C 17.308 41.271,17.245 40.933,17.167 40.750 L 17.023 40.417 17.028 40.750 M56.433 41.183 C 56.372 41.565,56.355 41.910,56.395 41.950 C 56.434 41.990,56.519 41.712,56.583 41.333 C 56.647 40.954,56.665 40.609,56.622 40.567 C 56.579 40.524,56.494 40.801,56.433 41.183 M17.359 42.167 C 17.359 42.304,17.460 42.679,17.583 43.000 C 17.707 43.321,17.808 43.471,17.808 43.333 C 17.808 43.196,17.707 42.821,17.583 42.500 C 17.460 42.179,17.359 42.029,17.359 42.167 M24.000 43.296 C 24.000 43.367,24.300 43.397,24.667 43.362 C 25.033 43.327,25.333 43.269,25.333 43.232 C 25.333 43.196,25.033 43.167,24.667 43.167 C 24.300 43.167,24.000 43.225,24.000 43.296 M18.181 44.583 C 18.181 44.675,18.324 45.012,18.500 45.333 C 18.676 45.654,18.819 45.842,18.819 45.750 C 18.819 45.658,18.676 45.321,18.500 45.000 C 18.324 44.679,18.181 44.492,18.181 44.583 M23.899 47.083 C 23.899 48.367,23.926 48.870,23.957 48.201 C 23.989 47.532,23.989 46.482,23.957 45.868 C 23.925 45.253,23.899 45.800,23.899 47.083 M55.052 45.292 C 54.995 45.452,54.917 45.658,54.879 45.750 C 54.840 45.842,54.927 45.771,55.071 45.593 C 55.333 45.270,55.412 45.000,55.245 45.000 C 55.196 45.000,55.109 45.131,55.052 45.292 M54.083 47.167 C 53.941 47.442,53.862 47.667,53.908 47.667 C 53.954 47.667,54.108 47.442,54.250 47.167 C 54.392 46.892,54.471 46.667,54.425 46.667 C 54.379 46.667,54.226 46.892,54.083 47.167 M20.663 48.995 C 20.857 49.267,21.101 49.543,21.205 49.607 C 21.309 49.671,21.184 49.448,20.927 49.112 C 20.370 48.381,20.160 48.288,20.663 48.995 M52.833 48.933 C 52.833 49.019,52.480 49.500,52.048 50.003 C 51.616 50.505,51.437 50.767,51.650 50.583 C 52.238 50.077,53.053 48.998,52.937 48.881 C 52.880 48.824,52.833 48.848,52.833 48.933 M31.375 49.958 C 34.560 49.984,39.773 49.984,42.958 49.958 C 46.144 49.933,43.538 49.912,37.167 49.912 C 30.796 49.912,28.190 49.933,31.375 49.958 M22.583 51.167 C 23.220 51.808,23.779 52.333,23.824 52.333 C 23.870 52.333,23.387 51.808,22.750 51.167 C 22.113 50.525,21.555 50.000,21.509 50.000 C 21.463 50.000,21.947 50.525,22.583 51.167 M50.337 51.746 C 50.124 51.973,49.699 52.329,49.393 52.537 C 49.086 52.746,48.835 52.978,48.834 53.054 C 48.833 53.200,49.282 52.872,50.263 52.011 C 50.596 51.719,50.836 51.447,50.796 51.407 C 50.756 51.367,50.550 51.520,50.337 51.746 M24.067 52.473 C 24.346 52.926,28.156 55.333,28.592 55.333 C 28.671 55.333,28.064 54.950,27.243 54.482 C 26.422 54.014,25.345 53.329,24.850 52.958 C 24.355 52.588,24.003 52.370,24.067 52.473 M48.034 53.572 C 47.260 54.119,47.151 54.275,47.804 53.901 C 48.109 53.726,48.437 53.490,48.533 53.375 C 48.780 53.081,48.664 53.126,48.034 53.572 M46.458 54.511 C 46.115 54.693,45.833 54.879,45.833 54.924 C 45.833 54.970,46.133 54.854,46.500 54.667 C 46.867 54.480,47.167 54.291,47.167 54.247 C 47.167 54.138,47.165 54.138,46.458 54.511 M44.833 55.333 C 44.512 55.509,44.325 55.653,44.417 55.653 C 44.508 55.653,44.846 55.509,45.167 55.333 C 45.487 55.158,45.675 55.014,45.583 55.014 C 45.492 55.014,45.154 55.158,44.833 55.333 M30.750 56.167 C 30.933 56.245,31.196 56.310,31.333 56.310 C 31.491 56.310,31.460 56.257,31.250 56.167 C 31.067 56.088,30.804 56.023,30.667 56.023 C 30.509 56.023,30.540 56.076,30.750 56.167 M41.083 56.500 C 40.630 56.615,40.622 56.628,41.000 56.635 C 41.229 56.640,41.567 56.579,41.750 56.500 C 42.161 56.323,41.777 56.323,41.083 56.500 M34.033 56.922 C 34.081 56.970,35.304 57.010,36.750 57.010 C 38.196 57.010,39.419 56.970,39.467 56.922 C 39.516 56.873,38.293 56.833,36.750 56.833 C 35.207 56.833,33.984 56.873,34.033 56.922 " stroke="none" fill="#558deb" fill-rule="evenodd"></path><path id="path3" d="M35.964 13.790 C 36.448 13.824,37.198 13.823,37.631 13.789 C 38.063 13.755,37.667 13.727,36.750 13.728 C 35.833 13.728,35.480 13.756,35.964 13.790 M33.877 13.953 C 34.131 13.991,34.506 13.990,34.711 13.951 C 34.916 13.911,34.708 13.880,34.250 13.881 C 33.792 13.882,33.624 13.915,33.877 13.953 M38.681 13.894 C 38.719 13.927,39.275 13.995,39.917 14.045 C 40.624 14.100,40.887 14.084,40.583 14.004 C 40.077 13.871,38.553 13.783,38.681 13.894 M31.417 14.333 C 30.992 14.516,31.430 14.516,32.000 14.333 C 32.335 14.226,32.351 14.199,32.083 14.195 C 31.900 14.192,31.600 14.255,31.417 14.333 M41.667 14.333 C 42.237 14.516,42.675 14.516,42.250 14.333 C 42.067 14.255,41.767 14.192,41.583 14.195 C 41.315 14.199,41.332 14.226,41.667 14.333 M46.000 15.750 C 46.229 15.881,46.492 15.988,46.583 15.988 C 46.675 15.988,46.563 15.881,46.333 15.750 C 46.104 15.619,45.842 15.512,45.750 15.512 C 45.658 15.512,45.771 15.619,46.000 15.750 M36.458 16.618 C 36.665 16.657,37.002 16.657,37.208 16.618 C 37.415 16.578,37.246 16.545,36.833 16.545 C 36.421 16.545,36.252 16.578,36.458 16.618 M24.875 16.998 C 24.577 17.180,24.333 17.365,24.333 17.409 C 24.333 17.453,24.596 17.334,24.917 17.145 C 25.238 16.955,25.500 16.770,25.500 16.734 C 25.500 16.627,25.447 16.649,24.875 16.998 M34.711 16.786 C 34.964 16.825,35.339 16.824,35.544 16.784 C 35.749 16.744,35.542 16.713,35.083 16.714 C 34.625 16.716,34.457 16.748,34.711 16.786 M38.377 16.786 C 38.631 16.825,39.006 16.824,39.211 16.784 C 39.416 16.744,39.208 16.713,38.750 16.714 C 38.292 16.716,38.124 16.748,38.377 16.786 M41.750 17.333 C 41.933 17.412,42.196 17.477,42.333 17.477 C 42.491 17.477,42.460 17.424,42.250 17.333 C 42.067 17.255,41.804 17.190,41.667 17.190 C 41.509 17.190,41.540 17.243,41.750 17.333 M43.167 17.750 C 43.928 18.043,44.227 18.039,43.583 17.744 C 43.308 17.618,42.971 17.517,42.833 17.520 C 42.696 17.523,42.846 17.626,43.167 17.750 M49.833 17.713 C 49.833 17.749,50.452 18.273,51.208 18.876 C 51.965 19.478,52.956 20.353,53.410 20.819 C 53.865 21.285,54.331 21.667,54.446 21.667 C 54.561 21.667,54.732 21.811,54.826 21.987 C 54.921 22.163,55.097 22.407,55.218 22.529 C 55.614 22.926,57.000 25.074,57.000 25.290 C 57.000 25.405,57.061 25.500,57.136 25.500 C 57.210 25.500,57.374 25.762,57.500 26.083 C 57.626 26.404,57.772 26.667,57.824 26.667 C 57.876 26.667,58.017 26.910,58.137 27.208 C 58.257 27.506,58.416 27.865,58.490 28.005 C 58.564 28.146,58.677 28.501,58.742 28.795 C 58.806 29.089,58.928 29.372,59.013 29.425 C 59.097 29.477,59.167 29.736,59.167 30.000 C 59.167 30.264,59.242 30.527,59.333 30.583 C 59.425 30.640,59.500 30.940,59.500 31.250 C 59.500 31.560,59.567 31.855,59.649 31.906 C 60.211 32.253,60.211 41.580,59.649 41.928 C 59.567 41.978,59.500 42.273,59.500 42.583 C 59.500 42.893,59.425 43.193,59.333 43.250 C 59.242 43.307,59.167 43.534,59.167 43.754 C 59.167 43.975,59.060 44.402,58.930 44.703 C 58.800 45.004,58.528 45.681,58.327 46.208 C 58.126 46.735,57.895 47.167,57.814 47.167 C 57.733 47.167,57.667 47.280,57.667 47.419 C 57.667 47.650,57.366 48.301,57.167 48.500 C 57.121 48.546,56.942 48.861,56.770 49.201 C 56.597 49.540,56.316 49.968,56.145 50.152 C 55.973 50.336,55.833 50.564,55.833 50.660 C 55.833 50.755,55.775 50.833,55.703 50.833 C 55.631 50.833,55.428 51.077,55.253 51.375 C 54.848 52.062,51.370 55.500,51.079 55.500 C 50.959 55.500,50.836 55.559,50.806 55.632 C 50.710 55.858,49.563 56.667,49.337 56.667 C 49.219 56.667,49.001 56.800,48.853 56.963 C 48.502 57.348,45.908 58.634,45.208 58.770 C 44.910 58.828,44.667 58.941,44.667 59.021 C 44.667 59.101,44.442 59.167,44.167 59.167 C 43.892 59.167,43.667 59.242,43.667 59.333 C 43.667 59.425,43.404 59.500,43.083 59.500 C 42.762 59.500,42.500 59.567,42.500 59.649 C 42.500 59.832,37.104 60.106,35.167 60.021 C 25.195 59.583,16.360 51.903,14.149 41.750 C 13.989 41.017,13.853 40.615,13.846 40.857 C 13.833 41.323,14.521 44.128,14.848 44.937 C 14.954 45.201,15.095 45.567,15.159 45.750 C 15.604 47.009,17.486 50.343,18.096 50.953 C 18.226 51.084,18.333 51.243,18.333 51.307 C 18.333 51.583,21.533 54.686,22.752 55.591 C 27.689 59.258,33.466 60.858,39.222 60.152 C 41.159 59.914,41.191 60.023,39.798 62.113 C 39.542 62.497,39.333 62.847,39.333 62.891 C 39.333 62.936,38.984 63.560,38.558 64.278 C 36.759 67.305,35.667 69.218,35.667 69.341 C 35.667 69.413,35.597 69.497,35.512 69.528 C 35.426 69.558,35.333 69.808,35.303 70.083 L 35.250 70.583 37.500 70.602 C 38.737 70.613,39.873 70.558,40.023 70.481 C 40.173 70.405,40.904 70.325,41.648 70.305 C 42.392 70.286,43.000 70.209,43.000 70.135 C 43.000 70.061,43.221 70.000,43.490 70.000 C 43.760 70.000,44.027 69.925,44.083 69.833 C 44.140 69.742,44.519 69.667,44.927 69.667 C 45.334 69.667,45.667 69.592,45.667 69.500 C 45.667 69.408,45.929 69.333,46.250 69.333 C 46.571 69.333,46.833 69.275,46.833 69.203 C 46.833 69.023,47.848 68.656,48.032 68.770 C 48.114 68.820,48.274 68.785,48.387 68.691 C 48.501 68.597,48.779 68.485,49.005 68.441 C 49.620 68.324,50.000 68.149,50.000 67.982 C 50.000 67.900,50.151 67.833,50.336 67.833 C 50.707 67.833,51.225 67.570,51.731 67.125 C 51.914 66.965,52.175 66.833,52.312 66.833 C 52.703 66.833,54.017 66.149,54.115 65.895 C 54.163 65.770,54.328 65.667,54.481 65.667 C 54.634 65.667,54.868 65.517,55.000 65.333 C 55.132 65.150,55.374 65.000,55.537 65.000 C 55.700 65.000,55.833 64.921,55.833 64.823 C 55.833 64.726,55.901 64.689,55.983 64.740 C 56.065 64.790,56.373 64.607,56.667 64.333 C 56.961 64.058,57.251 63.833,57.310 63.833 C 57.370 63.833,57.719 63.552,58.086 63.208 C 58.453 62.865,58.961 62.449,59.215 62.284 C 59.469 62.120,59.633 61.914,59.579 61.826 C 59.525 61.738,59.635 61.667,59.823 61.667 C 60.023 61.667,60.167 61.558,60.167 61.407 C 60.167 61.264,60.242 61.193,60.333 61.250 C 60.425 61.307,60.500 61.224,60.500 61.065 C 60.500 60.907,60.541 60.819,60.591 60.869 C 60.822 61.100,63.167 58.339,63.167 57.837 C 63.167 57.743,63.282 57.667,63.422 57.667 C 63.562 57.667,63.726 57.535,63.785 57.375 C 63.845 57.215,64.012 56.971,64.157 56.833 C 64.303 56.696,64.570 56.283,64.752 55.917 C 64.934 55.550,65.213 55.130,65.372 54.983 C 65.531 54.836,65.614 54.669,65.556 54.612 C 65.499 54.555,65.576 54.461,65.726 54.403 C 65.877 54.345,66.000 54.203,66.000 54.088 C 66.000 53.973,66.159 53.677,66.352 53.430 C 66.546 53.184,66.665 52.943,66.616 52.894 C 66.568 52.845,66.672 52.662,66.847 52.486 C 67.023 52.310,67.167 52.017,67.167 51.833 C 67.167 51.650,67.242 51.500,67.333 51.500 C 67.425 51.500,67.500 51.350,67.500 51.167 C 67.500 50.983,67.575 50.833,67.667 50.833 C 67.758 50.833,67.833 50.680,67.833 50.493 C 67.833 50.306,67.978 49.998,68.154 49.808 C 68.331 49.619,68.434 49.356,68.384 49.226 C 68.334 49.095,68.408 48.859,68.548 48.702 C 68.689 48.545,68.856 48.060,68.921 47.625 C 68.985 47.190,69.104 46.833,69.186 46.833 C 69.267 46.833,69.333 46.496,69.333 46.083 C 69.333 45.671,69.408 45.333,69.500 45.333 C 69.592 45.333,69.667 45.071,69.667 44.750 C 69.667 44.429,69.742 44.167,69.833 44.167 C 69.925 44.167,70.000 43.867,70.000 43.500 C 70.000 43.133,70.060 42.833,70.132 42.833 C 70.205 42.833,70.275 42.314,70.287 41.679 C 70.299 41.044,70.393 40.367,70.496 40.174 C 70.720 39.755,70.706 33.848,70.480 33.566 C 70.399 33.465,70.321 33.052,70.307 32.649 C 70.293 32.246,70.199 31.862,70.099 31.794 C 69.978 31.713,69.994 31.671,70.145 31.669 C 70.339 31.667,70.339 31.624,70.145 31.385 C 69.990 31.193,69.983 31.143,70.125 31.228 C 70.256 31.307,70.333 31.257,70.333 31.093 C 70.333 30.950,70.258 30.833,70.167 30.833 C 70.075 30.833,70.000 30.571,70.000 30.250 C 70.000 29.929,69.925 29.667,69.833 29.667 C 69.742 29.667,69.667 29.371,69.667 29.010 C 69.667 28.649,69.592 28.307,69.500 28.250 C 69.408 28.193,69.333 27.889,69.333 27.573 C 69.333 27.258,69.267 27.000,69.185 27.000 C 69.104 27.000,68.987 26.719,68.925 26.375 C 68.762 25.466,68.471 24.646,68.131 24.141 C 67.967 23.898,67.833 23.541,67.833 23.349 C 67.833 23.157,67.758 23.000,67.667 23.000 C 67.575 23.000,67.500 22.850,67.500 22.667 C 67.500 22.483,67.425 22.333,67.333 22.333 C 67.242 22.333,67.167 22.199,67.167 22.036 C 67.167 21.756,66.795 21.736,61.042 21.698 C 53.865 21.652,54.613 21.797,52.820 20.102 C 51.555 18.906,49.833 17.529,49.833 17.713 M29.083 18.158 C 28.717 18.331,28.492 18.474,28.583 18.474 C 28.811 18.476,30.126 17.860,29.917 17.850 C 29.825 17.846,29.450 17.984,29.083 18.158 M44.697 18.253 C 44.856 18.411,46.833 19.331,46.833 19.246 C 46.833 19.159,45.671 18.557,45.039 18.317 C 44.792 18.223,44.638 18.194,44.697 18.253 M26.108 19.652 C 24.934 20.415,24.839 20.550,24.836 21.458 C 24.834 22.000,24.770 22.167,24.563 22.167 C 24.348 22.167,24.333 22.118,24.489 21.930 C 24.599 21.797,24.663 21.338,24.635 20.888 L 24.583 20.083 23.610 20.033 L 22.636 19.982 22.689 21.133 L 22.742 22.283 21.688 23.433 C 21.108 24.066,20.563 24.716,20.477 24.877 C 20.305 25.198,20.302 25.197,21.417 25.439 L 22.083 25.583 22.083 27.000 L 22.083 28.417 20.750 28.417 C 20.017 28.417,19.354 28.492,19.278 28.583 C 19.202 28.675,19.176 28.436,19.220 28.051 L 19.299 27.352 18.917 27.735 C 18.491 28.161,18.098 28.868,17.935 29.500 C 17.876 29.729,18.013 29.523,18.238 29.042 C 18.674 28.110,18.906 27.957,19.050 28.506 C 19.133 28.824,19.248 28.842,20.861 28.798 L 22.583 28.750 22.583 27.083 C 22.583 25.588,22.553 25.422,22.292 25.466 C 22.131 25.493,22.000 25.436,22.000 25.341 C 22.000 25.245,21.700 25.167,21.333 25.167 C 19.777 25.167,21.981 22.677,23.770 22.415 L 24.917 22.248 25.004 21.384 C 25.052 20.909,25.127 20.487,25.170 20.446 C 25.214 20.404,25.738 20.063,26.333 19.687 C 26.929 19.311,27.342 19.006,27.250 19.011 C 27.158 19.015,26.644 19.303,26.108 19.652 M20.305 20.626 C 18.955 22.011,17.488 23.848,17.147 24.580 C 17.046 24.797,17.096 24.769,17.287 24.503 C 18.588 22.685,19.640 21.415,20.656 20.437 C 21.310 19.806,21.818 19.263,21.785 19.230 C 21.752 19.196,21.086 19.825,20.305 20.626 M47.000 19.396 C 47.000 19.435,47.267 19.625,47.593 19.817 C 47.920 20.010,48.140 20.092,48.083 19.999 C 47.971 19.819,47.000 19.278,47.000 19.396 M24.500 21.000 L 24.500 21.833 23.667 21.833 L 22.833 21.833 22.833 21.000 L 22.833 20.167 23.667 20.167 L 24.500 20.167 24.500 21.000 M48.993 20.735 C 49.317 21.002,50.354 21.995,51.296 22.941 C 52.238 23.887,52.935 24.531,52.846 24.372 C 52.458 23.685,49.651 21.029,48.659 20.410 C 48.518 20.322,48.668 20.468,48.993 20.735 M24.074 24.047 C 24.029 24.165,24.014 25.609,24.042 27.256 L 24.092 30.250 24.129 27.132 L 24.167 24.015 25.375 23.957 L 26.583 23.900 25.370 23.866 C 24.511 23.843,24.132 23.896,24.074 24.047 M29.781 23.953 C 30.101 23.993,30.342 24.132,30.387 24.301 C 30.440 24.502,30.467 24.475,30.481 24.208 C 30.498 23.878,30.425 23.837,29.875 23.860 C 29.275 23.886,29.271 23.889,29.781 23.953 M32.241 24.047 C 32.196 24.165,32.179 25.609,32.204 27.256 L 32.250 30.250 37.667 30.333 C 43.532 30.424,43.500 30.418,43.500 31.252 C 43.500 31.985,43.741 32.031,47.250 31.966 L 49.917 31.917 49.931 30.417 L 49.945 28.917 49.847 30.333 L 49.750 31.750 47.250 31.799 C 44.057 31.862,43.667 31.797,43.664 31.201 C 43.659 30.225,43.830 30.254,37.840 30.202 L 32.333 30.154 32.333 27.080 L 32.333 24.007 35.792 23.958 L 39.250 23.910 35.786 23.871 C 33.093 23.842,32.305 23.881,32.241 24.047 M48.536 23.955 L 49.822 24.013 49.878 25.715 L 49.934 27.417 49.925 25.667 L 49.917 23.917 48.583 23.907 L 47.250 23.896 48.536 23.955 M53.167 24.890 C 53.167 24.963,53.382 25.337,53.645 25.720 C 53.907 26.103,54.328 26.810,54.579 27.292 C 55.029 28.155,55.260 28.443,55.047 27.875 C 54.801 27.221,53.167 24.626,53.167 24.890 M19.435 25.637 C 19.389 25.712,19.572 25.741,19.842 25.701 C 20.112 25.661,20.333 25.600,20.333 25.564 C 20.333 25.437,19.518 25.503,19.435 25.637 M30.562 27.417 C 30.563 28.425,30.590 28.816,30.623 28.286 C 30.657 27.755,30.656 26.930,30.623 26.452 C 30.589 25.974,30.562 26.408,30.562 27.417 M14.845 29.124 C 13.740 31.544,13.078 37.609,13.667 39.917 C 13.737 40.192,13.757 39.404,13.712 38.167 C 13.593 34.933,13.903 32.496,14.760 29.921 C 15.164 28.708,15.203 28.338,14.845 29.124 M55.695 29.675 C 55.792 29.955,55.903 30.153,55.941 30.115 C 56.023 30.032,55.709 29.167,55.596 29.167 C 55.553 29.167,55.597 29.395,55.695 29.675 M25.700 30.291 C 26.497 30.321,27.847 30.321,28.700 30.291 C 29.552 30.261,28.900 30.236,27.250 30.236 C 25.600 30.235,24.902 30.260,25.700 30.291 M17.262 31.429 C 17.201 31.673,17.183 31.905,17.222 31.944 C 17.261 31.983,17.343 31.816,17.405 31.571 C 17.466 31.327,17.484 31.095,17.445 31.056 C 17.406 31.017,17.323 31.184,17.262 31.429 M56.362 31.583 C 56.359 31.767,56.421 32.067,56.500 32.250 C 56.683 32.675,56.683 32.237,56.500 31.667 C 56.393 31.332,56.366 31.315,56.362 31.583 M26.383 31.957 C 27.097 31.989,28.222 31.988,28.883 31.957 C 29.543 31.925,28.958 31.900,27.583 31.900 C 26.208 31.900,25.668 31.926,26.383 31.957 M24.039 35.945 C 24.076 39.284,24.122 39.900,24.333 39.957 C 24.525 40.009,24.533 39.990,24.369 39.874 C 24.202 39.756,24.165 38.863,24.202 35.861 C 24.228 33.737,24.192 32.000,24.122 32.000 C 24.052 32.000,24.014 33.775,24.039 35.945 M30.500 33.083 C 30.500 33.313,30.565 33.500,30.644 33.500 C 30.723 33.500,30.751 33.313,30.707 33.083 C 30.664 32.854,30.599 32.667,30.564 32.667 C 30.529 32.667,30.500 32.854,30.500 33.083 M56.706 33.083 C 56.706 33.358,56.763 33.808,56.833 34.083 C 57.010 34.776,57.018 34.094,56.843 33.250 C 56.727 32.689,56.705 32.663,56.706 33.083 M40.458 33.624 L 49.833 33.669 49.833 41.667 L 49.833 49.665 37.208 49.709 L 24.583 49.753 37.250 49.752 L 49.917 49.750 49.917 41.667 L 49.917 33.583 40.500 33.581 L 31.083 33.579 40.458 33.624 M16.606 34.773 C 16.472 35.752,16.490 38.350,16.637 39.333 C 16.700 39.749,16.750 38.726,16.750 37.042 C 16.750 33.652,16.753 33.700,16.606 34.773 M57.064 36.917 C 57.064 38.017,57.091 38.445,57.124 37.868 C 57.156 37.292,57.156 36.392,57.123 35.868 C 57.090 35.345,57.063 35.817,57.064 36.917 M56.764 40.181 C 56.701 40.653,56.684 41.072,56.725 41.113 C 56.766 41.154,56.852 40.803,56.917 40.333 C 56.981 39.863,56.999 39.443,56.956 39.400 C 56.913 39.357,56.827 39.708,56.764 40.181 M33.250 40.119 C 38.734 40.236,43.500 40.239,43.500 40.125 C 43.500 40.056,40.706 40.016,37.292 40.036 C 33.877 40.056,32.058 40.094,33.250 40.119 M43.545 41.667 C 43.545 42.079,43.578 42.248,43.618 42.042 C 43.657 41.835,43.657 41.498,43.618 41.292 C 43.578 41.085,43.545 41.254,43.545 41.667 M34.333 43.167 L 25.250 43.254 34.282 43.294 C 40.166 43.320,43.350 43.275,43.417 43.167 C 43.473 43.075,43.496 43.018,43.468 43.040 C 43.440 43.061,39.329 43.118,34.333 43.167 M24.111 43.444 C 23.957 43.599,23.971 49.667,24.125 49.667 C 24.194 49.667,24.228 48.305,24.201 46.640 C 24.163 44.301,24.201 43.581,24.368 43.475 C 24.489 43.398,24.505 43.337,24.403 43.336 C 24.303 43.334,24.172 43.383,24.111 43.444 M17.924 44.375 C 17.986 44.581,18.106 44.823,18.190 44.913 C 18.274 45.002,18.258 44.834,18.155 44.538 C 17.944 43.932,17.749 43.795,17.924 44.375 M18.333 45.228 C 18.333 45.408,19.162 47.000,19.256 47.000 C 19.301 47.000,19.141 46.606,18.899 46.125 C 18.435 45.199,18.333 45.039,18.333 45.228 M54.417 46.833 C 54.274 47.108,54.196 47.333,54.241 47.333 C 54.287 47.333,54.441 47.108,54.583 46.833 C 54.726 46.558,54.804 46.333,54.759 46.333 C 54.713 46.333,54.559 46.558,54.417 46.833 M19.611 47.669 C 19.775 47.946,20.083 48.377,20.296 48.628 C 20.509 48.878,20.406 48.652,20.068 48.125 C 19.427 47.126,19.095 46.795,19.611 47.669 M53.536 48.250 C 53.245 48.663,53.062 49.000,53.130 49.000 C 53.198 49.000,53.358 48.831,53.485 48.625 C 53.613 48.419,53.827 48.081,53.961 47.875 C 54.403 47.196,54.075 47.484,53.536 48.250 M21.291 49.917 C 21.666 50.375,22.371 51.125,22.858 51.583 C 23.478 52.168,23.373 52.018,22.507 51.083 C 20.777 49.218,20.503 48.955,21.291 49.917 M52.601 49.525 C 52.463 49.722,52.001 50.247,51.575 50.692 C 51.150 51.136,50.869 51.500,50.953 51.500 C 51.036 51.500,51.437 51.113,51.844 50.639 C 52.702 49.640,53.053 49.167,52.936 49.167 C 52.890 49.167,52.739 49.328,52.601 49.525 M50.312 51.946 C 50.115 52.187,48.189 53.655,47.232 54.294 C 47.055 54.412,47.138 54.400,47.423 54.266 C 48.270 53.868,51.043 51.667,50.699 51.667 C 50.612 51.667,50.438 51.792,50.312 51.946 M23.993 52.575 C 24.472 53.152,27.333 55.022,27.333 54.758 C 27.333 54.711,27.039 54.523,26.680 54.340 C 26.321 54.157,25.515 53.620,24.890 53.147 C 24.265 52.673,23.861 52.416,23.993 52.575 M45.833 55.000 C 45.329 55.266,44.975 55.488,45.047 55.492 C 45.224 55.503,46.833 54.682,46.833 54.581 C 46.833 54.469,46.856 54.459,45.833 55.000 M27.585 55.002 C 27.681 55.157,29.850 56.039,29.933 55.956 C 29.965 55.924,29.432 55.668,28.749 55.386 C 28.065 55.105,27.541 54.932,27.585 55.002 M41.750 56.500 C 41.540 56.590,41.509 56.643,41.667 56.643 C 41.804 56.643,42.067 56.579,42.250 56.500 C 42.460 56.410,42.491 56.357,42.333 56.357 C 42.196 56.357,41.933 56.421,41.750 56.500 M40.000 56.833 C 39.438 56.952,39.435 56.956,39.917 56.958 C 40.192 56.960,40.642 56.903,40.917 56.833 C 41.608 56.657,40.836 56.657,40.000 56.833 M34.875 57.121 C 35.219 57.157,35.781 57.157,36.125 57.121 C 36.469 57.085,36.188 57.056,35.500 57.056 C 34.813 57.056,34.531 57.085,34.875 57.121 M37.463 57.122 C 37.855 57.157,38.455 57.157,38.796 57.121 C 39.137 57.085,38.817 57.057,38.083 57.057 C 37.350 57.058,37.071 57.087,37.463 57.122 " stroke="none" fill="#94b4f4" fill-rule="evenodd"></path><path id="path4" d="M92.833 21.500 C 92.833 21.592,92.496 21.667,92.083 21.667 C 91.671 21.667,91.333 21.742,91.333 21.833 C 91.333 21.925,91.108 22.000,90.833 22.000 C 90.558 22.000,90.333 22.075,90.333 22.167 C 90.333 22.258,90.108 22.333,89.833 22.333 C 89.558 22.333,89.333 22.408,89.333 22.500 C 89.333 22.592,89.253 22.667,89.155 22.667 C 89.057 22.667,88.864 22.779,88.726 22.917 C 88.589 23.054,88.348 23.167,88.192 23.167 C 88.035 23.167,87.797 23.328,87.662 23.525 C 87.527 23.722,87.098 24.207,86.708 24.604 C 86.319 25.000,86.000 25.402,86.000 25.496 C 86.000 25.590,85.925 25.667,85.833 25.667 C 85.742 25.667,85.667 25.810,85.667 25.986 C 85.667 26.162,85.590 26.331,85.497 26.362 C 85.404 26.393,85.281 26.812,85.224 27.293 C 85.167 27.773,85.056 28.167,84.977 28.167 C 84.898 28.167,84.833 28.917,84.833 29.833 C 84.833 30.750,84.899 31.500,84.979 31.500 C 85.059 31.500,85.162 31.891,85.208 32.368 C 85.254 32.845,85.376 33.264,85.479 33.299 C 85.582 33.333,85.667 33.505,85.667 33.681 C 85.667 33.856,85.742 34.000,85.833 34.000 C 85.925 34.000,86.000 34.133,86.000 34.297 C 86.000 34.460,86.161 34.703,86.357 34.838 C 86.723 35.089,86.995 35.359,87.801 36.270 C 88.054 36.557,88.502 36.844,88.797 36.909 C 89.092 36.973,89.333 37.096,89.333 37.180 C 89.333 37.264,89.483 37.333,89.667 37.333 C 89.850 37.333,90.000 37.408,90.000 37.500 C 90.000 37.592,90.150 37.667,90.333 37.667 C 90.517 37.667,90.667 37.742,90.667 37.833 C 90.667 37.925,90.854 38.000,91.083 38.000 C 91.313 38.000,91.500 38.075,91.500 38.167 C 91.500 38.258,91.719 38.333,91.986 38.333 C 92.253 38.333,92.497 38.408,92.528 38.498 C 92.558 38.589,93.052 38.712,93.625 38.772 C 94.198 38.832,94.667 38.945,94.667 39.024 C 94.667 39.102,94.929 39.167,95.250 39.167 C 95.571 39.167,95.833 39.242,95.833 39.333 C 95.833 39.425,96.133 39.500,96.500 39.500 C 96.867 39.500,97.167 39.575,97.167 39.667 C 97.167 39.758,97.354 39.833,97.583 39.833 C 97.813 39.833,98.000 39.908,98.000 40.000 C 98.000 40.092,98.225 40.167,98.500 40.167 C 98.775 40.167,99.000 40.242,99.000 40.333 C 99.000 40.425,99.112 40.500,99.250 40.500 C 99.388 40.500,99.500 40.575,99.500 40.667 C 99.500 40.758,99.642 40.833,99.816 40.833 C 100.881 40.833,101.999 44.139,101.042 44.458 C 100.927 44.497,100.833 44.672,100.833 44.847 C 100.833 45.023,100.762 45.167,100.674 45.167 C 100.587 45.167,100.328 45.354,100.098 45.583 C 99.869 45.813,99.603 46.000,99.508 46.000 C 99.412 46.000,99.333 46.075,99.333 46.167 C 99.333 46.258,99.183 46.333,99.000 46.333 C 98.817 46.333,98.667 46.408,98.667 46.500 C 98.667 46.592,98.367 46.667,98.000 46.667 C 97.633 46.667,97.333 46.742,97.333 46.833 C 97.333 46.933,96.667 47.000,95.667 47.000 C 94.667 47.000,94.000 46.933,94.000 46.833 C 94.000 46.742,93.775 46.667,93.500 46.667 C 93.225 46.667,93.000 46.592,93.000 46.500 C 93.000 46.408,92.888 46.333,92.750 46.333 C 92.612 46.333,92.500 46.258,92.500 46.167 C 92.500 46.075,92.384 46.000,92.242 46.000 C 91.907 46.000,90.333 44.427,90.333 44.091 C 90.333 43.949,90.258 43.833,90.167 43.833 C 90.075 43.833,90.000 43.683,90.000 43.500 C 90.000 43.317,89.925 43.167,89.833 43.167 C 89.742 43.167,89.667 42.904,89.667 42.583 C 89.667 42.262,89.592 42.000,89.500 42.000 C 89.408 42.000,89.333 41.850,89.333 41.667 C 89.333 41.374,89.222 41.333,88.417 41.333 C 87.912 41.333,87.500 41.408,87.500 41.500 C 87.500 41.597,86.944 41.667,86.167 41.667 C 85.389 41.667,84.833 41.736,84.833 41.833 C 84.833 41.925,84.533 42.000,84.167 42.000 C 83.516 42.000,83.500 42.014,83.500 42.583 C 83.500 42.904,83.575 43.167,83.667 43.167 C 83.758 43.167,83.833 43.542,83.833 44.000 C 83.833 44.458,83.908 44.833,84.000 44.833 C 84.092 44.833,84.167 45.021,84.167 45.250 C 84.167 45.479,84.242 45.667,84.333 45.667 C 84.425 45.667,84.500 45.817,84.500 46.000 C 84.500 46.183,84.575 46.333,84.667 46.333 C 84.758 46.333,84.833 46.446,84.833 46.583 C 84.833 46.721,84.908 46.833,85.000 46.833 C 85.092 46.833,85.167 46.978,85.167 47.155 C 85.167 47.332,85.279 47.589,85.417 47.726 C 85.554 47.864,85.667 48.077,85.667 48.201 C 85.667 48.325,85.828 48.537,86.024 48.672 C 86.221 48.806,86.631 49.160,86.935 49.458 C 87.240 49.756,87.539 50.000,87.600 50.000 C 87.661 50.000,87.832 50.140,87.981 50.311 C 88.129 50.482,88.494 50.675,88.792 50.741 C 89.090 50.806,89.333 50.929,89.333 51.013 C 89.333 51.098,89.558 51.167,89.833 51.167 C 90.108 51.167,90.333 51.242,90.333 51.333 C 90.333 51.425,90.558 51.500,90.833 51.500 C 91.108 51.500,91.333 51.575,91.333 51.667 C 91.333 51.758,91.746 51.833,92.250 51.833 C 92.754 51.833,93.167 51.908,93.167 52.000 C 93.167 52.104,94.194 52.167,95.917 52.167 C 97.639 52.167,98.667 52.104,98.667 52.000 C 98.667 51.908,99.079 51.833,99.583 51.833 C 100.087 51.833,100.500 51.758,100.500 51.667 C 100.500 51.575,100.688 51.500,100.917 51.500 C 101.146 51.500,101.333 51.425,101.333 51.333 C 101.333 51.242,101.558 51.167,101.833 51.167 C 102.108 51.167,102.333 51.100,102.333 51.019 C 102.333 50.937,102.580 50.824,102.880 50.768 C 103.181 50.711,103.535 50.516,103.667 50.333 C 103.799 50.150,104.013 50.000,104.142 50.000 C 104.382 50.000,105.000 49.389,105.000 49.152 C 105.000 49.081,105.150 48.975,105.333 48.917 C 105.517 48.858,105.667 48.682,105.667 48.526 C 105.667 48.369,105.817 48.132,106.000 48.000 C 106.183 47.868,106.333 47.626,106.333 47.463 C 106.333 47.300,106.408 47.167,106.500 47.167 C 106.592 47.167,106.667 47.060,106.667 46.931 C 106.667 46.801,106.743 46.669,106.836 46.638 C 106.930 46.607,107.053 46.188,107.110 45.707 C 107.167 45.227,107.278 44.833,107.357 44.833 C 107.435 44.833,107.500 44.008,107.500 43.000 C 107.500 41.992,107.434 41.167,107.353 41.167 C 107.273 41.167,107.173 40.702,107.132 40.135 C 107.090 39.555,106.972 39.074,106.862 39.037 C 106.755 39.002,106.667 38.828,106.667 38.653 C 106.667 38.477,106.592 38.333,106.500 38.333 C 106.408 38.333,106.333 38.200,106.333 38.037 C 106.333 37.874,106.173 37.630,105.977 37.495 C 105.571 37.216,105.103 36.747,104.500 36.015 C 104.271 35.737,103.984 35.508,103.863 35.505 C 103.742 35.502,103.530 35.387,103.393 35.250 C 103.255 35.112,102.961 35.000,102.738 35.000 C 102.515 35.000,102.333 34.925,102.333 34.833 C 102.333 34.742,102.183 34.667,102.000 34.667 C 101.817 34.667,101.667 34.592,101.667 34.500 C 101.667 34.408,101.479 34.333,101.250 34.333 C 101.021 34.333,100.833 34.258,100.833 34.167 C 100.833 34.075,100.608 34.000,100.333 34.000 C 100.058 34.000,99.833 33.925,99.833 33.833 C 99.833 33.742,99.650 33.667,99.427 33.667 C 99.203 33.667,98.978 33.599,98.927 33.517 C 98.876 33.435,98.309 33.315,97.667 33.250 C 97.025 33.186,96.500 33.065,96.500 32.983 C 96.500 32.901,96.275 32.833,96.000 32.833 C 95.725 32.833,95.500 32.758,95.500 32.667 C 95.500 32.575,95.237 32.500,94.917 32.500 C 94.596 32.500,94.333 32.425,94.333 32.333 C 94.333 32.242,94.183 32.167,94.000 32.167 C 93.817 32.167,93.667 32.092,93.667 32.000 C 93.667 31.908,93.479 31.833,93.250 31.833 C 93.021 31.833,92.833 31.758,92.833 31.667 C 92.833 31.575,92.718 31.500,92.576 31.500 C 92.435 31.500,92.229 31.424,92.118 31.330 C 92.007 31.237,91.729 31.006,91.500 30.816 C 90.245 29.780,91.360 27.266,93.169 27.052 C 93.626 26.998,94.000 26.889,94.000 26.810 C 94.000 26.731,94.712 26.667,95.583 26.667 C 96.454 26.667,97.167 26.732,97.167 26.812 C 97.167 26.892,97.476 27.007,97.855 27.067 C 98.572 27.182,99.833 28.303,99.833 28.826 C 99.833 28.922,99.908 29.000,100.000 29.000 C 100.092 29.000,100.167 29.300,100.167 29.667 C 100.167 30.033,100.242 30.333,100.333 30.333 C 100.425 30.333,100.500 30.483,100.500 30.667 C 100.500 30.975,100.611 31.000,102.000 31.000 C 102.889 31.000,103.500 30.932,103.500 30.833 C 103.500 30.735,104.083 30.667,104.917 30.667 L 106.333 30.667 106.333 29.750 C 106.333 29.246,106.258 28.833,106.167 28.833 C 106.075 28.833,106.000 28.533,106.000 28.167 C 106.000 27.800,105.925 27.500,105.833 27.500 C 105.742 27.500,105.667 27.313,105.667 27.083 C 105.667 26.854,105.592 26.667,105.500 26.667 C 105.408 26.667,105.333 26.517,105.333 26.333 C 105.333 26.150,105.263 26.000,105.178 26.000 C 105.092 26.000,104.974 25.846,104.914 25.658 C 104.758 25.167,102.609 23.000,102.278 23.000 C 102.125 23.000,102.000 22.925,102.000 22.833 C 102.000 22.742,101.850 22.667,101.667 22.667 C 101.483 22.667,101.333 22.592,101.333 22.500 C 101.333 22.408,101.146 22.333,100.917 22.333 C 100.688 22.333,100.500 22.258,100.500 22.167 C 100.500 22.075,100.275 22.000,100.000 22.000 C 99.725 22.000,99.500 21.925,99.500 21.833 C 99.500 21.742,99.162 21.667,98.750 21.667 C 98.337 21.667,98.000 21.592,98.000 21.500 C 98.000 21.396,97.028 21.333,95.417 21.333 C 93.806 21.333,92.833 21.396,92.833 21.500 M148.167 24.583 L 148.167 27.167 151.083 27.167 L 154.000 27.167 154.000 24.583 L 154.000 22.000 151.083 22.000 L 148.167 22.000 148.167 24.583 M159.500 36.750 L 159.500 51.500 162.417 51.500 L 165.333 51.500 165.333 36.750 L 165.333 22.000 162.417 22.000 L 159.500 22.000 159.500 36.750 M193.263 23.208 C 193.327 23.873,193.444 24.442,193.523 24.472 C 193.602 24.503,193.667 24.784,193.667 25.097 C 193.667 25.410,193.742 25.667,193.833 25.667 C 193.925 25.667,194.000 25.967,194.000 26.333 C 194.000 26.700,194.075 27.000,194.167 27.000 C 194.258 27.000,194.333 27.337,194.333 27.750 C 194.333 28.162,194.408 28.500,194.500 28.500 C 194.592 28.500,194.667 28.762,194.667 29.083 C 194.667 29.404,194.742 29.667,194.833 29.667 C 194.925 29.667,195.000 30.004,195.000 30.417 C 195.000 30.829,195.068 31.167,195.152 31.167 C 195.235 31.167,195.357 31.804,195.421 32.583 C 195.486 33.362,195.606 34.000,195.686 34.000 C 195.767 34.000,195.833 34.262,195.833 34.583 C 195.833 34.904,195.908 35.167,196.000 35.167 C 196.092 35.167,196.167 35.542,196.167 36.000 C 196.167 36.458,196.242 36.833,196.333 36.833 C 196.425 36.833,196.500 37.096,196.500 37.417 C 196.500 37.737,196.575 38.000,196.667 38.000 C 196.758 38.000,196.833 38.262,196.833 38.583 C 196.833 38.904,196.898 39.167,196.976 39.167 C 197.055 39.167,197.170 39.785,197.233 40.542 C 197.295 41.298,197.419 41.942,197.507 41.972 C 197.595 42.003,197.667 42.359,197.667 42.764 C 197.667 43.169,197.742 43.500,197.833 43.500 C 197.925 43.500,198.000 43.800,198.000 44.167 C 198.000 44.533,198.075 44.833,198.167 44.833 C 198.258 44.833,198.333 45.171,198.333 45.583 C 198.333 45.996,198.408 46.333,198.500 46.333 C 198.592 46.333,198.667 46.596,198.667 46.917 C 198.667 47.237,198.742 47.500,198.833 47.500 C 198.925 47.500,199.000 47.800,199.000 48.167 C 199.000 48.533,199.065 48.833,199.145 48.833 C 199.225 48.833,199.343 49.433,199.407 50.167 L 199.523 51.500 203.241 51.500 L 206.958 51.500 207.063 50.979 C 207.120 50.693,207.167 50.280,207.167 50.062 C 207.167 49.845,207.242 49.667,207.333 49.667 C 207.425 49.667,207.500 49.404,207.500 49.083 C 207.500 48.762,207.575 48.500,207.667 48.500 C 207.758 48.500,207.833 48.275,207.833 48.000 C 207.833 47.725,207.908 47.500,208.000 47.500 C 208.092 47.500,208.167 47.237,208.167 46.917 C 208.167 46.596,208.242 46.333,208.333 46.333 C 208.425 46.333,208.500 46.033,208.500 45.667 C 208.500 45.300,208.567 45.000,208.650 45.000 C 208.732 45.000,208.852 44.475,208.917 43.833 C 208.981 43.192,209.101 42.667,209.184 42.667 C 209.266 42.667,209.333 42.367,209.333 42.000 C 209.333 41.633,209.408 41.333,209.500 41.333 C 209.592 41.333,209.667 41.146,209.667 40.917 C 209.667 40.688,209.742 40.500,209.833 40.500 C 209.925 40.500,210.000 40.200,210.000 39.833 C 210.000 39.467,210.075 39.167,210.167 39.167 C 210.258 39.167,210.333 38.904,210.333 38.583 C 210.333 38.262,210.408 38.000,210.500 38.000 C 210.592 38.000,210.667 37.742,210.667 37.427 C 210.667 37.111,210.734 36.811,210.816 36.760 C 210.899 36.710,211.019 36.143,211.083 35.501 C 211.148 34.859,211.268 34.333,211.350 34.333 C 211.433 34.333,211.500 34.108,211.500 33.833 C 211.500 33.558,211.575 33.333,211.667 33.333 C 211.758 33.333,211.833 33.071,211.833 32.750 C 211.833 32.429,211.908 32.167,212.000 32.167 C 212.092 32.167,212.167 31.904,212.167 31.583 C 212.167 31.111,212.230 31.000,212.500 31.000 C 212.744 31.000,212.833 31.111,212.833 31.417 C 212.833 31.646,212.902 31.833,212.986 31.833 C 213.070 31.833,213.191 32.396,213.255 33.083 C 213.320 33.771,213.439 34.333,213.520 34.333 C 213.600 34.333,213.667 34.596,213.667 34.917 C 213.667 35.237,213.742 35.500,213.833 35.500 C 213.925 35.500,214.000 35.725,214.000 36.000 C 214.000 36.275,214.075 36.500,214.167 36.500 C 214.258 36.500,214.333 36.762,214.333 37.083 C 214.333 37.404,214.408 37.667,214.500 37.667 C 214.592 37.667,214.667 37.929,214.667 38.250 C 214.667 38.571,214.742 38.833,214.833 38.833 C 214.925 38.833,215.000 39.058,215.000 39.333 C 215.000 39.608,215.069 39.833,215.152 39.833 C 215.236 39.833,215.358 40.396,215.422 41.083 C 215.486 41.771,215.605 42.333,215.686 42.333 C 215.767 42.333,215.833 42.596,215.833 42.917 C 215.833 43.237,215.908 43.500,216.000 43.500 C 216.092 43.500,216.167 43.725,216.167 44.000 C 216.167 44.275,216.242 44.500,216.333 44.500 C 216.425 44.500,216.500 44.762,216.500 45.083 C 216.500 45.404,216.575 45.667,216.667 45.667 C 216.758 45.667,216.833 45.929,216.833 46.250 C 216.833 46.571,216.902 46.833,216.987 46.833 C 217.071 46.833,217.192 47.321,217.256 47.917 C 217.320 48.512,217.438 49.000,217.519 49.000 C 217.600 49.000,217.667 49.300,217.667 49.667 C 217.667 50.033,217.742 50.333,217.833 50.333 C 217.925 50.333,218.000 50.596,218.000 50.917 L 218.000 51.500 221.500 51.500 C 224.889 51.500,225.000 51.489,225.000 51.167 C 225.000 50.983,225.075 50.833,225.167 50.833 C 225.258 50.833,225.333 50.496,225.333 50.083 C 225.333 49.671,225.408 49.333,225.500 49.333 C 225.592 49.333,225.667 49.071,225.667 48.750 C 225.667 48.429,225.742 48.167,225.833 48.167 C 225.925 48.167,226.000 47.867,226.000 47.500 C 226.000 47.133,226.075 46.833,226.167 46.833 C 226.258 46.833,226.333 46.496,226.333 46.083 C 226.333 45.671,226.408 45.333,226.500 45.333 C 226.592 45.333,226.667 45.071,226.667 44.750 C 226.667 44.429,226.733 44.167,226.814 44.167 C 226.895 44.167,227.014 43.604,227.078 42.917 C 227.142 42.229,227.264 41.667,227.348 41.667 C 227.431 41.667,227.500 41.329,227.500 40.917 C 227.500 40.504,227.575 40.167,227.667 40.167 C 227.758 40.167,227.833 39.867,227.833 39.500 C 227.833 39.133,227.908 38.833,228.000 38.833 C 228.092 38.833,228.167 38.571,228.167 38.250 C 228.167 37.929,228.242 37.667,228.333 37.667 C 228.425 37.667,228.500 37.329,228.500 36.917 C 228.500 36.504,228.569 36.167,228.652 36.167 C 228.736 36.167,228.858 35.604,228.922 34.917 C 228.986 34.229,229.105 33.667,229.186 33.667 C 229.267 33.667,229.333 33.329,229.333 32.917 C 229.333 32.504,229.408 32.167,229.500 32.167 C 229.592 32.167,229.667 31.904,229.667 31.583 C 229.667 31.262,229.742 31.000,229.833 31.000 C 229.925 31.000,230.000 30.700,230.000 30.333 C 230.000 29.967,230.075 29.667,230.167 29.667 C 230.258 29.667,230.333 29.329,230.333 28.917 C 230.333 28.504,230.408 28.167,230.500 28.167 C 230.592 28.167,230.667 27.909,230.667 27.593 C 230.667 27.278,230.734 26.978,230.816 26.927 C 230.899 26.876,231.019 26.309,231.083 25.667 C 231.148 25.025,231.268 24.500,231.350 24.500 C 231.433 24.500,231.500 24.162,231.500 23.750 C 231.500 23.337,231.575 23.000,231.667 23.000 C 231.758 23.000,231.833 22.775,231.833 22.500 L 231.833 22.000 228.603 22.000 L 225.373 22.000 225.255 23.417 C 225.190 24.196,225.068 24.833,224.985 24.833 C 224.902 24.833,224.833 25.171,224.833 25.583 C 224.833 25.996,224.758 26.333,224.667 26.333 C 224.575 26.333,224.500 26.671,224.500 27.083 C 224.500 27.496,224.425 27.833,224.333 27.833 C 224.242 27.833,224.167 28.171,224.167 28.583 C 224.167 28.996,224.092 29.333,224.000 29.333 C 223.908 29.333,223.833 29.633,223.833 30.000 C 223.833 30.367,223.766 30.667,223.684 30.667 C 223.602 30.667,223.482 31.342,223.417 32.167 C 223.351 32.992,223.231 33.667,223.149 33.667 C 223.067 33.667,223.000 34.004,223.000 34.417 C 223.000 34.829,222.925 35.167,222.833 35.167 C 222.742 35.167,222.667 35.467,222.667 35.833 C 222.667 36.200,222.592 36.500,222.500 36.500 C 222.408 36.500,222.333 36.837,222.333 37.250 C 222.333 37.662,222.258 38.000,222.167 38.000 C 222.075 38.000,222.000 38.337,222.000 38.750 C 222.000 39.162,221.925 39.500,221.833 39.500 C 221.742 39.500,221.667 39.875,221.667 40.333 C 221.667 41.730,221.066 41.532,220.911 40.083 C 220.847 39.487,220.728 39.000,220.647 39.000 C 220.566 39.000,220.500 38.700,220.500 38.333 C 220.500 37.967,220.425 37.667,220.333 37.667 C 220.242 37.667,220.167 37.404,220.167 37.083 C 220.167 36.762,220.092 36.500,220.000 36.500 C 219.908 36.500,219.833 36.200,219.833 35.833 C 219.833 35.467,219.758 35.167,219.667 35.167 C 219.575 35.167,219.500 34.904,219.500 34.583 C 219.500 34.262,219.431 34.000,219.348 34.000 C 219.264 34.000,219.142 33.438,219.078 32.750 C 219.014 32.063,218.895 31.500,218.814 31.500 C 218.733 31.500,218.667 31.238,218.667 30.917 C 218.667 30.596,218.592 30.333,218.500 30.333 C 218.408 30.333,218.333 30.071,218.333 29.750 C 218.333 29.429,218.258 29.167,218.167 29.167 C 218.075 29.167,218.000 28.867,218.000 28.500 C 218.000 28.133,217.925 27.833,217.833 27.833 C 217.742 27.833,217.667 27.571,217.667 27.250 C 217.667 26.929,217.592 26.667,217.500 26.667 C 217.408 26.667,217.333 26.373,217.333 26.014 C 217.333 25.655,217.259 25.336,217.168 25.306 C 217.078 25.275,216.954 24.781,216.895 24.208 C 216.835 23.635,216.722 23.167,216.643 23.167 C 216.564 23.167,216.500 22.904,216.500 22.583 L 216.500 22.000 212.500 22.000 L 208.500 22.000 208.500 22.583 C 208.500 22.904,208.425 23.167,208.333 23.167 C 208.242 23.167,208.167 23.392,208.167 23.667 C 208.167 23.942,208.092 24.167,208.000 24.167 C 207.908 24.167,207.833 24.429,207.833 24.750 C 207.833 25.071,207.767 25.333,207.686 25.333 C 207.605 25.333,207.486 25.896,207.422 26.583 C 207.358 27.271,207.236 27.833,207.152 27.833 C 207.069 27.833,207.000 28.133,207.000 28.500 C 207.000 28.867,206.925 29.167,206.833 29.167 C 206.742 29.167,206.667 29.429,206.667 29.750 C 206.667 30.071,206.592 30.333,206.500 30.333 C 206.408 30.333,206.333 30.596,206.333 30.917 C 206.333 31.238,206.258 31.500,206.167 31.500 C 206.075 31.500,206.000 31.725,206.000 32.000 C 206.000 32.275,205.925 32.500,205.833 32.500 C 205.742 32.500,205.667 32.762,205.667 33.083 C 205.667 33.404,205.600 33.667,205.520 33.667 C 205.439 33.667,205.320 34.229,205.255 34.917 C 205.191 35.604,205.070 36.167,204.986 36.167 C 204.902 36.167,204.833 36.429,204.833 36.750 C 204.833 37.071,204.758 37.333,204.667 37.333 C 204.575 37.333,204.500 37.633,204.500 38.000 C 204.500 38.367,204.425 38.667,204.333 38.667 C 204.242 38.667,204.167 38.854,204.167 39.083 C 204.167 39.313,204.092 39.500,204.000 39.500 C 203.908 39.500,203.833 39.800,203.833 40.167 C 203.833 40.708,203.774 40.833,203.520 40.833 C 203.243 40.833,203.192 40.647,203.088 39.250 C 203.022 38.379,202.901 37.667,202.818 37.667 C 202.735 37.667,202.667 37.404,202.667 37.083 C 202.667 36.762,202.592 36.500,202.500 36.500 C 202.408 36.500,202.333 36.162,202.333 35.750 C 202.333 35.337,202.258 35.000,202.167 35.000 C 202.075 35.000,202.000 34.625,202.000 34.167 C 202.000 33.708,201.925 33.333,201.833 33.333 C 201.742 33.333,201.667 33.071,201.667 32.750 C 201.667 32.429,201.592 32.167,201.500 32.167 C 201.408 32.167,201.333 31.829,201.333 31.417 C 201.333 31.004,201.267 30.667,201.186 30.667 C 201.106 30.667,200.986 30.029,200.921 29.250 C 200.857 28.471,200.735 27.833,200.652 27.833 C 200.568 27.833,200.500 27.496,200.500 27.083 C 200.500 26.671,200.425 26.333,200.333 26.333 C 200.242 26.333,200.167 25.996,200.167 25.583 C 200.167 25.171,200.092 24.833,200.000 24.833 C 199.908 24.833,199.833 24.533,199.833 24.167 C 199.833 23.800,199.758 23.500,199.667 23.500 C 199.575 23.500,199.500 23.162,199.500 22.750 L 199.500 22.000 196.323 22.000 L 193.146 22.000 193.263 23.208 M255.500 36.750 L 255.500 51.500 258.417 51.500 L 261.333 51.500 261.333 36.750 L 261.333 22.000 258.417 22.000 L 255.500 22.000 255.500 36.750 M267.000 36.750 L 267.000 51.500 269.917 51.500 L 272.833 51.500 272.833 36.750 L 272.833 22.000 269.917 22.000 L 267.000 22.000 267.000 36.750 M306.535 22.923 C 306.417 23.057,306.173 23.167,305.993 23.167 C 305.814 23.167,305.667 23.242,305.667 23.333 C 305.667 23.425,305.571 23.500,305.453 23.500 C 305.336 23.500,305.132 23.650,305.000 23.833 C 304.868 24.017,304.626 24.167,304.463 24.167 C 304.300 24.167,304.167 24.242,304.167 24.333 C 304.167 24.425,304.022 24.500,303.845 24.500 C 303.667 24.500,303.477 24.642,303.422 24.816 C 303.359 25.014,303.100 25.173,302.726 25.244 C 301.542 25.466,301.333 25.890,301.333 28.076 L 301.333 30.000 300.000 30.000 L 298.667 30.000 298.667 32.333 L 298.667 34.667 300.000 34.667 L 301.333 34.667 301.333 41.250 C 301.333 45.528,301.392 47.833,301.500 47.833 C 301.592 47.833,301.667 48.171,301.667 48.583 C 301.667 48.996,301.742 49.333,301.833 49.333 C 301.925 49.333,302.000 49.483,302.000 49.667 C 302.000 49.850,302.075 50.000,302.167 50.000 C 302.258 50.000,302.333 50.152,302.333 50.337 C 302.333 50.578,302.475 50.703,302.828 50.774 C 303.107 50.830,303.367 51.010,303.423 51.187 C 303.478 51.359,303.667 51.500,303.845 51.500 C 304.022 51.500,304.167 51.575,304.167 51.667 C 304.167 51.758,304.429 51.833,304.750 51.833 C 305.071 51.833,305.333 51.908,305.333 52.000 C 305.333 52.101,306.056 52.167,307.167 52.167 C 308.278 52.167,309.000 52.101,309.000 52.000 C 309.000 51.908,309.375 51.833,309.833 51.833 C 310.292 51.833,310.667 51.758,310.667 51.667 C 310.667 51.575,310.854 51.500,311.083 51.500 C 311.477 51.500,311.500 51.450,311.500 50.583 C 311.500 50.079,311.425 49.667,311.333 49.667 C 311.236 49.667,311.167 49.112,311.167 48.337 L 311.167 47.006 310.375 47.108 C 309.940 47.164,309.512 47.275,309.425 47.355 C 309.206 47.556,308.167 47.538,308.167 47.333 C 308.167 47.242,308.017 47.167,307.833 47.167 C 307.648 47.167,307.500 47.056,307.500 46.917 C 307.500 46.779,307.425 46.667,307.333 46.667 C 307.225 46.667,307.167 44.556,307.167 40.667 L 307.167 34.667 309.167 34.667 L 311.167 34.667 311.167 32.333 L 311.167 30.000 309.167 30.000 L 307.167 30.000 307.167 26.333 C 307.167 22.575,307.110 22.271,306.535 22.923 M122.333 29.500 C 122.333 29.592,122.071 29.667,121.750 29.667 C 121.429 29.667,121.167 29.742,121.167 29.833 C 121.167 29.925,121.017 30.000,120.833 30.000 C 120.650 30.000,120.500 30.075,120.500 30.167 C 120.500 30.258,120.367 30.333,120.203 30.333 C 120.040 30.333,119.799 30.483,119.667 30.667 C 119.535 30.850,119.333 31.000,119.219 31.000 C 119.105 31.000,118.749 31.262,118.428 31.583 C 117.666 32.345,117.667 32.346,117.667 31.083 L 117.667 30.000 114.750 30.000 L 111.833 30.000 111.833 40.750 L 111.833 51.500 114.750 51.500 L 117.667 51.500 117.667 44.750 C 117.667 40.361,117.725 38.000,117.833 38.000 C 117.925 38.000,118.000 37.737,118.000 37.417 C 118.000 37.096,118.075 36.833,118.167 36.833 C 118.258 36.833,118.333 36.643,118.333 36.410 C 118.333 35.933,119.474 34.667,119.904 34.667 C 120.048 34.667,120.167 34.592,120.167 34.500 C 120.167 34.408,120.317 34.333,120.500 34.333 C 120.683 34.333,120.833 34.258,120.833 34.167 C 120.833 34.075,121.246 34.000,121.750 34.000 C 122.254 34.000,122.667 34.075,122.667 34.167 C 122.667 34.258,122.812 34.333,122.989 34.333 C 123.166 34.333,123.357 34.479,123.414 34.658 C 123.471 34.837,123.663 35.029,123.842 35.086 C 124.091 35.165,124.167 35.341,124.167 35.845 C 124.167 36.205,124.242 36.500,124.333 36.500 C 124.442 36.500,124.500 39.111,124.500 44.000 L 124.500 51.500 127.417 51.500 L 130.333 51.500 130.333 44.917 C 130.333 40.639,130.392 38.333,130.500 38.333 C 130.592 38.333,130.667 38.042,130.667 37.686 C 130.667 37.330,130.779 36.823,130.916 36.561 C 131.053 36.298,131.165 35.969,131.166 35.828 C 131.166 35.688,131.326 35.463,131.520 35.328 C 131.715 35.194,131.972 34.990,132.092 34.875 C 132.212 34.760,132.427 34.667,132.571 34.667 C 132.715 34.667,132.833 34.592,132.833 34.500 C 132.833 34.408,132.946 34.333,133.083 34.333 C 133.221 34.333,133.333 34.258,133.333 34.167 C 133.333 34.074,133.778 34.000,134.333 34.000 C 134.889 34.000,135.333 34.074,135.333 34.167 C 135.333 34.258,135.412 34.333,135.508 34.333 C 135.734 34.333,136.500 35.100,136.500 35.326 C 136.500 35.422,136.575 35.500,136.667 35.500 C 136.758 35.500,136.833 35.800,136.833 36.167 C 136.833 36.533,136.908 36.833,137.000 36.833 C 137.109 36.833,137.167 39.389,137.167 44.167 L 137.167 51.500 140.083 51.500 L 143.000 51.500 143.000 43.250 C 143.000 37.861,142.942 35.000,142.833 35.000 C 142.742 35.000,142.667 34.625,142.667 34.167 C 142.667 33.708,142.592 33.333,142.500 33.333 C 142.408 33.333,142.333 33.221,142.333 33.083 C 142.333 32.946,142.258 32.833,142.167 32.833 C 142.075 32.833,142.000 32.700,142.000 32.537 C 142.000 32.374,141.850 32.132,141.667 32.000 C 141.483 31.868,141.333 31.631,141.333 31.474 C 141.333 31.318,141.165 31.136,140.958 31.071 C 140.752 31.006,140.462 30.813,140.314 30.643 C 140.166 30.473,139.922 30.333,139.772 30.333 C 139.622 30.333,139.500 30.258,139.500 30.167 C 139.500 30.075,139.387 30.000,139.250 30.000 C 139.112 30.000,139.000 29.925,139.000 29.833 C 139.000 29.742,138.700 29.667,138.333 29.667 C 137.967 29.667,137.667 29.592,137.667 29.500 C 137.667 29.400,137.000 29.333,136.000 29.333 C 135.000 29.333,134.333 29.400,134.333 29.500 C 134.333 29.592,134.071 29.667,133.750 29.667 C 133.429 29.667,133.167 29.742,133.167 29.833 C 133.167 29.925,133.017 30.000,132.833 30.000 C 132.650 30.000,132.500 30.075,132.500 30.167 C 132.500 30.258,132.367 30.333,132.203 30.333 C 132.040 30.333,131.799 30.483,131.667 30.667 C 131.535 30.850,131.332 31.000,131.218 31.000 C 131.103 31.000,130.668 31.341,130.251 31.758 C 129.428 32.581,129.176 32.557,128.944 31.634 C 128.883 31.389,128.683 31.141,128.500 31.083 C 128.316 31.025,128.167 30.908,128.167 30.822 C 128.167 30.737,128.033 30.667,127.870 30.667 C 127.707 30.667,127.465 30.517,127.333 30.333 C 127.201 30.150,126.997 30.000,126.880 30.000 C 126.763 30.000,126.667 29.925,126.667 29.833 C 126.667 29.742,126.367 29.667,126.000 29.667 C 125.633 29.667,125.333 29.592,125.333 29.500 C 125.333 29.401,124.722 29.333,123.833 29.333 C 122.944 29.333,122.333 29.401,122.333 29.500 M178.667 29.500 C 178.667 29.592,178.367 29.667,178.000 29.667 C 177.633 29.667,177.333 29.742,177.333 29.833 C 177.333 29.925,177.146 30.000,176.917 30.000 C 176.688 30.000,176.500 30.075,176.500 30.167 C 176.500 30.258,176.275 30.333,176.000 30.333 C 175.725 30.333,175.500 30.408,175.500 30.500 C 175.500 30.592,175.387 30.667,175.250 30.667 C 175.112 30.667,175.000 30.740,175.000 30.830 C 175.000 30.920,174.794 31.045,174.542 31.108 C 174.290 31.171,173.884 31.435,173.641 31.695 C 173.398 31.954,173.149 32.167,173.088 32.167 C 172.879 32.167,172.500 32.642,172.500 32.905 C 172.500 33.049,172.436 33.167,172.359 33.167 C 172.023 33.167,171.519 33.813,171.412 34.382 C 171.348 34.722,171.230 35.000,171.148 35.000 C 171.067 35.000,171.000 35.112,171.000 35.250 C 171.000 35.387,170.925 35.500,170.833 35.500 C 170.742 35.500,170.667 35.650,170.667 35.833 C 170.667 36.017,170.592 36.167,170.500 36.167 C 170.408 36.167,170.333 36.392,170.333 36.667 C 170.333 36.942,170.258 37.167,170.167 37.167 C 170.075 37.167,170.000 37.429,170.000 37.750 C 170.000 38.071,169.925 38.333,169.833 38.333 C 169.730 38.333,169.667 39.194,169.667 40.583 C 169.667 41.972,169.730 42.833,169.833 42.833 C 169.925 42.833,170.000 43.208,170.000 43.667 C 170.000 44.125,170.075 44.500,170.167 44.500 C 170.258 44.500,170.333 44.762,170.333 45.083 C 170.333 45.404,170.408 45.667,170.500 45.667 C 170.592 45.667,170.667 45.817,170.667 46.000 C 170.667 46.183,170.742 46.333,170.833 46.333 C 170.925 46.333,171.000 46.446,171.000 46.583 C 171.000 46.721,171.075 46.833,171.167 46.833 C 171.258 46.833,171.333 46.978,171.333 47.155 C 171.333 47.332,171.446 47.589,171.583 47.726 C 171.721 47.864,171.833 48.077,171.833 48.201 C 171.833 48.325,171.994 48.537,172.190 48.672 C 172.726 49.041,173.333 49.661,173.333 49.841 C 173.333 49.928,173.456 50.000,173.605 50.000 C 173.755 50.000,173.999 50.140,174.147 50.311 C 174.296 50.482,174.661 50.675,174.958 50.741 C 175.256 50.806,175.500 50.929,175.500 51.013 C 175.500 51.098,175.725 51.167,176.000 51.167 C 176.275 51.167,176.500 51.242,176.500 51.333 C 176.500 51.425,176.688 51.500,176.917 51.500 C 177.146 51.500,177.333 51.575,177.333 51.667 C 177.333 51.758,177.633 51.833,178.000 51.833 C 178.367 51.833,178.667 51.908,178.667 52.000 C 178.667 52.103,179.500 52.167,180.833 52.167 C 182.167 52.167,183.000 52.103,183.000 52.000 C 183.000 51.908,183.262 51.833,183.583 51.833 C 183.904 51.833,184.167 51.758,184.167 51.667 C 184.167 51.575,184.354 51.500,184.583 51.500 C 184.813 51.500,185.000 51.425,185.000 51.333 C 185.000 51.242,185.193 51.167,185.429 51.167 C 185.664 51.167,185.970 51.054,186.107 50.917 C 186.245 50.779,186.502 50.667,186.679 50.667 C 186.855 50.667,187.000 50.592,187.000 50.500 C 187.000 50.408,187.077 50.333,187.170 50.333 C 187.423 50.333,189.667 48.052,189.667 47.795 C 189.667 47.673,189.817 47.465,190.000 47.333 C 190.183 47.201,190.333 46.997,190.333 46.880 C 190.333 46.763,190.408 46.667,190.500 46.667 C 190.592 46.667,190.667 46.517,190.667 46.333 C 190.667 46.150,190.737 46.000,190.823 46.000 C 190.909 46.000,191.030 45.663,191.092 45.250 C 191.154 44.837,191.271 44.500,191.352 44.500 C 191.434 44.500,191.500 44.125,191.500 43.667 C 191.500 43.208,191.575 42.833,191.667 42.833 C 191.769 42.833,191.833 42.028,191.833 40.750 C 191.833 39.472,191.769 38.667,191.667 38.667 C 191.575 38.667,191.500 38.329,191.500 37.917 C 191.500 37.504,191.435 37.167,191.355 37.167 C 191.275 37.167,191.160 36.792,191.099 36.333 C 191.038 35.875,190.916 35.500,190.828 35.500 C 190.739 35.500,190.667 35.387,190.667 35.250 C 190.667 35.112,190.592 35.000,190.500 35.000 C 190.408 35.000,190.333 34.867,190.333 34.703 C 190.333 34.540,190.183 34.299,190.000 34.167 C 189.817 34.035,189.667 33.798,189.667 33.641 C 189.667 33.484,189.517 33.308,189.333 33.250 C 189.150 33.192,189.000 33.079,189.000 33.000 C 189.000 32.751,187.414 31.215,187.031 31.093 C 186.831 31.030,186.667 30.908,186.667 30.822 C 186.667 30.737,186.517 30.667,186.333 30.667 C 186.150 30.667,186.000 30.592,186.000 30.500 C 186.000 30.408,185.775 30.333,185.500 30.333 C 185.225 30.333,185.000 30.258,185.000 30.167 C 185.000 30.075,184.813 30.000,184.583 30.000 C 184.354 30.000,184.167 29.925,184.167 29.833 C 184.167 29.742,183.909 29.667,183.593 29.667 C 183.278 29.667,182.973 29.592,182.917 29.500 C 182.857 29.403,181.943 29.333,180.740 29.333 C 179.469 29.333,178.667 29.398,178.667 29.500 M239.000 29.500 C 239.000 29.592,238.625 29.667,238.167 29.667 C 237.708 29.667,237.333 29.742,237.333 29.833 C 237.333 29.925,237.146 30.000,236.917 30.000 C 236.688 30.000,236.500 30.075,236.500 30.167 C 236.500 30.258,236.350 30.333,236.167 30.333 C 235.983 30.333,235.833 30.408,235.833 30.500 C 235.833 30.592,235.755 30.667,235.660 30.667 C 235.208 30.667,233.388 32.538,233.257 33.136 C 233.193 33.428,233.071 33.667,232.987 33.667 C 232.902 33.667,232.833 33.817,232.833 34.000 C 232.833 34.183,232.758 34.333,232.667 34.333 C 232.575 34.333,232.500 34.521,232.500 34.750 C 232.500 34.979,232.425 35.167,232.333 35.167 C 232.242 35.167,232.167 35.392,232.167 35.667 C 232.167 36.127,232.213 36.167,232.750 36.167 C 233.071 36.167,233.333 36.242,233.333 36.333 C 233.333 36.430,233.861 36.500,234.583 36.500 C 235.306 36.500,235.833 36.570,235.833 36.667 C 235.833 36.923,237.160 36.864,237.429 36.595 C 237.560 36.464,237.667 36.181,237.667 35.965 C 237.667 35.750,237.827 35.463,238.023 35.328 C 238.219 35.194,238.553 34.915,238.765 34.708 C 238.978 34.502,239.230 34.333,239.326 34.333 C 239.422 34.333,239.500 34.258,239.500 34.167 C 239.500 34.070,240.028 34.000,240.750 34.000 C 241.472 34.000,242.000 34.070,242.000 34.167 C 242.000 34.258,242.225 34.333,242.500 34.333 C 242.775 34.333,243.000 34.408,243.000 34.500 C 243.000 34.592,243.112 34.667,243.250 34.667 C 243.387 34.667,243.500 34.779,243.500 34.917 C 243.500 35.054,243.575 35.167,243.667 35.167 C 243.758 35.167,243.833 35.317,243.833 35.500 C 243.833 35.683,243.908 35.833,244.000 35.833 C 244.257 35.833,244.197 37.160,243.929 37.429 C 243.798 37.560,243.535 37.667,243.345 37.667 C 243.155 37.667,243.000 37.742,243.000 37.833 C 243.000 37.925,242.700 38.000,242.333 38.000 C 241.967 38.000,241.667 38.075,241.667 38.167 C 241.667 38.258,241.404 38.333,241.083 38.333 C 240.762 38.333,240.500 38.408,240.500 38.500 C 240.500 38.592,240.162 38.667,239.750 38.667 C 239.338 38.667,239.000 38.733,239.000 38.814 C 239.000 38.895,238.438 39.014,237.750 39.078 C 237.063 39.142,236.500 39.264,236.500 39.348 C 236.500 39.431,236.275 39.500,236.000 39.500 C 235.725 39.500,235.500 39.575,235.500 39.667 C 235.500 39.758,235.387 39.833,235.250 39.833 C 235.112 39.833,235.000 39.908,235.000 40.000 C 235.000 40.092,234.850 40.167,234.667 40.167 C 234.483 40.167,234.333 40.242,234.333 40.333 C 234.333 40.425,234.218 40.500,234.078 40.500 C 233.774 40.500,232.833 41.422,232.833 41.719 C 232.833 41.833,232.683 42.035,232.500 42.167 C 232.317 42.299,232.167 42.540,232.167 42.703 C 232.167 42.867,232.092 43.000,232.000 43.000 C 231.908 43.000,231.833 43.188,231.833 43.417 C 231.833 43.646,231.758 43.833,231.667 43.833 C 231.567 43.833,231.500 44.500,231.500 45.500 C 231.500 46.500,231.567 47.167,231.667 47.167 C 231.758 47.167,231.833 47.467,231.833 47.833 C 231.833 48.200,231.908 48.500,232.000 48.500 C 232.092 48.500,232.167 48.596,232.167 48.713 C 232.167 48.830,232.317 49.035,232.500 49.167 C 232.683 49.299,232.833 49.540,232.833 49.703 C 232.833 49.867,232.903 50.000,232.989 50.000 C 233.074 50.000,233.192 50.150,233.250 50.333 C 233.308 50.517,233.495 50.667,233.666 50.667 C 233.837 50.667,234.089 50.779,234.226 50.917 C 234.364 51.054,234.594 51.167,234.738 51.167 C 234.882 51.167,235.000 51.242,235.000 51.333 C 235.000 51.425,235.112 51.500,235.250 51.500 C 235.387 51.500,235.500 51.575,235.500 51.667 C 235.500 51.758,235.800 51.833,236.167 51.833 C 236.533 51.833,236.833 51.908,236.833 52.000 C 236.833 52.101,237.556 52.167,238.667 52.167 C 239.778 52.167,240.500 52.101,240.500 52.000 C 240.500 51.908,240.688 51.833,240.917 51.833 C 241.146 51.833,241.333 51.758,241.333 51.667 C 241.333 51.575,241.558 51.500,241.833 51.500 C 242.108 51.500,242.333 51.425,242.333 51.333 C 242.333 51.242,242.475 51.167,242.649 51.167 C 242.822 51.167,243.008 51.054,243.060 50.917 C 243.113 50.779,243.274 50.667,243.417 50.667 C 243.693 50.667,244.663 49.775,244.955 49.254 C 245.094 49.004,245.151 49.148,245.251 50.004 C 245.318 50.587,245.472 51.162,245.592 51.282 C 245.934 51.625,251.500 51.595,251.500 51.250 C 251.500 51.112,251.432 51.000,251.348 51.000 C 251.264 51.000,251.145 50.700,251.083 50.333 C 251.021 49.967,250.902 49.667,250.819 49.667 C 250.735 49.667,250.667 49.479,250.667 49.250 C 250.667 49.021,250.592 48.833,250.500 48.833 C 250.408 48.833,250.333 48.533,250.333 48.167 C 250.333 47.800,250.258 47.500,250.167 47.500 C 250.058 47.500,250.000 45.250,250.000 41.083 C 250.000 36.917,249.942 34.667,249.833 34.667 C 249.742 34.667,249.667 34.367,249.667 34.000 C 249.667 33.633,249.592 33.333,249.500 33.333 C 249.408 33.333,249.333 33.146,249.333 32.917 C 249.333 32.688,249.260 32.500,249.170 32.500 C 249.080 32.500,248.955 32.294,248.893 32.042 C 248.764 31.517,248.243 31.000,247.845 31.000 C 247.696 31.000,247.465 30.850,247.333 30.667 C 247.201 30.483,246.997 30.333,246.880 30.333 C 246.763 30.333,246.667 30.258,246.667 30.167 C 246.667 30.075,246.442 30.000,246.167 30.000 C 245.892 30.000,245.667 29.925,245.667 29.833 C 245.667 29.742,245.254 29.667,244.750 29.667 C 244.246 29.667,243.833 29.592,243.833 29.500 C 243.833 29.397,242.917 29.333,241.417 29.333 C 239.917 29.333,239.000 29.397,239.000 29.500 M284.833 29.500 C 284.833 29.592,284.533 29.667,284.167 29.667 C 283.800 29.667,283.500 29.742,283.500 29.833 C 283.500 29.925,283.313 30.000,283.083 30.000 C 282.854 30.000,282.667 30.075,282.667 30.167 C 282.667 30.258,282.517 30.333,282.333 30.333 C 282.150 30.333,282.000 30.408,282.000 30.500 C 282.000 30.592,281.858 30.667,281.684 30.667 C 281.511 30.667,281.326 30.779,281.273 30.917 C 281.220 31.054,281.056 31.167,280.909 31.167 C 280.593 31.167,279.000 32.799,279.000 33.123 C 279.000 33.198,278.850 33.368,278.667 33.500 C 278.483 33.632,278.333 33.874,278.333 34.037 C 278.333 34.200,278.258 34.333,278.167 34.333 C 278.075 34.333,278.000 34.483,278.000 34.667 C 278.000 34.850,277.925 35.000,277.833 35.000 C 277.742 35.000,277.667 35.181,277.667 35.403 C 277.667 35.624,277.594 35.831,277.505 35.861 C 277.415 35.892,277.292 36.460,277.231 37.125 C 277.169 37.790,277.055 38.333,276.976 38.333 C 276.898 38.333,276.833 39.496,276.833 40.917 C 276.833 42.337,276.898 43.500,276.976 43.500 C 277.055 43.500,277.169 44.044,277.231 44.708 C 277.292 45.373,277.415 45.942,277.505 45.972 C 277.594 46.003,277.667 46.172,277.667 46.347 C 277.667 46.523,277.742 46.667,277.833 46.667 C 277.925 46.667,278.000 46.779,278.000 46.917 C 278.000 47.054,278.075 47.167,278.167 47.167 C 278.258 47.167,278.333 47.317,278.333 47.500 C 278.333 47.683,278.408 47.833,278.500 47.833 C 278.592 47.833,278.667 47.944,278.667 48.080 C 278.667 48.399,280.849 50.596,281.312 50.743 C 281.507 50.805,281.667 50.926,281.667 51.011 C 281.667 51.097,281.892 51.167,282.167 51.167 C 282.442 51.167,282.667 51.242,282.667 51.333 C 282.667 51.425,282.854 51.500,283.083 51.500 C 283.313 51.500,283.500 51.575,283.500 51.667 C 283.500 51.758,283.800 51.833,284.167 51.833 C 284.533 51.833,284.833 51.908,284.833 52.000 C 284.833 52.103,285.694 52.167,287.083 52.167 C 288.472 52.167,289.333 52.103,289.333 52.000 C 289.333 51.908,289.633 51.833,290.000 51.833 C 290.367 51.833,290.667 51.758,290.667 51.667 C 290.667 51.575,290.854 51.500,291.083 51.500 C 291.313 51.500,291.500 51.425,291.500 51.333 C 291.500 51.242,291.650 51.167,291.833 51.167 C 292.017 51.167,292.167 51.092,292.167 51.000 C 292.167 50.908,292.319 50.833,292.505 50.833 C 292.691 50.833,292.887 50.721,292.940 50.583 C 292.992 50.446,293.143 50.333,293.273 50.333 C 293.522 50.333,294.667 49.275,294.667 49.046 C 294.667 48.973,294.854 48.711,295.083 48.464 C 295.313 48.217,295.500 47.899,295.500 47.757 C 295.500 47.616,295.575 47.500,295.667 47.500 C 295.758 47.500,295.833 47.350,295.833 47.167 C 295.833 46.983,295.908 46.833,296.000 46.833 C 296.092 46.833,296.167 46.646,296.167 46.417 C 296.167 46.188,296.242 46.000,296.333 46.000 C 296.425 46.000,296.500 45.861,296.500 45.690 C 296.500 45.351,295.438 45.167,293.476 45.167 C 292.936 45.167,292.500 45.092,292.500 45.000 C 292.500 44.908,292.120 44.833,291.655 44.833 C 290.838 44.833,290.333 45.083,290.333 45.488 C 290.333 45.586,290.258 45.667,290.167 45.667 C 290.075 45.667,290.000 45.783,290.000 45.924 C 290.000 46.316,289.238 46.994,288.671 47.107 C 288.394 47.163,288.167 47.274,288.167 47.354 C 288.167 47.434,287.679 47.500,287.083 47.500 C 286.472 47.500,286.000 47.427,286.000 47.333 C 286.000 47.242,285.773 47.167,285.495 47.167 C 285.199 47.167,284.950 47.063,284.894 46.917 C 284.841 46.779,284.688 46.667,284.554 46.667 C 284.258 46.667,283.833 46.267,283.833 45.990 C 283.833 45.879,283.677 45.653,283.485 45.487 C 283.285 45.313,283.099 44.899,283.047 44.509 C 282.997 44.138,282.891 43.833,282.811 43.833 C 282.732 43.833,282.667 43.571,282.667 43.250 L 282.667 42.667 289.750 42.667 L 296.833 42.667 296.833 40.833 C 296.833 39.722,296.768 39.000,296.667 39.000 C 296.575 39.000,296.500 38.587,296.500 38.083 C 296.500 37.579,296.425 37.167,296.333 37.167 C 296.242 37.167,296.167 36.942,296.167 36.667 C 296.167 36.392,296.092 36.167,296.000 36.167 C 295.908 36.167,295.833 35.942,295.833 35.667 C 295.833 35.392,295.758 35.167,295.667 35.167 C 295.575 35.167,295.500 35.054,295.500 34.917 C 295.500 34.779,295.433 34.667,295.352 34.667 C 295.270 34.667,295.154 34.402,295.094 34.080 C 295.033 33.757,294.837 33.401,294.658 33.289 C 294.480 33.178,294.333 32.990,294.333 32.872 C 294.333 32.579,292.963 31.230,292.523 31.091 C 292.327 31.028,292.167 30.908,292.167 30.822 C 292.167 30.737,292.017 30.667,291.833 30.667 C 291.650 30.667,291.500 30.592,291.500 30.500 C 291.500 30.408,291.387 30.333,291.250 30.333 C 291.112 30.333,291.000 30.258,291.000 30.167 C 291.000 30.075,290.775 30.000,290.500 30.000 C 290.225 30.000,290.000 29.925,290.000 29.833 C 290.000 29.742,289.737 29.667,289.417 29.667 C 289.096 29.667,288.833 29.592,288.833 29.500 C 288.833 29.398,288.056 29.333,286.833 29.333 C 285.611 29.333,284.833 29.398,284.833 29.500 M148.167 40.750 L 148.167 51.500 151.083 51.500 L 154.000 51.500 154.000 40.750 L 154.000 30.000 151.083 30.000 L 148.167 30.000 148.167 40.750 M181.667 34.167 C 181.667 34.258,181.875 34.333,182.130 34.333 C 182.402 34.333,182.692 34.471,182.833 34.667 C 182.965 34.850,183.162 35.000,183.269 35.000 C 183.569 35.000,184.500 35.933,184.500 36.234 C 184.500 36.380,184.575 36.500,184.667 36.500 C 184.758 36.500,184.833 36.606,184.833 36.736 C 184.833 36.866,184.910 36.998,185.003 37.029 C 185.096 37.060,185.219 37.479,185.276 37.959 C 185.333 38.440,185.444 38.833,185.523 38.833 C 185.602 38.833,185.667 39.696,185.667 40.750 C 185.667 41.804,185.602 42.667,185.523 42.667 C 185.444 42.667,185.333 43.060,185.276 43.541 C 185.219 44.021,185.096 44.440,185.003 44.471 C 184.910 44.502,184.833 44.672,184.833 44.847 C 184.833 45.023,184.758 45.167,184.667 45.167 C 184.575 45.167,184.500 45.244,184.500 45.339 C 184.500 45.521,183.416 46.667,183.244 46.667 C 183.188 46.667,183.030 46.779,182.893 46.917 C 182.755 47.054,182.423 47.167,182.155 47.167 C 181.886 47.167,181.667 47.242,181.667 47.333 C 181.667 47.427,181.194 47.500,180.583 47.500 C 179.972 47.500,179.500 47.427,179.500 47.333 C 179.500 47.242,179.318 47.167,179.095 47.167 C 178.873 47.167,178.578 47.054,178.440 46.917 C 178.303 46.779,178.103 46.667,177.995 46.667 C 177.749 46.667,176.833 45.697,176.833 45.436 C 176.833 45.328,176.683 45.132,176.500 45.000 C 176.304 44.859,176.167 44.569,176.167 44.297 C 176.167 44.042,176.092 43.833,176.000 43.833 C 175.908 43.833,175.833 43.571,175.833 43.250 C 175.833 42.929,175.758 42.667,175.667 42.667 C 175.565 42.667,175.500 41.917,175.500 40.750 C 175.500 39.583,175.565 38.833,175.667 38.833 C 175.758 38.833,175.833 38.571,175.833 38.250 C 175.833 37.929,175.908 37.667,176.000 37.667 C 176.092 37.667,176.167 37.517,176.167 37.333 C 176.167 37.150,176.242 37.000,176.333 37.000 C 176.425 37.000,176.500 36.887,176.500 36.750 C 176.500 36.612,176.575 36.500,176.667 36.500 C 176.758 36.500,176.833 36.353,176.833 36.174 C 176.833 35.771,177.580 35.000,177.971 35.000 C 178.130 35.000,178.368 34.850,178.500 34.667 C 178.632 34.483,178.911 34.333,179.120 34.333 C 179.329 34.333,179.500 34.258,179.500 34.167 C 179.500 34.073,179.972 34.000,180.583 34.000 C 181.194 34.000,181.667 34.073,181.667 34.167 M287.833 34.167 C 287.833 34.258,287.983 34.333,288.167 34.333 C 288.350 34.333,288.500 34.408,288.500 34.500 C 288.500 34.592,288.610 34.667,288.744 34.667 C 289.070 34.667,290.000 35.588,290.000 35.911 C 290.000 36.052,290.075 36.167,290.167 36.167 C 290.258 36.167,290.333 36.317,290.333 36.500 C 290.333 36.683,290.408 36.833,290.500 36.833 C 290.592 36.833,290.667 37.021,290.667 37.250 C 290.667 37.479,290.742 37.667,290.833 37.667 C 290.925 37.667,291.000 37.967,291.000 38.333 L 291.000 39.000 286.833 39.000 C 282.778 39.000,282.667 38.991,282.667 38.667 C 282.667 38.483,282.731 38.333,282.810 38.333 C 282.889 38.333,282.995 37.879,283.045 37.324 C 283.112 36.585,283.230 36.234,283.485 36.013 C 283.677 35.847,283.833 35.594,283.833 35.450 C 283.833 35.307,283.983 35.142,284.167 35.083 C 284.350 35.025,284.500 34.908,284.500 34.822 C 284.500 34.737,284.612 34.667,284.750 34.667 C 284.887 34.667,285.000 34.592,285.000 34.500 C 285.000 34.408,285.225 34.333,285.500 34.333 C 285.775 34.333,286.000 34.258,286.000 34.167 C 286.000 34.075,286.412 34.000,286.917 34.000 C 287.421 34.000,287.833 34.075,287.833 34.167 M244.167 43.250 C 244.167 44.194,244.099 44.833,244.000 44.833 C 243.908 44.833,243.833 44.946,243.833 45.083 C 243.833 45.221,243.758 45.333,243.667 45.333 C 243.575 45.333,243.500 45.475,243.500 45.649 C 243.500 46.196,242.612 46.978,241.855 47.099 C 241.476 47.160,241.167 47.275,241.167 47.355 C 241.167 47.435,240.717 47.500,240.167 47.500 C 239.611 47.500,239.167 47.426,239.167 47.333 C 239.167 47.242,239.062 47.167,238.934 47.167 C 238.606 47.167,237.667 46.253,237.667 45.933 C 237.667 45.787,237.592 45.667,237.500 45.667 C 237.408 45.667,237.333 45.404,237.333 45.083 C 237.333 44.762,237.408 44.500,237.500 44.500 C 237.592 44.500,237.667 44.384,237.667 44.242 C 237.667 43.909,238.409 43.167,238.742 43.167 C 238.884 43.167,239.000 43.099,239.000 43.017 C 239.000 42.935,239.525 42.814,240.167 42.750 C 240.808 42.686,241.333 42.565,241.333 42.483 C 241.333 42.401,241.708 42.333,242.167 42.333 C 242.625 42.333,243.000 42.258,243.000 42.167 C 243.000 42.075,243.188 42.000,243.417 42.000 C 243.646 42.000,243.833 41.925,243.833 41.833 C 243.833 41.742,243.908 41.667,244.000 41.667 C 244.099 41.667,244.167 42.306,244.167 43.250 " stroke="none" fill="#040404" fill-rule="evenodd"></path></g></svg>