<svg id="svg" version="1.1" width="400" height="400" viewBox="0 0 400 400" xmlns="http://www.w3.org/2000/svg" xmlns:xlink="http://www.w3.org/1999/xlink" ><g id="svgg"><path id="path0" d="M183.000 19.600 C 182.864 19.820,181.244 20.000,179.400 20.000 C 177.556 20.000,175.936 20.180,175.800 20.400 C 175.664 20.620,174.483 20.800,173.176 20.800 C 171.859 20.800,170.800 20.978,170.800 21.200 C 170.800 21.422,169.733 21.600,168.400 21.600 C 167.067 21.600,166.000 21.778,166.000 22.000 C 166.000 22.220,165.201 22.400,164.224 22.400 C 163.247 22.400,162.336 22.580,162.200 22.800 C 162.064 23.020,161.344 23.200,160.600 23.200 C 159.856 23.200,159.136 23.380,159.000 23.600 C 158.864 23.820,158.054 24.000,157.200 24.000 C 156.346 24.000,155.536 24.180,155.400 24.400 C 155.264 24.620,154.544 24.800,153.800 24.800 C 153.056 24.800,152.336 24.980,152.200 25.200 C 152.064 25.420,151.423 25.600,150.776 25.600 C 150.129 25.600,149.600 25.780,149.600 26.000 C 149.600 26.220,149.060 26.400,148.400 26.400 C 147.740 26.400,147.200 26.557,147.200 26.748 C 147.200 26.940,146.307 27.215,145.216 27.360 C 144.125 27.505,143.125 27.798,142.993 28.012 C 142.861 28.225,142.324 28.400,141.800 28.400 C 141.276 28.400,140.736 28.580,140.600 28.800 C 140.464 29.020,139.823 29.200,139.176 29.200 C 138.529 29.200,138.000 29.380,138.000 29.600 C 138.000 29.820,137.460 30.000,136.800 30.000 C 136.140 30.000,135.600 30.180,135.600 30.400 C 135.600 30.620,135.321 30.800,134.981 30.800 C 134.640 30.800,133.616 31.160,132.706 31.600 C 131.795 32.040,130.814 32.400,130.525 32.400 C 130.236 32.400,130.000 32.580,130.000 32.800 C 130.000 33.020,129.640 33.200,129.200 33.200 C 128.760 33.200,128.400 33.380,128.400 33.600 C 128.400 33.820,127.950 34.000,127.400 34.000 C 126.850 34.000,126.400 34.180,126.400 34.400 C 126.400 34.620,126.040 34.800,125.600 34.800 C 125.160 34.800,124.800 34.980,124.800 35.200 C 124.800 35.420,124.440 35.600,124.000 35.600 C 123.560 35.600,123.200 35.780,123.200 36.000 C 123.200 36.220,122.761 36.400,122.224 36.400 C 121.687 36.400,121.136 36.580,121.000 36.800 C 120.864 37.020,120.403 37.200,119.976 37.200 C 119.549 37.200,119.200 37.380,119.200 37.600 C 119.200 37.820,118.964 38.000,118.675 38.000 C 118.387 38.000,117.764 38.360,117.292 38.800 C 116.820 39.240,116.156 39.600,115.817 39.600 C 115.478 39.600,115.200 39.780,115.200 40.000 C 115.200 40.220,114.840 40.400,114.400 40.400 C 113.960 40.400,113.600 40.536,113.600 40.702 C 113.600 40.869,113.015 41.259,112.300 41.570 C 111.585 41.881,110.910 42.240,110.800 42.368 C 110.367 42.871,108.041 44.000,107.438 44.000 C 107.087 44.000,106.800 44.180,106.800 44.400 C 106.800 44.620,106.564 44.800,106.275 44.800 C 105.987 44.800,105.364 45.160,104.892 45.600 C 104.420 46.040,103.796 46.400,103.505 46.400 C 103.214 46.400,102.717 46.760,102.400 47.200 C 102.083 47.640,101.522 48.000,101.154 48.000 C 100.787 48.000,100.387 48.256,100.267 48.570 C 100.147 48.883,99.407 49.444,98.624 49.815 C 97.841 50.187,97.200 50.651,97.200 50.846 C 97.200 51.041,96.930 51.200,96.600 51.200 C 96.270 51.200,96.000 51.380,96.000 51.600 C 96.000 51.820,95.730 52.000,95.400 52.000 C 95.070 52.000,94.800 52.180,94.800 52.400 C 94.800 52.620,94.570 52.800,94.288 52.800 C 94.007 52.800,93.517 53.160,93.200 53.600 C 92.883 54.040,92.411 54.400,92.152 54.400 C 91.893 54.400,90.762 55.300,89.639 56.400 C 88.515 57.500,87.409 58.400,87.180 58.400 C 86.951 58.400,86.330 58.805,85.801 59.300 C 85.272 59.795,84.605 60.382,84.319 60.604 C 84.034 60.825,82.990 61.633,82.000 62.398 C 80.289 63.721,78.108 65.855,76.800 67.487 C 76.470 67.899,75.679 68.635,75.041 69.122 C 72.852 70.795,69.255 74.322,69.494 74.561 C 69.626 74.692,69.515 74.800,69.248 74.800 C 68.747 74.800,66.800 76.566,66.800 77.021 C 66.800 77.163,66.303 77.756,65.695 78.340 C 65.088 78.923,64.086 80.030,63.470 80.800 C 61.357 83.440,60.198 84.842,58.909 86.320 C 58.199 87.134,57.614 87.953,57.609 88.140 C 57.604 88.326,57.060 88.983,56.400 89.600 C 55.740 90.217,55.200 90.969,55.200 91.272 C 55.200 91.575,54.840 92.083,54.400 92.400 C 53.960 92.717,53.600 93.207,53.600 93.488 C 53.600 93.770,53.459 94.000,53.286 94.000 C 53.114 94.000,52.679 94.495,52.321 95.100 C 51.963 95.705,51.204 96.740,50.635 97.400 C 50.066 98.060,49.601 98.759,49.600 98.953 C 49.600 99.147,49.268 99.597,48.863 99.953 C 48.457 100.309,47.893 101.050,47.609 101.600 C 47.324 102.150,47.230 102.471,47.399 102.314 C 47.742 101.993,48.701 103.100,49.902 105.201 C 53.774 111.982,62.074 126.563,62.879 128.000 C 63.433 128.990,64.252 130.430,64.698 131.200 C 66.015 133.471,76.393 151.605,77.752 154.008 C 79.880 157.773,79.923 157.828,80.342 157.400 C 80.558 157.180,81.404 155.290,82.223 153.200 C 94.581 121.658,117.277 98.418,150.200 83.596 C 156.636 80.698,165.653 77.986,176.000 75.836 C 187.811 73.381,211.785 73.389,223.000 75.852 C 229.611 77.303,231.118 77.658,233.200 78.256 C 255.384 84.622,273.353 95.254,289.551 111.600 L 294.902 117.000 327.551 117.098 C 358.409 117.190,363.160 117.053,360.900 116.136 C 360.625 116.025,360.400 115.678,360.400 115.367 C 360.400 115.055,360.220 114.800,360.000 114.800 C 359.780 114.800,359.600 114.530,359.600 114.200 C 359.600 113.870,359.443 113.600,359.250 113.600 C 359.058 113.600,358.798 113.088,358.673 112.463 C 358.484 111.518,356.300 107.493,355.601 106.800 C 355.490 106.690,355.144 106.105,354.832 105.500 C 354.520 104.895,354.115 104.400,353.932 104.400 C 353.750 104.400,353.600 104.040,353.600 103.600 C 353.600 103.160,353.442 102.800,353.249 102.800 C 353.055 102.800,352.673 102.260,352.400 101.600 C 352.127 100.940,351.745 100.400,351.551 100.400 C 351.358 100.400,351.200 100.164,351.200 99.875 C 351.200 99.587,350.840 98.964,350.400 98.492 C 349.960 98.020,349.600 97.538,349.600 97.421 C 349.600 97.208,348.630 95.964,347.700 94.984 C 347.425 94.694,347.200 94.304,347.200 94.117 C 347.200 93.930,346.840 93.517,346.400 93.200 C 345.960 92.883,345.600 92.420,345.600 92.171 C 345.600 91.922,345.060 91.154,344.400 90.463 C 343.740 89.772,343.200 89.071,343.200 88.904 C 343.199 88.603,341.931 86.958,340.482 85.379 C 340.068 84.928,339.554 84.246,339.340 83.864 C 337.787 81.090,318.437 61.917,315.732 60.473 C 315.189 60.183,314.015 59.238,313.124 58.373 C 312.233 57.508,311.337 56.800,311.134 56.800 C 310.930 56.800,310.344 56.395,309.832 55.900 C 308.307 54.426,307.216 53.600,306.795 53.600 C 306.578 53.600,306.400 53.420,306.400 53.200 C 306.400 52.980,306.170 52.800,305.888 52.800 C 305.607 52.800,305.117 52.440,304.800 52.000 C 304.483 51.560,303.993 51.200,303.712 51.200 C 303.430 51.200,303.200 51.020,303.200 50.800 C 303.200 50.580,303.012 50.400,302.783 50.400 C 302.554 50.400,301.980 50.040,301.508 49.600 C 301.036 49.160,300.413 48.800,300.125 48.800 C 299.836 48.800,299.600 48.620,299.600 48.400 C 299.600 48.180,299.364 48.000,299.075 48.000 C 298.787 48.000,298.164 47.640,297.692 47.200 C 297.220 46.760,296.638 46.400,296.400 46.400 C 296.162 46.400,295.580 46.040,295.108 45.600 C 294.636 45.160,294.013 44.800,293.725 44.800 C 293.436 44.800,293.200 44.647,293.200 44.460 C 293.200 44.273,292.390 43.787,291.400 43.378 C 290.410 42.970,289.600 42.493,289.600 42.318 C 289.600 42.143,289.240 42.000,288.800 42.000 C 288.360 42.000,288.000 41.820,288.000 41.600 C 288.000 41.380,287.655 41.200,287.233 41.200 C 286.812 41.200,286.407 41.065,286.333 40.900 C 286.166 40.524,284.036 39.225,283.100 38.929 C 282.715 38.807,282.400 38.548,282.400 38.353 C 282.400 38.159,282.040 38.000,281.600 38.000 C 281.160 38.000,280.800 37.820,280.800 37.600 C 280.800 37.380,280.339 37.200,279.776 37.200 C 279.196 37.200,278.860 37.027,279.000 36.800 C 279.140 36.574,278.812 36.400,278.247 36.400 C 277.697 36.400,277.136 36.220,277.000 36.000 C 276.864 35.780,276.418 35.600,276.010 35.600 C 275.601 35.600,275.207 35.465,275.133 35.300 C 274.913 34.805,269.946 32.400,269.144 32.400 C 268.735 32.400,268.400 32.220,268.400 32.000 C 268.400 31.780,267.961 31.600,267.424 31.600 C 266.887 31.600,266.336 31.420,266.200 31.200 C 266.064 30.980,265.603 30.800,265.176 30.800 C 264.749 30.800,264.400 30.620,264.400 30.400 C 264.400 30.180,263.875 30.000,263.233 30.000 C 262.592 30.000,262.007 29.865,261.933 29.699 C 261.732 29.245,256.735 27.631,254.642 27.344 C 253.629 27.205,252.800 26.936,252.800 26.746 C 252.800 26.556,252.260 26.400,251.600 26.400 C 250.940 26.400,250.400 26.220,250.400 26.000 C 250.400 25.780,249.871 25.600,249.224 25.600 C 248.577 25.600,247.936 25.420,247.800 25.200 C 247.664 24.980,246.753 24.800,245.776 24.800 C 244.799 24.800,244.000 24.620,244.000 24.400 C 244.000 24.180,243.381 24.000,242.624 24.000 C 241.867 24.000,241.136 23.820,241.000 23.600 C 240.864 23.380,240.133 23.200,239.376 23.200 C 238.619 23.200,238.000 23.020,238.000 22.800 C 238.000 22.580,237.010 22.400,235.800 22.400 C 234.590 22.400,233.600 22.220,233.600 22.000 C 233.600 21.780,232.621 21.600,231.424 21.600 C 230.227 21.600,229.136 21.420,229.000 21.200 C 228.864 20.980,227.593 20.800,226.176 20.800 C 224.725 20.800,223.600 20.625,223.600 20.400 C 223.600 20.161,222.067 20.000,219.800 20.000 C 217.533 20.000,216.000 19.839,216.000 19.600 C 216.000 19.340,210.275 19.200,199.624 19.200 C 189.137 19.200,183.158 19.344,183.000 19.600 M192.117 91.195 C 186.597 91.596,181.415 92.272,178.446 92.979 C 177.211 93.273,174.760 93.829,173.000 94.214 C 171.240 94.599,169.314 95.159,168.720 95.457 C 168.126 95.756,167.293 96.000,166.869 96.000 C 166.174 96.000,163.559 96.944,157.800 99.276 C 152.300 101.502,145.645 105.003,139.800 108.746 C 135.977 111.194,136.027 111.095,136.013 116.238 C 135.996 122.167,136.204 121.996,128.969 122.013 C 122.573 122.027,123.409 121.631,118.798 126.834 C 113.596 132.704,111.582 135.248,111.825 135.641 C 111.947 135.839,114.259 136.000,116.962 136.000 C 123.675 136.000,123.200 135.188,123.200 146.651 C 123.200 153.265,123.065 155.975,122.720 156.320 C 122.373 156.667,119.550 156.800,112.534 156.800 C 101.559 156.800,102.000 156.936,102.000 153.546 C 102.000 149.851,99.280 156.039,94.591 170.400 C 94.267 171.390,93.844 173.010,93.651 174.000 C 93.457 174.990,92.927 177.600,92.472 179.800 C 90.141 191.087,90.111 208.192,92.402 219.800 C 93.830 227.038,94.384 229.344,94.795 229.755 C 95.018 229.978,95.201 230.529,95.202 230.980 C 95.203 231.761,95.661 233.141,98.191 240.000 C 99.434 243.369,103.677 252.112,105.322 254.692 C 105.915 255.623,106.400 256.486,106.400 256.610 C 106.400 256.959,110.317 262.696,112.537 265.600 C 124.556 281.318,139.169 292.550,158.600 301.005 C 160.731 301.933,170.583 305.168,172.600 305.603 C 173.480 305.793,174.920 306.139,175.800 306.373 C 193.562 311.081,222.840 308.686,240.400 301.088 C 263.230 291.211,281.585 275.550,292.775 256.400 C 293.739 254.750,294.809 252.950,295.153 252.400 C 298.108 247.672,303.568 233.997,304.815 228.200 C 305.004 227.320,305.433 225.520,305.768 224.200 C 308.250 214.415,309.464 195.655,308.058 188.800 C 307.809 187.590,307.431 185.160,307.217 183.400 C 306.724 179.349,305.808 174.498,305.289 173.200 C 305.070 172.650,304.666 171.210,304.393 170.000 C 303.113 164.339,299.073 154.750,294.026 145.400 C 284.936 128.556,265.835 110.817,247.200 101.912 C 241.820 99.341,235.224 96.686,233.000 96.196 C 232.340 96.051,231.170 95.697,230.400 95.409 C 222.088 92.308,204.082 90.325,192.117 91.195 M105.697 122.063 C 105.156 122.604,105.026 125.907,105.515 126.676 C 105.895 127.274,110.279 127.481,110.833 126.927 C 111.059 126.701,111.189 125.455,111.122 124.158 L 111.000 121.800 108.597 121.683 C 107.072 121.609,106.012 121.748,105.697 122.063 M165.339 128.749 C 166.349 129.588,166.348 162.953,165.338 164.069 C 164.393 165.113,131.267 165.210,130.229 164.171 C 129.386 163.329,129.263 129.574,130.100 128.887 C 131.000 128.148,132.418 128.091,148.639 128.146 C 161.585 128.190,164.806 128.306,165.339 128.749 M271.209 128.800 C 271.962 129.992,271.704 172.022,270.938 172.869 C 270.316 173.555,269.235 173.600,253.187 173.600 C 233.354 173.600,235.040 174.016,234.927 169.097 C 234.886 167.348,234.757 165.665,234.639 165.358 C 234.459 164.888,229.747 164.800,204.613 164.800 C 175.333 164.800,174.786 164.786,174.000 164.000 C 173.226 163.226,173.200 162.667,173.200 146.819 C 173.200 128.624,173.211 128.540,175.555 128.284 C 180.487 127.746,270.850 128.234,271.209 128.800 M105.429 139.429 C 104.558 140.299,104.490 152.845,105.353 153.561 C 105.733 153.877,108.068 153.985,112.853 153.910 L 119.800 153.800 119.910 146.629 C 119.993 141.161,119.898 139.382,119.510 139.136 C 118.477 138.481,106.119 138.738,105.429 139.429 M165.269 172.662 C 165.878 173.213,166.000 173.949,166.000 177.058 L 166.000 180.791 218.415 180.896 C 264.494 180.987,270.875 181.073,271.208 181.600 C 271.753 182.461,271.731 268.609,271.186 269.626 C 270.779 270.387,269.567 270.400,200.600 270.400 C 131.633 270.400,130.421 270.387,130.014 269.626 C 129.139 267.991,129.477 234.494,130.374 234.014 C 130.896 233.735,148.008 233.600,182.956 233.600 L 234.765 233.600 234.883 226.300 C 234.947 222.285,234.859 218.685,234.686 218.300 C 234.389 217.639,231.521 217.600,182.614 217.600 C 136.096 217.600,130.794 217.536,130.229 216.971 C 129.211 215.954,129.280 173.026,130.300 172.432 C 131.630 171.657,164.396 171.873,165.269 172.662 " stroke="none" fill="#245cb3" fill-rule="evenodd"></path><path id="path1" d="M187.400 74.260 C 186.740 74.337,184.490 74.592,182.400 74.828 C 173.149 75.870,158.501 79.859,150.200 83.596 C 126.335 94.341,108.337 108.989,95.249 128.320 C 92.147 132.902,83.573 148.799,83.610 149.900 C 83.616 150.065,85.200 147.140,87.130 143.400 C 107.114 104.689,142.584 80.002,185.398 75.006 C 224.011 70.501,265.485 85.804,291.190 114.043 C 293.697 116.798,294.216 117.178,295.711 117.362 C 299.746 117.858,361.565 117.974,361.377 117.485 C 361.234 117.110,353.645 117.000,328.047 117.000 L 294.903 117.000 289.551 111.600 C 273.353 95.254,255.384 84.622,233.200 78.256 C 222.238 75.110,213.011 73.986,198.800 74.064 C 193.190 74.095,188.060 74.183,187.400 74.260 M188.931 90.809 C 172.120 92.439,153.689 98.898,139.900 107.992 L 135.600 110.828 135.600 115.240 C 135.600 121.501,135.929 121.201,129.086 121.197 L 123.400 121.193 119.600 125.114 C 115.443 129.404,110.685 135.455,110.918 136.157 C 111.014 136.444,112.948 136.638,116.433 136.707 C 123.327 136.845,122.800 136.022,122.800 146.648 C 122.800 157.468,123.912 156.400,112.651 156.400 C 102.606 156.400,102.803 156.460,102.794 153.420 C 102.780 148.919,101.822 149.710,98.842 156.686 C 91.926 172.875,88.439 194.579,90.341 209.600 C 90.578 211.470,90.967 214.530,91.206 216.400 C 95.080 246.739,115.514 277.344,142.800 293.673 C 203.441 329.963,281.288 301.258,303.605 234.378 C 328.540 159.656,267.467 83.194,188.931 90.809 M212.000 91.634 C 217.197 92.163,227.197 94.214,230.400 95.409 C 231.170 95.697,232.340 96.051,233.000 96.196 C 235.224 96.686,241.820 99.341,247.200 101.912 C 265.835 110.817,284.936 128.556,294.026 145.400 C 299.073 154.750,303.113 164.339,304.393 170.000 C 304.666 171.210,305.070 172.650,305.289 173.200 C 305.808 174.498,306.724 179.349,307.217 183.400 C 307.431 185.160,307.809 187.590,308.058 188.800 C 309.464 195.655,308.250 214.415,305.768 224.200 C 305.433 225.520,305.004 227.320,304.815 228.200 C 303.568 233.997,298.108 247.672,295.153 252.400 C 294.809 252.950,293.739 254.750,292.775 256.400 C 281.585 275.550,263.230 291.211,240.400 301.088 C 222.840 308.686,193.562 311.081,175.800 306.373 C 174.920 306.139,173.480 305.793,172.600 305.603 C 170.583 305.168,160.731 301.933,158.600 301.005 C 139.169 292.550,124.556 281.318,112.537 265.600 C 110.317 262.696,106.400 256.959,106.400 256.610 C 106.400 256.486,105.915 255.623,105.322 254.692 C 103.677 252.112,99.434 243.369,98.191 240.000 C 95.661 233.141,95.203 231.761,95.202 230.980 C 95.201 230.529,95.018 229.978,94.795 229.755 C 94.384 229.344,93.830 227.038,92.402 219.800 C 90.111 208.192,90.141 191.087,92.472 179.800 C 92.927 177.600,93.457 174.990,93.651 174.000 C 94.014 172.142,94.177 171.609,96.643 164.200 C 98.146 159.684,100.971 152.897,101.630 152.220 C 101.858 151.986,102.000 152.494,102.000 153.546 C 102.000 156.936,101.559 156.800,112.534 156.800 C 119.550 156.800,122.373 156.667,122.720 156.320 C 123.065 155.975,123.200 153.265,123.200 146.651 C 123.200 135.188,123.675 136.000,116.962 136.000 C 114.259 136.000,111.947 135.839,111.825 135.641 C 111.582 135.248,113.596 132.704,118.798 126.834 C 123.409 121.631,122.573 122.027,128.969 122.013 C 136.204 121.996,135.996 122.167,136.013 116.238 C 136.027 111.095,135.977 111.194,139.800 108.746 C 145.645 105.003,152.300 101.502,157.800 99.276 C 163.559 96.944,166.174 96.000,166.869 96.000 C 167.293 96.000,168.126 95.756,168.720 95.457 C 169.314 95.159,171.240 94.599,173.000 94.214 C 174.760 93.829,177.211 93.273,178.446 92.979 C 186.603 91.037,200.602 90.476,212.000 91.634 M46.934 103.077 C 46.540 103.695,46.064 104.310,45.875 104.445 C 45.686 104.579,45.540 104.849,45.551 105.045 C 45.562 105.240,45.203 105.822,44.755 106.338 C 44.306 106.854,43.867 107.650,43.779 108.108 C 43.691 108.566,43.477 109.044,43.304 109.171 C 43.131 109.297,42.550 110.300,42.012 111.400 C 41.475 112.500,40.713 113.878,40.318 114.462 C 39.923 115.046,39.600 115.821,39.600 116.185 C 39.600 116.549,39.420 116.736,39.200 116.600 C 38.980 116.464,38.800 116.633,38.800 116.976 C 38.800 117.319,38.620 117.600,38.400 117.600 C 38.180 117.600,38.000 117.949,38.000 118.376 C 38.000 118.803,37.820 119.264,37.600 119.400 C 37.380 119.536,37.200 119.997,37.200 120.424 C 37.200 120.851,37.020 121.200,36.800 121.200 C 36.580 121.200,36.400 121.549,36.400 121.976 C 36.400 122.403,36.220 122.864,36.000 123.000 C 35.780 123.136,35.600 123.597,35.600 124.024 C 35.600 124.451,35.420 124.800,35.200 124.800 C 34.980 124.800,34.800 125.160,34.800 125.600 C 34.800 126.040,34.620 126.400,34.400 126.400 C 34.180 126.400,34.000 126.760,34.000 127.200 C 34.000 127.640,33.820 128.000,33.600 128.000 C 33.380 128.000,33.200 128.272,33.200 128.604 C 33.200 128.937,32.822 130.062,32.360 131.104 C 31.898 132.147,31.337 133.450,31.113 134.000 C 30.890 134.550,30.548 135.313,30.353 135.695 C 30.159 136.077,30.000 136.752,30.000 137.195 C 30.000 137.638,29.850 138.000,29.667 138.000 C 29.483 138.000,29.303 138.270,29.267 138.600 C 29.230 138.930,29.170 139.470,29.133 139.800 C 29.097 140.130,28.917 140.400,28.733 140.400 C 28.550 140.400,28.400 140.940,28.400 141.600 C 28.400 142.260,28.233 142.800,28.029 142.800 C 27.825 142.800,27.534 143.790,27.383 145.000 C 27.232 146.210,26.949 147.200,26.754 147.200 C 26.559 147.200,26.400 147.841,26.400 148.624 C 26.400 149.471,26.238 149.947,26.000 149.800 C 25.762 149.653,25.600 150.129,25.600 150.976 C 25.600 151.759,25.420 152.400,25.200 152.400 C 24.980 152.400,24.800 153.210,24.800 154.200 C 24.800 155.190,24.620 156.000,24.400 156.000 C 24.180 156.000,24.000 156.720,24.000 157.600 C 24.000 158.480,23.820 159.200,23.600 159.200 C 23.380 159.200,23.200 159.909,23.200 160.776 C 23.200 161.643,23.020 162.464,22.800 162.600 C 22.580 162.736,22.400 163.636,22.400 164.600 C 22.400 165.564,22.220 166.464,22.000 166.600 C 21.780 166.736,21.600 167.726,21.600 168.800 C 21.600 169.874,21.420 170.864,21.200 171.000 C 20.980 171.136,20.800 172.407,20.800 173.824 C 20.800 175.275,20.625 176.400,20.400 176.400 C 20.161 176.400,20.000 177.933,20.000 180.200 C 20.000 182.467,19.839 184.000,19.600 184.000 C 19.050 184.000,19.050 216.660,19.600 217.000 C 19.820 217.136,20.000 218.666,20.000 220.400 C 20.000 222.134,20.180 223.664,20.400 223.800 C 20.620 223.936,20.800 225.171,20.800 226.544 C 20.800 227.917,20.963 229.211,21.161 229.420 C 21.360 229.629,21.624 230.610,21.749 231.600 C 22.331 236.238,22.469 237.053,22.795 237.800 C 23.174 238.665,23.527 240.414,23.866 243.100 C 23.984 244.035,24.242 244.800,24.440 244.800 C 24.638 244.800,24.800 245.340,24.800 246.000 C 24.800 246.660,24.980 247.200,25.200 247.200 C 25.420 247.200,25.600 247.920,25.600 248.800 C 25.600 249.680,25.780 250.400,26.000 250.400 C 26.220 250.400,26.400 251.030,26.400 251.800 C 26.400 252.570,26.580 253.200,26.800 253.200 C 27.020 253.200,27.200 253.554,27.200 253.986 C 27.200 254.418,27.444 255.543,27.742 256.486 C 28.041 257.429,28.522 259.010,28.812 260.000 C 29.102 260.990,29.488 261.971,29.670 262.180 C 29.851 262.389,30.000 262.974,30.000 263.480 C 30.000 263.986,30.180 264.400,30.400 264.400 C 30.620 264.400,30.800 264.839,30.800 265.376 C 30.800 265.913,30.980 266.464,31.200 266.600 C 31.420 266.736,31.600 267.197,31.600 267.624 C 31.600 268.051,31.780 268.400,32.000 268.400 C 32.220 268.400,32.404 268.805,32.409 269.300 C 32.414 269.795,32.770 270.650,33.200 271.200 C 33.630 271.750,33.986 272.515,33.991 272.900 C 33.996 273.285,34.180 273.600,34.400 273.600 C 34.620 273.600,34.800 273.956,34.800 274.390 C 34.800 274.825,35.159 275.770,35.599 276.490 C 36.038 277.211,36.398 278.145,36.399 278.567 C 36.399 278.988,36.517 279.216,36.661 279.073 C 37.001 278.732,38.000 280.668,38.000 281.669 C 38.000 282.097,38.180 282.336,38.400 282.200 C 38.628 282.059,38.800 282.404,38.800 283.000 C 38.800 283.576,38.942 283.960,39.115 283.852 C 39.288 283.745,39.677 284.230,39.978 284.929 C 40.279 285.628,40.857 286.678,41.263 287.262 C 41.668 287.846,42.000 288.611,42.000 288.962 C 42.000 289.313,42.180 289.600,42.400 289.600 C 42.620 289.600,42.800 289.870,42.800 290.200 C 42.800 290.530,42.980 290.800,43.200 290.800 C 43.420 290.800,43.600 291.160,43.600 291.600 C 43.600 292.040,43.791 292.400,44.024 292.400 C 44.257 292.400,44.336 292.580,44.200 292.800 C 44.064 293.020,44.108 293.200,44.298 293.200 C 44.487 293.200,45.083 294.097,45.621 295.194 C 46.160 296.290,46.713 297.190,46.851 297.194 C 46.990 297.197,47.327 297.740,47.600 298.400 C 47.873 299.060,48.255 299.600,48.449 299.600 C 48.642 299.600,48.800 299.836,48.800 300.125 C 48.800 300.413,49.160 301.036,49.600 301.508 C 50.040 301.980,50.400 302.554,50.400 302.783 C 50.400 303.012,50.580 303.200,50.800 303.200 C 51.020 303.200,51.200 303.380,51.200 303.600 C 51.200 303.820,51.515 304.347,51.900 304.771 C 53.228 306.234,53.600 306.768,53.600 307.207 C 53.600 307.449,53.780 307.536,54.000 307.400 C 54.220 307.264,54.400 307.407,54.400 307.717 C 54.400 308.027,54.940 308.846,55.600 309.537 C 56.260 310.228,56.800 310.953,56.800 311.148 C 56.800 311.344,57.520 312.245,58.400 313.152 C 59.280 314.059,60.000 314.958,60.000 315.150 C 60.000 315.342,60.585 316.145,61.300 316.934 C 62.015 317.722,63.500 319.386,64.600 320.630 C 68.026 324.506,76.746 333.200,77.208 333.200 C 77.449 333.200,77.536 333.380,77.400 333.600 C 77.264 333.820,77.344 334.000,77.578 334.000 C 77.811 334.000,78.947 334.918,80.101 336.040 C 81.256 337.162,83.280 338.912,84.600 339.930 C 85.920 340.947,87.349 342.099,87.775 342.490 C 88.202 342.880,88.699 343.200,88.879 343.200 C 89.060 343.200,89.772 343.740,90.463 344.400 C 91.154 345.060,91.922 345.600,92.171 345.600 C 92.420 345.600,92.883 345.960,93.200 346.400 C 93.517 346.840,94.007 347.200,94.288 347.200 C 94.570 347.200,94.800 347.380,94.800 347.600 C 94.800 347.820,95.030 348.000,95.312 348.000 C 95.593 348.000,96.083 348.360,96.400 348.800 C 96.717 349.240,97.207 349.600,97.488 349.600 C 97.770 349.600,98.000 349.750,98.000 349.932 C 98.000 350.115,98.495 350.520,99.100 350.832 C 99.705 351.145,100.549 351.715,100.975 352.100 C 101.402 352.485,101.987 352.800,102.275 352.800 C 102.564 352.800,102.800 352.959,102.800 353.153 C 102.800 353.348,103.115 353.607,103.500 353.729 C 104.223 353.958,106.447 355.232,106.800 355.619 C 107.088 355.935,110.981 358.164,111.097 358.080 C 111.151 358.041,111.961 358.459,112.897 359.009 C 113.834 359.560,115.275 360.320,116.100 360.699 C 116.925 361.078,117.600 361.526,117.600 361.694 C 117.600 361.862,118.061 362.000,118.624 362.000 C 119.295 362.000,119.549 362.159,119.362 362.462 C 119.205 362.716,119.243 362.821,119.446 362.695 C 119.867 362.435,122.920 363.747,122.611 364.056 C 122.500 364.167,123.307 364.502,124.404 364.801 C 125.502 365.100,126.400 365.492,126.400 365.672 C 126.400 365.853,126.760 366.000,127.200 366.000 C 127.640 366.000,128.000 366.180,128.000 366.400 C 128.000 366.620,128.360 366.800,128.800 366.800 C 129.240 366.800,129.600 366.942,129.600 367.115 C 129.600 367.288,130.002 367.460,130.494 367.497 C 130.986 367.534,131.451 367.752,131.527 367.982 C 131.604 368.212,132.001 368.400,132.410 368.400 C 132.818 368.400,133.264 368.580,133.400 368.800 C 133.536 369.020,134.087 369.200,134.624 369.200 C 135.161 369.200,135.600 369.380,135.600 369.600 C 135.600 369.820,135.962 370.000,136.405 370.000 C 136.848 370.000,137.613 370.208,138.105 370.462 C 140.026 371.456,140.416 371.600,141.171 371.600 C 141.601 371.600,142.064 371.780,142.200 372.000 C 142.336 372.220,142.941 372.400,143.544 372.400 C 144.147 372.400,144.811 372.549,145.020 372.730 C 145.229 372.912,146.210 373.291,147.200 373.572 C 148.190 373.853,149.412 374.244,149.915 374.440 C 150.418 374.636,151.813 374.912,153.015 375.053 C 154.217 375.195,155.200 375.430,155.200 375.577 C 155.200 375.724,155.965 375.888,156.900 375.943 C 157.835 375.998,158.771 376.213,158.980 376.421 C 159.189 376.630,160.044 376.800,160.880 376.800 C 161.716 376.800,162.400 376.980,162.400 377.200 C 162.400 377.420,163.199 377.600,164.176 377.600 C 165.153 377.600,166.064 377.780,166.200 378.000 C 166.336 378.220,167.416 378.400,168.600 378.400 C 169.784 378.400,170.864 378.580,171.000 378.800 C 171.136 379.020,172.407 379.200,173.824 379.200 C 175.275 379.200,176.400 379.375,176.400 379.600 C 176.400 379.837,177.875 380.000,180.024 380.000 C 182.337 380.000,183.558 380.145,183.400 380.400 C 183.242 380.656,184.529 380.800,186.976 380.800 C 190.073 380.800,190.800 380.688,190.800 380.212 C 190.800 379.560,190.842 379.483,195.797 371.000 C 197.724 367.700,199.613 364.460,199.995 363.800 C 200.376 363.140,201.279 361.610,202.000 360.400 C 202.721 359.190,203.624 357.660,204.005 357.000 C 204.386 356.340,205.644 354.180,206.800 352.200 C 207.956 350.220,209.216 348.060,209.598 347.400 C 209.980 346.740,212.773 341.970,215.804 336.800 C 223.047 324.446,222.851 324.806,222.580 324.368 C 222.451 324.158,222.202 324.075,222.027 324.183 C 220.090 325.381,195.274 326.749,188.600 326.026 C 176.243 324.688,169.438 323.291,160.000 320.156 C 118.715 306.441,87.769 273.336,77.032 231.400 C 74.091 219.913,73.465 214.468,73.446 200.200 C 73.427 186.475,73.818 182.714,76.478 171.000 C 77.768 165.316,79.863 158.520,80.384 158.325 C 80.782 158.177,83.691 150.758,83.448 150.514 C 83.356 150.422,82.696 151.894,81.983 153.785 C 81.269 155.677,80.507 157.334,80.290 157.468 C 79.876 157.724,79.772 157.581,77.752 154.008 C 76.393 151.605,66.015 133.471,64.698 131.200 C 64.252 130.430,63.433 128.990,62.879 128.000 C 62.074 126.563,53.774 111.982,49.902 105.201 C 49.462 104.432,48.776 103.387,48.376 102.878 L 47.649 101.954 46.934 103.077 M123.287 108.738 C 122.905 108.980,122.802 110.286,122.887 113.832 L 123.000 118.600 127.595 118.714 C 133.281 118.855,133.200 118.930,133.200 113.552 C 133.200 108.425,133.172 108.398,127.871 108.406 C 125.632 108.409,123.569 108.559,123.287 108.738 M105.049 121.817 C 104.615 122.947,104.780 127.020,105.280 127.520 C 105.971 128.211,110.581 128.146,111.170 127.436 C 111.456 127.091,111.592 125.809,111.519 124.136 L 111.400 121.400 108.349 121.284 C 105.834 121.188,105.254 121.282,105.049 121.817 M111.122 124.158 C 111.272 127.078,110.997 127.361,108.120 127.245 C 105.480 127.138,105.215 126.877,105.206 124.380 C 105.198 121.933,105.688 121.542,108.597 121.683 L 111.000 121.800 111.122 124.158 M131.600 128.284 C 129.541 128.680,129.600 128.142,129.600 146.420 C 129.600 161.453,129.677 163.620,130.229 164.171 C 131.267 165.210,164.393 165.113,165.338 164.069 C 166.348 162.953,166.349 129.588,165.339 128.749 C 164.684 128.205,134.198 127.785,131.600 128.284 M175.555 128.284 C 173.211 128.540,173.200 128.624,173.200 146.819 C 173.200 162.667,173.226 163.226,174.000 164.000 C 174.786 164.786,175.333 164.800,204.613 164.800 C 229.747 164.800,234.459 164.888,234.639 165.358 C 234.757 165.665,234.886 167.348,234.927 169.097 C 235.040 174.016,233.354 173.600,253.187 173.600 C 269.235 173.600,270.316 173.555,270.938 172.869 C 271.704 172.022,271.962 129.992,271.209 128.800 C 270.850 128.234,180.487 127.746,175.555 128.284 M164.971 129.429 C 165.736 130.194,165.937 161.823,165.186 163.226 C 164.675 164.181,131.422 164.462,130.480 163.520 C 129.663 162.703,129.804 130.253,130.629 129.429 C 131.580 128.477,164.020 128.477,164.971 129.429 M270.304 129.132 C 270.830 129.466,271.109 171.576,270.590 172.415 C 270.134 173.155,236.128 172.912,235.843 172.167 C 235.709 171.819,235.600 170.055,235.600 168.247 C 235.600 163.553,238.841 164.000,204.800 164.000 C 182.124 164.000,174.845 163.885,174.480 163.520 C 173.663 162.703,173.804 130.253,174.629 129.429 C 175.320 128.737,269.223 128.446,270.304 129.132 M112.200 138.685 C 115.500 138.745,118.609 138.890,119.109 139.007 L 120.018 139.220 119.909 146.510 L 119.800 153.800 112.853 153.910 C 108.068 153.985,105.733 153.877,105.353 153.561 C 105.013 153.279,104.800 153.259,104.800 153.508 C 104.800 154.335,118.739 154.980,119.983 154.211 C 120.248 154.047,120.400 151.270,120.400 146.590 C 120.400 137.649,121.100 138.369,112.526 138.488 L 106.200 138.577 112.200 138.685 M104.562 146.600 C 104.562 150.120,104.624 151.506,104.698 149.681 C 104.772 147.856,104.772 144.976,104.697 143.281 C 104.622 141.586,104.561 143.080,104.562 146.600 M130.300 172.432 C 129.280 173.026,129.211 215.954,130.229 216.971 C 130.794 217.536,136.096 217.600,182.614 217.600 C 231.521 217.600,234.389 217.639,234.686 218.300 C 234.859 218.685,234.947 222.285,234.883 226.300 L 234.765 233.600 182.956 233.600 C 148.008 233.600,130.896 233.735,130.374 234.014 C 129.477 234.494,129.139 267.991,130.014 269.626 C 130.421 270.387,131.633 270.400,200.600 270.400 C 269.567 270.400,270.779 270.387,271.186 269.626 C 271.731 268.609,271.753 182.461,271.208 181.600 C 270.875 181.073,264.494 180.987,218.415 180.896 L 166.000 180.791 166.000 177.058 C 166.000 171.531,167.688 171.998,147.769 172.012 C 137.125 172.020,130.744 172.173,130.300 172.432 M165.076 173.300 C 165.254 173.575,165.490 175.510,165.600 177.600 L 165.800 181.400 218.171 181.600 L 270.542 181.800 270.771 182.800 C 270.897 183.350,270.910 203.060,270.800 226.600 L 270.600 269.400 200.842 269.501 C 149.616 269.575,130.941 269.483,130.542 269.152 C 129.855 268.582,129.734 236.445,130.414 235.174 C 130.820 234.415,131.822 234.400,182.440 234.400 C 217.253 234.400,234.304 234.265,234.826 233.986 C 235.552 233.598,235.600 233.072,235.600 225.600 C 235.600 218.128,235.552 217.602,234.826 217.214 C 234.304 216.935,217.274 216.800,182.506 216.800 C 142.948 216.800,130.848 216.688,130.480 216.320 C 129.848 215.688,129.784 174.750,130.414 173.574 C 130.934 172.601,164.453 172.337,165.076 173.300 " stroke="none" fill="#528beb" fill-rule="evenodd"></path><path id="path2" d="M191.800 75.204 C 176.587 76.508,168.436 78.248,155.800 82.889 C 94.802 105.296,60.968 171.924,78.872 234.381 C 96.132 294.589,154.813 332.927,216.200 324.099 C 218.620 323.751,221.770 323.431,223.200 323.387 C 230.305 323.169,246.853 317.448,258.800 311.080 C 320.816 278.024,343.721 199.260,308.978 138.529 C 304.466 130.643,296.454 119.455,293.937 117.527 C 293.202 116.964,290.800 114.660,288.600 112.408 C 263.834 87.058,225.484 72.319,191.800 75.204 M211.000 90.203 C 258.018 95.043,296.968 129.548,307.173 175.400 C 308.519 181.451,308.733 182.646,309.283 187.200 C 315.275 236.764,285.336 285.906,238.600 303.218 C 237.280 303.707,235.840 304.252,235.400 304.430 C 234.711 304.709,232.159 305.467,227.400 306.806 C 226.018 307.196,219.337 308.559,215.773 309.179 C 208.366 310.468,193.292 310.670,186.400 309.573 C 184.970 309.345,182.630 309.006,181.200 308.819 C 175.942 308.132,167.392 305.757,158.805 302.599 C 133.444 293.271,108.735 269.133,98.001 243.200 C 97.318 241.550,96.601 239.840,96.407 239.400 C 94.507 235.088,91.227 222.596,90.367 216.400 C 88.221 200.916,89.101 184.984,92.832 171.800 C 93.268 170.260,93.822 168.280,94.064 167.400 C 96.173 159.716,101.156 148.903,102.668 148.730 L 103.800 148.600 104.000 143.684 C 104.154 139.910,104.339 138.681,104.800 138.390 C 105.946 137.668,120.033 137.906,120.869 138.662 C 121.556 139.284,121.600 139.272,121.600 138.462 C 121.600 137.621,121.466 137.600,116.049 137.600 C 109.753 137.600,109.082 137.342,110.146 135.329 C 111.016 133.682,115.416 128.338,119.307 124.200 L 122.692 120.600 128.646 120.400 L 134.600 120.200 134.800 115.332 C 134.910 112.654,135.090 110.380,135.200 110.278 C 137.660 108.004,151.117 100.380,156.200 98.381 C 157.520 97.861,158.780 97.319,159.000 97.176 C 159.532 96.831,171.659 93.045,174.200 92.431 C 184.956 89.834,199.095 88.978,211.000 90.203 M133.345 108.110 C 134.410 108.889,134.527 118.045,133.485 119.087 C 132.505 120.066,123.001 120.163,122.392 119.200 C 121.645 118.019,121.908 108.493,122.700 108.032 C 123.750 107.421,132.490 107.485,133.345 108.110 M111.920 120.880 C 112.972 121.932,112.535 127.969,111.374 128.410 C 110.021 128.924,106.152 128.909,105.174 128.386 C 104.248 127.891,104.008 121.752,104.880 120.880 C 105.521 120.239,111.279 120.239,111.920 120.880 M131.244 130.147 C 130.919 130.539,130.820 135.255,130.895 146.847 L 131.000 163.000 147.800 163.000 L 164.600 163.000 164.705 146.847 C 164.780 135.255,164.681 130.539,164.356 130.147 C 163.986 129.701,160.924 129.600,147.800 129.600 C 134.676 129.600,131.614 129.701,131.244 130.147 M174.996 130.500 C 174.876 130.995,174.827 138.510,174.889 147.200 L 175.000 163.000 205.267 163.200 C 221.914 163.310,235.684 163.549,235.867 163.731 C 236.050 163.914,236.290 165.804,236.400 167.931 L 236.600 171.800 253.314 171.800 L 270.028 171.800 270.007 151.019 C 269.991 135.006,269.873 130.167,269.493 129.925 C 269.222 129.753,247.898 129.609,222.108 129.606 L 175.215 129.600 174.996 130.500 M104.000 154.524 C 104.000 155.214,104.215 155.600,104.600 155.600 C 105.347 155.600,105.343 155.223,104.587 154.224 C 104.024 153.479,104.000 153.491,104.000 154.524 M120.660 154.438 C 119.872 155.359,120.021 155.831,120.983 155.462 C 121.322 155.332,121.600 154.859,121.600 154.413 C 121.600 153.402,121.546 153.404,120.660 154.438 M131.043 174.233 C 130.293 176.188,130.801 215.572,131.582 215.990 C 132.114 216.275,148.760 216.404,183.830 216.395 C 221.897 216.386,235.441 216.502,235.848 216.840 C 236.717 217.561,236.647 233.696,235.771 234.571 C 235.206 235.136,229.886 235.200,183.179 235.200 L 131.215 235.200 130.996 236.100 C 130.876 236.595,130.827 244.110,130.889 252.800 L 131.000 268.600 200.502 268.701 L 270.004 268.802 269.902 225.701 L 269.800 182.600 217.839 182.498 C 180.246 182.425,165.729 182.273,165.339 181.950 C 164.966 181.640,164.800 180.479,164.800 178.184 C 164.800 176.359,164.691 174.581,164.557 174.233 C 164.187 173.269,131.413 173.269,131.043 174.233 " stroke="none" fill="#fafbfb" fill-rule="evenodd"></path><path id="path3" d="M184.870 75.034 C 138.528 80.645,98.011 111.924,82.196 154.300 C 81.354 156.555,80.530 158.400,80.365 158.400 C 79.900 158.400,77.773 165.293,76.478 171.000 C 73.818 182.714,73.427 186.475,73.446 200.200 C 73.512 249.164,99.601 291.443,143.200 313.242 C 157.637 320.461,170.403 324.055,188.600 326.026 C 195.274 326.749,220.090 325.381,222.027 324.183 C 222.202 324.075,222.451 324.158,222.580 324.368 C 222.851 324.806,223.047 324.446,215.804 336.800 C 212.773 341.970,209.980 346.740,209.598 347.400 C 209.216 348.060,207.956 350.220,206.800 352.200 C 205.644 354.180,204.386 356.340,204.005 357.000 C 203.624 357.660,202.721 359.190,202.000 360.400 C 201.279 361.610,200.376 363.140,199.995 363.800 C 199.613 364.460,197.724 367.700,195.797 371.000 C 190.842 379.483,190.800 379.560,190.800 380.212 C 190.800 380.716,192.534 380.800,203.000 380.800 C 210.867 380.800,215.200 380.658,215.200 380.400 C 215.200 380.161,216.733 380.000,219.000 380.000 C 221.267 380.000,222.800 379.839,222.800 379.600 C 222.800 379.369,224.059 379.200,225.776 379.200 C 227.413 379.200,228.864 379.020,229.000 378.800 C 229.136 378.580,230.137 378.400,231.224 378.400 C 232.311 378.400,233.200 378.220,233.200 378.000 C 233.200 377.780,233.999 377.600,234.976 377.600 C 235.953 377.600,236.864 377.420,237.000 377.200 C 237.136 376.980,238.047 376.800,239.024 376.800 C 240.001 376.800,240.800 376.638,240.800 376.440 C 240.800 376.242,241.565 375.989,242.500 375.877 C 244.771 375.606,247.323 375.019,250.650 374.003 C 252.163 373.542,254.120 372.974,255.000 372.743 C 255.880 372.511,256.913 372.160,257.295 371.961 C 257.677 371.762,258.341 371.600,258.771 371.600 C 259.201 371.600,259.664 371.420,259.800 371.200 C 259.936 370.980,260.487 370.800,261.024 370.800 C 261.561 370.800,262.000 370.620,262.000 370.400 C 262.000 370.180,262.279 370.000,262.619 370.000 C 262.960 370.000,263.984 369.640,264.894 369.200 C 265.805 368.760,266.866 368.400,267.252 368.400 C 267.637 368.400,268.064 368.220,268.200 368.000 C 268.336 367.780,268.797 367.600,269.224 367.600 C 269.651 367.600,270.000 367.420,270.000 367.200 C 270.000 366.980,270.450 366.800,271.000 366.800 C 271.550 366.800,272.000 366.620,272.000 366.400 C 272.000 366.180,272.234 366.000,272.520 366.000 C 273.256 366.000,275.193 365.059,275.197 364.700 C 275.199 364.535,275.560 364.400,276.000 364.400 C 276.440 364.400,276.800 364.220,276.800 364.000 C 276.800 363.780,277.160 363.600,277.600 363.600 C 278.040 363.600,278.400 363.420,278.400 363.200 C 278.400 362.980,278.760 362.800,279.200 362.800 C 279.640 362.800,280.000 362.620,280.000 362.400 C 280.000 362.180,280.360 362.000,280.800 362.000 C 281.240 362.000,281.600 361.820,281.600 361.600 C 281.600 361.380,281.960 361.200,282.400 361.200 C 282.840 361.200,283.200 361.020,283.200 360.800 C 283.200 360.580,283.560 360.400,284.000 360.400 C 284.440 360.400,284.800 360.220,284.800 360.000 C 284.800 359.780,285.160 359.600,285.600 359.600 C 286.040 359.600,286.400 359.420,286.400 359.200 C 286.400 358.980,286.699 358.800,287.065 358.800 C 287.668 358.800,291.117 357.001,291.600 356.435 C 291.929 356.049,294.148 354.767,294.900 354.529 C 295.285 354.407,295.600 354.148,295.600 353.953 C 295.600 353.759,295.836 353.600,296.125 353.600 C 296.413 353.600,296.998 353.279,297.425 352.887 C 297.851 352.495,298.830 351.873,299.600 351.506 C 300.370 351.138,301.487 350.379,302.083 349.819 C 302.678 349.258,303.353 348.800,303.583 348.800 C 303.812 348.800,304.000 348.620,304.000 348.400 C 304.000 348.180,304.178 348.000,304.395 348.000 C 304.767 348.000,305.815 347.240,307.016 346.100 C 307.306 345.825,307.736 345.600,307.971 345.600 C 308.207 345.600,308.400 345.420,308.400 345.200 C 308.400 344.980,308.598 344.800,308.840 344.800 C 309.081 344.800,309.783 344.260,310.400 343.600 C 311.017 342.940,311.732 342.400,311.989 342.400 C 312.247 342.400,312.692 342.165,312.980 341.877 C 313.267 341.590,314.458 340.555,315.626 339.577 C 316.795 338.600,318.561 337.080,319.552 336.200 C 320.543 335.320,321.876 334.150,322.514 333.600 C 325.601 330.940,336.971 319.114,338.282 317.200 C 338.659 316.650,339.155 315.981,339.384 315.714 C 340.165 314.801,340.622 314.200,341.595 312.800 C 342.131 312.030,343.036 310.950,343.606 310.400 C 344.176 309.850,345.253 308.500,345.998 307.400 C 346.744 306.300,347.499 305.340,347.677 305.267 C 347.855 305.193,348.000 304.878,348.000 304.567 C 348.000 304.255,348.180 304.000,348.400 304.000 C 348.620 304.000,348.800 303.730,348.800 303.400 C 348.800 303.070,348.950 302.800,349.132 302.800 C 349.315 302.800,349.719 302.305,350.030 301.700 C 350.340 301.095,350.911 300.309,351.297 299.953 C 351.684 299.597,352.000 299.052,352.000 298.741 C 352.000 298.431,352.360 297.917,352.800 297.600 C 353.240 297.283,353.600 296.786,353.600 296.495 C 353.600 296.204,353.960 295.580,354.400 295.108 C 354.840 294.636,355.200 294.013,355.200 293.725 C 355.200 293.436,355.380 293.200,355.600 293.200 C 355.820 293.200,356.000 292.840,356.000 292.400 C 356.000 291.960,356.135 291.597,356.300 291.593 C 356.465 291.590,357.140 290.465,357.800 289.093 C 358.460 287.722,359.135 286.540,359.300 286.467 C 359.465 286.393,359.600 285.988,359.600 285.567 C 359.600 285.145,359.780 284.800,360.000 284.800 C 360.220 284.800,360.400 284.480,360.400 284.088 C 360.400 283.697,360.760 283.117,361.200 282.800 C 361.640 282.483,362.000 281.914,362.000 281.535 C 362.000 281.157,362.180 280.736,362.400 280.600 C 362.620 280.464,362.800 279.913,362.800 279.376 C 362.800 278.839,362.980 278.400,363.200 278.400 C 363.420 278.400,363.600 278.040,363.600 277.600 C 363.600 277.160,363.780 276.800,364.000 276.800 C 364.220 276.800,364.400 276.440,364.400 276.000 C 364.400 275.560,364.580 275.200,364.800 275.200 C 365.020 275.200,365.200 274.840,365.200 274.400 C 365.200 273.960,365.380 273.600,365.600 273.600 C 365.820 273.600,366.000 273.251,366.000 272.824 C 366.000 272.397,366.180 271.936,366.400 271.800 C 366.620 271.664,366.800 271.203,366.800 270.776 C 366.800 270.349,366.980 270.000,367.200 270.000 C 367.420 270.000,367.600 269.640,367.600 269.200 C 367.600 268.760,367.780 268.400,368.000 268.400 C 368.220 268.400,368.400 267.961,368.400 267.424 C 368.400 266.887,368.580 266.336,368.800 266.200 C 369.020 266.064,369.200 265.513,369.200 264.976 C 369.200 264.439,369.380 264.000,369.600 264.000 C 369.820 264.000,370.000 263.709,370.000 263.353 C 370.000 262.451,371.732 257.429,372.099 257.267 C 372.265 257.193,372.400 256.690,372.400 256.147 C 372.400 255.605,372.760 254.416,373.200 253.506 C 373.640 252.595,374.000 251.354,374.000 250.748 C 374.000 250.143,374.166 249.545,374.369 249.419 C 374.571 249.294,374.862 248.023,375.015 246.596 C 375.168 245.168,375.452 244.000,375.647 244.000 C 375.841 244.000,376.000 243.291,376.000 242.424 C 376.000 241.557,376.180 240.736,376.400 240.600 C 376.620 240.464,376.800 239.733,376.800 238.976 C 376.800 238.219,376.980 237.600,377.200 237.600 C 377.420 237.600,377.600 236.621,377.600 235.424 C 377.600 234.227,377.780 233.136,378.000 233.000 C 378.220 232.864,378.400 231.784,378.400 230.600 C 378.400 229.416,378.580 228.336,378.800 228.200 C 379.020 228.064,379.200 226.984,379.200 225.800 C 379.200 224.616,379.380 223.536,379.600 223.400 C 379.820 223.264,380.000 221.734,380.000 220.000 C 380.000 218.266,380.180 216.736,380.400 216.600 C 380.656 216.442,380.800 210.396,380.800 199.776 C 380.800 188.992,380.660 183.200,380.400 183.200 C 380.165 183.200,380.000 181.800,380.000 179.800 C 380.000 177.800,379.835 176.400,379.600 176.400 C 379.378 176.400,379.200 175.333,379.200 174.000 C 379.200 172.667,379.022 171.600,378.800 171.600 C 378.578 171.600,378.400 170.541,378.400 169.224 C 378.400 167.917,378.220 166.736,378.000 166.600 C 377.780 166.464,377.600 165.463,377.600 164.376 C 377.600 163.289,377.420 162.400,377.200 162.400 C 376.980 162.400,376.800 161.680,376.800 160.800 C 376.800 159.920,376.620 159.200,376.400 159.200 C 376.180 159.200,376.000 158.480,376.000 157.600 C 376.000 156.720,375.845 156.000,375.656 156.000 C 375.467 156.000,375.210 155.015,375.086 153.812 C 374.864 151.663,374.245 149.278,373.551 147.905 C 373.358 147.523,373.200 146.859,373.200 146.429 C 373.200 145.999,373.020 145.536,372.800 145.400 C 372.580 145.264,372.400 144.724,372.400 144.200 C 372.400 143.676,372.220 143.136,372.000 143.000 C 371.780 142.864,371.600 142.234,371.600 141.600 C 371.600 140.966,371.420 140.336,371.200 140.200 C 370.980 140.064,370.800 139.513,370.800 138.976 C 370.800 138.439,370.653 138.000,370.472 138.000 C 370.292 138.000,369.900 137.100,369.600 136.000 C 369.300 134.900,368.908 134.000,368.728 134.000 C 368.547 134.000,368.400 133.561,368.400 133.024 C 368.400 132.487,368.220 131.936,368.000 131.800 C 367.780 131.664,367.600 131.203,367.600 130.776 C 367.600 130.349,367.420 130.000,367.200 130.000 C 366.980 130.000,366.800 129.550,366.800 129.000 C 366.800 128.450,366.620 128.000,366.400 128.000 C 366.180 128.000,366.000 127.640,366.000 127.200 C 366.000 126.760,365.820 126.400,365.600 126.400 C 365.380 126.400,365.200 126.040,365.200 125.600 C 365.200 125.160,365.020 124.800,364.800 124.800 C 364.580 124.800,364.400 124.440,364.400 124.000 C 364.400 123.560,364.220 123.200,364.000 123.200 C 363.780 123.200,363.600 122.840,363.600 122.400 C 363.600 121.960,363.420 121.600,363.200 121.600 C 362.980 121.600,362.800 121.251,362.800 120.824 C 362.800 120.397,362.620 119.936,362.400 119.800 C 362.180 119.664,362.000 119.203,362.000 118.776 C 362.000 118.349,361.955 117.997,361.900 117.993 C 361.845 117.989,347.310 117.892,329.600 117.778 C 290.562 117.525,294.728 117.930,291.190 114.043 C 265.419 85.732,223.511 70.356,184.870 75.034 M211.800 75.617 C 240.952 78.635,268.496 91.830,288.600 112.408 C 290.800 114.660,293.202 116.964,293.937 117.527 C 296.454 119.455,304.466 130.643,308.978 138.529 C 343.721 199.260,320.816 278.024,258.800 311.080 C 246.853 317.448,230.305 323.169,223.200 323.387 C 221.770 323.431,218.620 323.751,216.200 324.099 C 154.813 332.927,96.132 294.589,78.872 234.381 C 60.968 171.924,94.802 105.296,155.800 82.889 C 174.340 76.079,192.934 73.664,211.800 75.617 M187.400 90.221 C 182.643 90.732,178.056 91.500,174.200 92.431 C 171.659 93.045,159.532 96.831,159.000 97.176 C 158.780 97.319,157.520 97.861,156.200 98.381 C 151.117 100.380,137.660 108.004,135.200 110.278 C 135.090 110.380,134.910 112.654,134.800 115.332 L 134.600 120.200 128.646 120.400 L 122.692 120.600 119.307 124.200 C 115.416 128.338,111.016 133.682,110.146 135.329 C 109.082 137.342,109.753 137.600,116.049 137.600 C 121.466 137.600,121.600 137.621,121.600 138.462 C 121.600 139.272,121.556 139.284,120.869 138.662 C 120.033 137.906,105.946 137.668,104.800 138.390 C 104.339 138.681,104.154 139.910,104.000 143.684 L 103.800 148.600 102.668 148.730 C 101.156 148.903,96.173 159.716,94.064 167.400 C 93.822 168.280,93.268 170.260,92.832 171.800 C 89.101 184.984,88.221 200.916,90.367 216.400 C 91.227 222.596,94.507 235.088,96.407 239.400 C 96.601 239.840,97.318 241.550,98.001 243.200 C 108.735 269.133,133.444 293.271,158.805 302.599 C 167.392 305.757,175.942 308.132,181.200 308.819 C 182.630 309.006,184.970 309.345,186.400 309.573 C 193.292 310.670,208.366 310.468,215.773 309.179 C 219.337 308.559,226.018 307.196,227.400 306.806 C 232.159 305.467,234.711 304.709,235.400 304.430 C 235.840 304.252,237.280 303.707,238.600 303.218 C 285.336 285.906,315.275 236.764,309.283 187.200 C 308.733 182.646,308.519 181.451,307.173 175.400 C 295.068 121.008,243.332 84.215,187.400 90.221 M215.200 91.406 C 302.559 104.875,339.592 208.749,280.298 274.000 C 235.341 323.474,155.748 320.771,113.980 268.350 C 102.018 253.337,93.417 233.718,91.206 216.400 C 90.967 214.530,90.578 211.470,90.341 209.600 C 88.439 194.579,91.926 172.875,98.842 156.686 C 101.822 149.710,102.780 148.919,102.794 153.420 C 102.803 156.460,102.606 156.400,112.651 156.400 C 123.912 156.400,122.800 157.468,122.800 146.648 C 122.800 136.022,123.327 136.845,116.433 136.707 C 112.948 136.638,111.014 136.444,110.918 136.157 C 110.685 135.455,115.443 129.404,119.600 125.114 L 123.400 121.193 129.086 121.197 C 135.929 121.201,135.600 121.501,135.600 115.240 L 135.600 110.828 139.900 107.992 C 161.031 94.056,190.413 87.584,215.200 91.406 M122.700 108.032 C 121.908 108.493,121.645 118.019,122.392 119.200 C 123.001 120.163,132.505 120.066,133.485 119.087 C 134.527 118.045,134.410 108.889,133.345 108.110 C 132.490 107.485,123.750 107.421,122.700 108.032 M132.571 109.029 C 133.057 109.514,133.200 110.545,133.200 113.552 C 133.200 118.930,133.281 118.855,127.595 118.714 L 123.000 118.600 122.887 113.832 C 122.802 110.286,122.905 108.980,123.287 108.738 C 124.289 108.102,131.883 108.340,132.571 109.029 M104.880 120.880 C 104.008 121.752,104.248 127.891,105.174 128.386 C 106.152 128.909,110.021 128.924,111.374 128.410 C 112.535 127.969,112.972 121.932,111.920 120.880 C 111.279 120.239,105.521 120.239,104.880 120.880 M111.519 124.136 C 111.672 127.652,111.376 128.000,108.231 128.000 C 105.179 128.000,104.800 127.641,104.800 124.753 C 104.800 121.174,104.824 121.150,108.349 121.284 L 111.400 121.400 111.519 124.136 M130.629 129.429 C 129.804 130.253,129.663 162.703,130.480 163.520 C 131.422 164.462,164.675 164.181,165.186 163.226 C 165.937 161.823,165.736 130.194,164.971 129.429 C 164.020 128.477,131.580 128.477,130.629 129.429 M174.629 129.429 C 173.804 130.253,173.663 162.703,174.480 163.520 C 174.845 163.885,182.124 164.000,204.800 164.000 C 238.841 164.000,235.600 163.553,235.600 168.247 C 235.600 170.055,235.709 171.819,235.843 172.167 C 236.128 172.912,270.134 173.155,270.590 172.415 C 271.109 171.576,270.830 129.466,270.304 129.132 C 269.223 128.446,175.320 128.737,174.629 129.429 M164.356 130.147 C 164.681 130.539,164.780 135.255,164.705 146.847 L 164.600 163.000 147.800 163.000 L 131.000 163.000 130.895 146.847 C 130.820 135.255,130.919 130.539,131.244 130.147 C 131.614 129.701,134.676 129.600,147.800 129.600 C 160.924 129.600,163.986 129.701,164.356 130.147 M269.493 129.925 C 269.873 130.167,269.991 135.006,270.007 151.019 L 270.028 171.800 253.314 171.800 L 236.600 171.800 236.400 167.931 C 236.290 165.804,236.050 163.914,235.867 163.731 C 235.684 163.549,221.914 163.310,205.267 163.200 L 175.000 163.000 174.889 147.200 C 174.827 138.510,174.876 130.995,174.996 130.500 L 175.215 129.600 222.108 129.606 C 247.898 129.609,269.222 129.753,269.493 129.925 M119.626 138.814 C 120.649 139.361,120.839 153.713,119.831 154.280 C 119.103 154.690,105.373 154.310,104.932 153.868 C 104.524 153.460,104.242 142.370,104.591 140.505 C 104.754 139.639,105.158 139.032,105.722 138.804 C 106.969 138.302,118.685 138.310,119.626 138.814 M105.187 155.300 C 105.194 155.465,104.930 155.600,104.600 155.600 C 104.215 155.600,104.000 155.214,104.000 154.524 C 104.000 153.489,105.142 154.236,105.187 155.300 M121.600 154.413 C 121.600 155.188,120.599 155.932,120.154 155.487 C 119.972 155.306,121.179 153.600,121.489 153.600 C 121.550 153.600,121.600 153.966,121.600 154.413 M130.414 173.574 C 129.784 174.750,129.848 215.688,130.480 216.320 C 130.848 216.688,142.948 216.800,182.506 216.800 C 217.274 216.800,234.304 216.935,234.826 217.214 C 235.552 217.602,235.600 218.128,235.600 225.600 C 235.600 233.072,235.552 233.598,234.826 233.986 C 234.304 234.265,217.253 234.400,182.440 234.400 C 131.822 234.400,130.820 234.415,130.414 235.174 C 129.734 236.445,129.855 268.582,130.542 269.152 C 130.941 269.483,149.616 269.575,200.842 269.501 L 270.600 269.400 270.800 226.600 C 270.910 203.060,270.897 183.350,270.771 182.800 L 270.542 181.800 218.171 181.600 L 165.800 181.400 165.600 177.600 C 165.490 175.510,165.254 173.575,165.076 173.300 C 164.453 172.337,130.934 172.601,130.414 173.574 M164.557 174.233 C 164.691 174.581,164.800 176.359,164.800 178.184 C 164.800 180.479,164.966 181.640,165.339 181.950 C 165.729 182.273,180.246 182.425,217.839 182.498 L 269.800 182.600 269.902 225.701 L 270.004 268.802 200.502 268.701 L 131.000 268.600 130.889 252.800 C 130.827 244.110,130.876 236.595,130.996 236.100 L 131.215 235.200 183.179 235.200 C 229.886 235.200,235.206 235.136,235.771 234.571 C 236.647 233.696,236.717 217.561,235.848 216.840 C 235.441 216.502,221.897 216.386,183.830 216.395 C 148.760 216.404,132.114 216.275,131.582 215.990 C 130.801 215.572,130.293 176.188,131.043 174.233 C 131.413 173.269,164.187 173.269,164.557 174.233 " stroke="none" fill="#b4ccfa" fill-rule="evenodd"></path></g></svg>