<svg id="svg" version="1.1" width="100" height="100" viewBox="0 0 400 400" xmlns="http://www.w3.org/2000/svg" xmlns:xlink="http://www.w3.org/1999/xlink" ><g id="svgg"><path id="path0" d="M120.800 147.992 L 120.800 166.785 121.700 167.009 C 122.195 167.133,130.745 167.181,140.700 167.117 C 150.655 167.053,158.861 167.090,158.935 167.200 C 159.008 167.310,159.008 167.160,158.934 166.867 C 158.860 166.574,158.800 157.979,158.800 147.767 L 158.800 129.200 139.800 129.200 L 120.800 129.200 120.800 147.992 M169.052 130.099 C 168.647 131.614,168.777 165.745,169.192 166.400 C 169.524 166.926,173.752 167.000,203.285 167.000 L 237.000 167.000 237.000 171.800 C 237.000 174.508,236.826 176.747,236.600 176.938 C 236.370 177.132,236.511 177.175,236.933 177.038 C 237.336 176.907,246.022 176.800,256.236 176.800 L 274.806 176.800 274.703 153.100 L 274.600 129.400 221.947 129.299 L 169.294 129.197 169.052 130.099 M140.000 177.194 L 121.000 177.400 120.897 201.300 L 120.794 225.200 177.240 225.200 C 228.297 225.200,233.663 225.260,233.445 225.826 C 233.261 226.307,233.390 226.394,234.003 226.199 C 234.783 225.951,234.800 226.138,234.800 234.973 L 234.800 244.000 177.800 244.000 L 120.800 244.000 120.800 263.200 L 120.800 282.400 197.320 282.400 C 256.302 282.400,273.950 282.290,274.320 281.920 C 274.688 281.552,274.800 270.436,274.800 234.320 L 274.800 187.200 216.778 187.200 L 158.756 187.200 158.878 181.999 C 158.945 179.139,159.000 176.841,159.000 176.893 C 159.000 176.946,150.450 177.081,140.000 177.194 " stroke="none" fill="#04c3a4" fill-rule="evenodd"></path><path id="path1" d="M186.600 4.800 C 186.460 5.027,184.470 5.200,182.000 5.200 C 179.530 5.200,177.540 5.373,177.400 5.600 C 177.264 5.820,175.824 6.000,174.200 6.000 C 172.576 6.000,171.136 6.180,171.000 6.400 C 170.864 6.620,170.043 6.800,169.176 6.800 C 168.309 6.800,167.600 6.980,167.600 7.200 C 167.600 7.420,166.621 7.600,165.424 7.600 C 164.227 7.600,163.136 7.780,163.000 8.000 C 162.864 8.220,161.953 8.400,160.976 8.400 C 159.999 8.400,159.200 8.580,159.200 8.800 C 159.200 9.020,158.300 9.200,157.200 9.200 C 156.100 9.200,155.200 9.354,155.200 9.543 C 155.200 9.732,154.083 10.003,152.718 10.146 C 151.352 10.288,150.056 10.584,149.838 10.802 C 149.619 11.021,148.934 11.200,148.315 11.200 C 147.696 11.200,146.877 11.362,146.495 11.561 C 146.113 11.760,144.990 12.140,144.000 12.407 C 142.156 12.903,140.733 13.422,139.505 14.047 C 139.123 14.241,138.536 14.400,138.200 14.400 C 137.864 14.400,137.277 14.562,136.895 14.761 C 136.513 14.960,135.390 15.351,134.400 15.631 C 133.410 15.910,132.429 16.288,132.220 16.470 C 132.011 16.651,131.426 16.800,130.920 16.800 C 130.414 16.800,130.000 16.980,130.000 17.200 C 130.000 17.420,129.640 17.600,129.200 17.600 C 128.760 17.600,128.400 17.780,128.400 18.000 C 128.400 18.220,127.950 18.400,127.400 18.400 C 126.850 18.400,126.400 18.580,126.400 18.800 C 126.400 19.020,126.040 19.200,125.600 19.200 C 125.160 19.200,124.800 19.380,124.800 19.600 C 124.800 19.820,124.260 20.000,123.600 20.000 C 122.940 20.000,122.400 20.180,122.400 20.400 C 122.400 20.620,122.040 20.800,121.600 20.800 C 121.160 20.800,120.800 20.980,120.800 21.200 C 120.800 21.420,120.440 21.600,120.000 21.600 C 119.560 21.600,119.200 21.780,119.200 22.000 C 119.200 22.220,118.840 22.400,118.400 22.400 C 117.960 22.400,117.600 22.580,117.600 22.800 C 117.600 23.020,117.276 23.200,116.880 23.200 C 115.986 23.200,114.007 24.094,114.003 24.500 C 114.001 24.665,113.730 24.800,113.400 24.800 C 113.070 24.800,112.800 24.980,112.800 25.200 C 112.800 25.420,112.440 25.600,112.000 25.600 C 111.560 25.600,111.200 25.780,111.200 26.000 C 111.200 26.220,110.851 26.400,110.424 26.400 C 109.997 26.400,109.536 26.580,109.400 26.800 C 109.264 27.020,108.816 27.200,108.405 27.200 C 107.994 27.200,107.419 27.425,107.129 27.700 C 106.838 27.976,105.385 28.829,103.900 29.596 C 102.415 30.364,101.200 31.128,101.200 31.296 C 101.200 31.463,100.880 31.600,100.488 31.600 C 100.097 31.600,99.517 31.960,99.200 32.400 C 98.883 32.840,98.303 33.200,97.912 33.200 C 97.520 33.200,97.200 33.336,97.200 33.502 C 97.200 33.669,96.680 34.035,96.045 34.316 C 95.410 34.597,94.332 35.361,93.649 36.014 C 92.966 36.666,92.136 37.200,91.804 37.200 C 91.472 37.200,91.200 37.380,91.200 37.600 C 91.200 37.820,90.957 38.000,90.659 38.000 C 90.362 38.000,89.554 38.540,88.863 39.200 C 88.172 39.860,87.375 40.400,87.092 40.400 C 86.809 40.400,86.317 40.760,86.000 41.200 C 85.683 41.640,85.238 42.000,85.012 42.000 C 84.656 42.001,83.897 42.552,81.717 44.392 C 81.451 44.616,81.091 44.801,80.917 44.803 C 80.743 44.804,79.880 45.516,79.000 46.383 C 78.120 47.251,77.253 47.970,77.074 47.980 C 76.895 47.991,75.871 48.900,74.800 50.000 C 73.729 51.100,72.653 52.000,72.411 52.000 C 72.168 52.000,70.363 53.620,68.400 55.600 C 66.437 57.580,64.746 59.200,64.643 59.200 C 64.539 59.200,63.540 60.145,62.421 61.300 C 61.303 62.455,58.680 65.153,56.594 67.295 C 54.507 69.437,52.800 71.376,52.800 71.604 C 52.800 71.831,51.855 72.996,50.700 74.193 C 48.135 76.850,45.855 79.518,45.641 80.113 C 45.553 80.356,45.103 80.961,44.641 81.458 C 43.139 83.071,42.800 83.557,42.800 84.095 C 42.800 84.386,42.440 84.883,42.000 85.200 C 41.560 85.517,41.200 86.009,41.200 86.292 C 41.200 86.575,40.660 87.372,40.000 88.063 C 39.340 88.754,38.800 89.562,38.800 89.859 C 38.800 90.157,38.620 90.400,38.400 90.400 C 38.180 90.400,38.000 90.850,38.000 91.400 C 38.000 91.950,38.180 92.400,38.400 92.400 C 38.620 92.400,38.800 92.760,38.800 93.200 C 38.800 93.640,38.980 94.000,39.200 94.000 C 39.420 94.000,39.600 94.236,39.600 94.525 C 39.600 94.813,39.960 95.436,40.400 95.908 C 40.840 96.380,41.200 97.044,41.200 97.383 C 41.200 97.722,41.380 98.000,41.600 98.000 C 41.820 98.000,42.000 98.270,42.000 98.600 C 42.000 98.930,42.180 99.200,42.400 99.200 C 42.620 99.200,42.800 99.470,42.800 99.800 C 42.800 100.130,42.980 100.400,43.200 100.400 C 43.420 100.400,43.600 100.679,43.600 101.020 C 43.600 101.647,44.701 104.032,45.161 104.400 C 45.298 104.510,45.838 105.447,46.359 106.482 C 46.881 107.518,47.643 108.725,48.054 109.166 C 48.464 109.606,48.800 110.244,48.800 110.583 C 48.800 110.922,48.980 111.200,49.200 111.200 C 49.420 111.200,49.600 111.560,49.600 112.000 C 49.600 112.440,49.780 112.800,50.000 112.800 C 50.220 112.800,50.400 113.036,50.400 113.325 C 50.400 113.613,50.760 114.236,51.200 114.708 C 51.640 115.180,52.000 115.844,52.000 116.183 C 52.000 116.522,52.180 116.800,52.400 116.800 C 52.620 116.800,52.800 117.160,52.800 117.600 C 52.800 118.040,52.980 118.400,53.200 118.400 C 53.420 118.400,53.600 118.636,53.600 118.925 C 53.600 119.213,53.960 119.836,54.400 120.308 C 54.840 120.780,55.200 121.444,55.200 121.783 C 55.200 122.122,55.380 122.400,55.600 122.400 C 55.820 122.400,56.000 122.670,56.000 123.000 C 56.000 123.330,56.180 123.600,56.400 123.600 C 56.620 123.600,56.800 123.836,56.800 124.125 C 56.800 124.413,57.160 125.036,57.600 125.508 C 58.040 125.980,58.400 126.562,58.400 126.800 C 58.400 127.038,58.758 127.617,59.195 128.087 C 59.632 128.556,60.102 129.539,60.240 130.270 C 60.377 131.002,60.627 131.600,60.796 131.600 C 60.965 131.600,61.327 132.140,61.600 132.800 C 61.873 133.460,62.255 134.000,62.449 134.000 C 62.642 134.000,62.800 134.360,62.800 134.800 C 62.800 135.240,62.980 135.600,63.200 135.600 C 63.420 135.600,63.600 135.960,63.600 136.400 C 63.600 136.840,63.780 137.200,64.000 137.200 C 64.220 137.200,64.400 137.436,64.400 137.725 C 64.400 138.013,64.760 138.636,65.200 139.108 C 65.640 139.580,66.000 140.244,66.000 140.583 C 66.000 140.922,66.180 141.200,66.400 141.200 C 66.620 141.200,66.800 141.470,66.800 141.800 C 66.800 142.130,66.980 142.400,67.200 142.400 C 67.420 142.400,67.600 142.760,67.600 143.200 C 67.600 143.640,67.736 144.000,67.902 144.000 C 68.069 144.000,68.448 144.550,68.746 145.222 C 69.478 146.877,71.331 146.795,71.527 145.100 C 71.596 144.495,71.821 144.000,72.027 144.000 C 72.232 144.000,72.400 143.640,72.400 143.200 C 72.400 142.760,72.580 142.400,72.800 142.400 C 73.020 142.400,73.200 142.048,73.200 141.618 C 73.200 141.188,73.650 140.172,74.200 139.362 C 74.750 138.551,75.200 137.553,75.200 137.144 C 75.200 136.735,75.380 136.400,75.600 136.400 C 75.820 136.400,76.000 136.040,76.000 135.600 C 76.000 135.160,76.180 134.800,76.400 134.800 C 76.620 134.800,76.800 134.440,76.800 134.000 C 76.800 133.560,76.980 133.200,77.200 133.200 C 77.420 133.200,77.600 132.930,77.600 132.600 C 77.600 132.270,77.780 132.000,78.000 132.000 C 78.220 132.000,78.400 131.730,78.400 131.400 C 78.400 131.070,78.580 130.800,78.800 130.800 C 79.020 130.800,79.200 130.440,79.200 130.000 C 79.200 129.560,79.380 129.200,79.600 129.200 C 79.820 129.200,80.000 128.880,80.000 128.488 C 80.000 128.097,80.360 127.517,80.800 127.200 C 81.240 126.883,81.600 126.303,81.600 125.912 C 81.600 125.520,81.780 125.200,82.000 125.200 C 82.220 125.200,82.400 124.930,82.400 124.600 C 82.400 124.270,82.550 124.000,82.732 124.000 C 82.915 124.000,83.320 123.508,83.632 122.907 C 83.945 122.306,84.695 121.289,85.300 120.648 C 85.905 120.006,86.400 119.278,86.400 119.029 C 86.400 118.780,86.760 118.317,87.200 118.000 C 87.640 117.683,88.000 117.220,88.000 116.971 C 88.000 116.722,88.528 115.966,89.174 115.291 C 89.819 114.615,90.656 113.466,91.033 112.736 C 91.410 112.007,92.232 110.931,92.859 110.345 C 93.487 109.758,94.000 109.178,94.000 109.055 C 94.000 108.755,107.116 95.600,107.416 95.600 C 107.546 95.600,108.529 94.700,109.600 93.600 C 110.671 92.500,111.747 91.600,111.991 91.600 C 112.452 91.600,112.981 91.215,114.601 89.700 C 115.130 89.205,115.725 88.800,115.922 88.800 C 116.120 88.800,116.806 88.305,117.448 87.700 C 118.089 87.095,119.106 86.345,119.707 86.032 C 120.308 85.720,120.800 85.315,120.800 85.132 C 120.800 84.950,121.036 84.800,121.325 84.800 C 121.613 84.800,122.236 84.440,122.708 84.000 C 123.180 83.560,123.714 83.200,123.895 83.200 C 124.076 83.200,124.483 82.840,124.800 82.400 C 125.117 81.960,125.697 81.600,126.088 81.600 C 126.480 81.600,126.800 81.420,126.800 81.200 C 126.800 80.980,127.120 80.800,127.512 80.800 C 127.903 80.800,128.483 80.440,128.800 80.000 C 129.117 79.560,129.697 79.200,130.088 79.200 C 130.480 79.200,130.800 79.020,130.800 78.800 C 130.800 78.580,131.070 78.400,131.400 78.400 C 131.730 78.400,132.000 78.220,132.000 78.000 C 132.000 77.780,132.253 77.600,132.562 77.600 C 133.319 77.600,136.400 75.935,136.400 75.526 C 136.400 75.347,136.685 75.200,137.034 75.200 C 137.914 75.200,144.000 72.348,144.000 71.936 C 144.000 71.751,144.540 71.600,145.200 71.600 C 145.860 71.600,146.400 71.453,146.400 71.272 C 146.400 71.092,147.300 70.700,148.400 70.400 C 149.500 70.100,150.400 69.708,150.400 69.528 C 150.400 69.347,150.760 69.200,151.200 69.200 C 151.640 69.200,152.000 69.020,152.000 68.800 C 152.000 68.580,152.540 68.400,153.200 68.400 C 153.860 68.400,154.400 68.220,154.400 68.000 C 154.400 67.780,154.940 67.600,155.600 67.600 C 156.260 67.600,156.800 67.420,156.800 67.200 C 156.800 66.980,157.430 66.800,158.200 66.800 C 158.970 66.800,159.600 66.620,159.600 66.400 C 159.600 66.180,160.129 66.000,160.776 66.000 C 161.423 66.000,162.064 65.820,162.200 65.600 C 162.336 65.380,162.887 65.200,163.424 65.200 C 163.961 65.200,164.400 65.020,164.400 64.800 C 164.400 64.580,165.120 64.400,166.000 64.400 C 166.880 64.400,167.600 64.220,167.600 64.000 C 167.600 63.780,168.410 63.600,169.400 63.600 C 170.390 63.600,171.200 63.420,171.200 63.200 C 171.200 62.980,172.100 62.800,173.200 62.800 C 174.300 62.800,175.200 62.620,175.200 62.400 C 175.200 62.180,176.179 62.000,177.376 62.000 C 178.573 62.000,179.664 61.820,179.800 61.600 C 179.936 61.380,180.926 61.200,182.000 61.200 C 183.074 61.200,184.064 61.020,184.200 60.800 C 184.342 60.571,186.404 60.400,189.024 60.400 C 191.808 60.400,193.600 60.243,193.600 60.000 C 193.600 59.747,196.467 59.600,201.400 59.600 C 206.333 59.600,209.200 59.747,209.200 60.000 C 209.200 60.243,211.000 60.400,213.800 60.400 C 216.600 60.400,218.400 60.557,218.400 60.800 C 218.400 61.020,219.289 61.200,220.376 61.200 C 221.463 61.200,222.464 61.380,222.600 61.600 C 222.736 61.820,223.827 62.000,225.024 62.000 C 226.221 62.000,227.200 62.180,227.200 62.400 C 227.200 62.620,228.190 62.800,229.400 62.800 C 230.610 62.800,231.600 62.980,231.600 63.200 C 231.600 63.420,232.320 63.600,233.200 63.600 C 234.080 63.600,234.800 63.780,234.800 64.000 C 234.800 64.220,235.520 64.400,236.400 64.400 C 237.280 64.400,238.000 64.580,238.000 64.800 C 238.000 65.020,238.540 65.200,239.200 65.200 C 239.860 65.200,240.400 65.380,240.400 65.600 C 240.400 65.820,241.019 66.000,241.776 66.000 C 242.533 66.000,243.264 66.180,243.400 66.400 C 243.536 66.620,244.076 66.800,244.600 66.800 C 245.124 66.800,245.664 66.980,245.800 67.200 C 245.936 67.420,246.487 67.600,247.024 67.600 C 247.561 67.600,248.000 67.780,248.000 68.000 C 248.000 68.220,248.540 68.400,249.200 68.400 C 249.860 68.400,250.400 68.580,250.400 68.800 C 250.400 69.020,250.760 69.200,251.200 69.200 C 251.640 69.200,252.000 69.380,252.000 69.600 C 252.000 69.820,252.540 70.000,253.200 70.000 C 253.860 70.000,254.400 70.180,254.400 70.400 C 254.400 70.620,254.749 70.800,255.176 70.800 C 255.603 70.800,256.064 70.980,256.200 71.200 C 256.336 71.420,256.872 71.600,257.390 71.600 C 257.909 71.600,258.393 71.759,258.467 71.953 C 258.643 72.421,264.545 75.200,265.362 75.200 C 265.713 75.200,266.000 75.380,266.000 75.600 C 266.000 75.820,266.360 76.000,266.800 76.000 C 267.240 76.000,267.600 76.180,267.600 76.400 C 267.600 76.620,267.960 76.800,268.400 76.800 C 268.840 76.800,269.200 76.980,269.200 77.200 C 269.200 77.420,269.560 77.600,270.000 77.600 C 270.440 77.600,270.800 77.780,270.800 78.000 C 270.800 78.220,271.036 78.400,271.325 78.400 C 271.613 78.400,272.236 78.760,272.708 79.200 C 273.180 79.640,273.804 80.000,274.095 80.000 C 274.386 80.000,274.883 80.360,275.200 80.800 C 275.517 81.240,276.097 81.600,276.488 81.600 C 276.880 81.600,277.200 81.780,277.200 82.000 C 277.200 82.220,277.404 82.400,277.653 82.400 C 277.902 82.400,278.397 82.716,278.753 83.103 C 279.109 83.489,279.895 84.060,280.500 84.370 C 281.105 84.681,281.600 85.085,281.600 85.268 C 281.600 85.450,281.872 85.600,282.204 85.600 C 282.536 85.600,283.372 86.140,284.063 86.800 C 284.754 87.460,285.474 88.000,285.663 88.000 C 285.852 88.000,286.591 88.558,287.304 89.240 C 288.017 89.923,289.099 90.739,289.709 91.055 C 291.080 91.766,292.531 93.091,299.825 100.300 L 305.593 106.000 338.597 106.000 L 371.600 106.000 371.600 104.800 C 371.600 104.140,371.420 103.600,371.200 103.600 C 370.980 103.600,370.800 103.240,370.800 102.800 C 370.800 102.360,370.641 102.000,370.447 102.000 C 370.252 102.000,369.993 101.685,369.871 101.300 C 369.541 100.258,368.296 98.291,367.500 97.554 C 367.115 97.198,366.800 96.612,366.800 96.253 C 366.800 95.894,366.620 95.600,366.400 95.600 C 366.180 95.600,366.000 95.370,366.000 95.088 C 366.000 94.807,365.640 94.317,365.200 94.000 C 364.760 93.683,364.400 93.143,364.400 92.800 C 364.400 92.457,364.040 91.917,363.600 91.600 C 363.160 91.283,362.800 90.743,362.800 90.400 C 362.800 90.057,362.440 89.517,362.000 89.200 C 361.560 88.883,361.200 88.391,361.200 88.108 C 361.200 87.825,360.660 87.028,360.000 86.337 C 359.340 85.646,358.800 84.846,358.800 84.559 C 358.800 84.271,358.350 83.586,357.800 83.036 C 357.250 82.486,356.797 81.893,356.793 81.718 C 356.784 81.324,355.144 79.291,352.900 76.891 C 351.965 75.891,351.200 74.913,351.200 74.717 C 351.200 74.521,349.940 73.119,348.400 71.600 C 346.860 70.081,345.600 68.650,345.600 68.419 C 345.600 68.189,345.420 68.000,345.200 68.000 C 344.980 68.000,344.800 67.800,344.800 67.556 C 344.800 66.987,332.985 55.200,332.415 55.200 C 332.180 55.200,330.674 53.895,329.070 52.300 C 327.465 50.705,325.623 49.001,324.976 48.514 C 323.448 47.363,321.777 46.025,320.457 44.898 C 319.875 44.401,319.044 43.881,318.608 43.741 C 318.172 43.602,317.335 42.973,316.748 42.344 C 316.160 41.715,315.431 41.200,315.128 41.200 C 314.825 41.200,314.317 40.840,314.000 40.400 C 313.683 39.960,313.143 39.600,312.800 39.600 C 312.457 39.600,311.917 39.240,311.600 38.800 C 311.283 38.360,310.743 38.000,310.400 38.000 C 310.057 38.000,309.517 37.640,309.200 37.200 C 308.883 36.760,308.393 36.400,308.112 36.400 C 307.830 36.400,307.600 36.250,307.600 36.068 C 307.600 35.885,307.105 35.480,306.500 35.168 C 305.895 34.855,305.051 34.285,304.625 33.900 C 304.198 33.515,303.613 33.200,303.325 33.200 C 303.036 33.200,302.800 33.020,302.800 32.800 C 302.800 32.580,302.522 32.400,302.183 32.400 C 301.844 32.400,301.180 32.040,300.708 31.600 C 300.236 31.160,299.613 30.800,299.325 30.800 C 299.036 30.800,298.800 30.620,298.800 30.400 C 298.800 30.180,298.440 30.000,298.000 30.000 C 297.560 30.000,297.200 29.820,297.200 29.600 C 297.200 29.380,296.840 29.200,296.400 29.200 C 295.960 29.200,295.600 29.053,295.600 28.874 C 295.600 28.476,292.999 27.200,292.186 27.200 C 291.864 27.200,291.600 27.020,291.600 26.800 C 291.600 26.580,291.330 26.400,291.000 26.400 C 290.670 26.400,290.400 26.220,290.400 26.000 C 290.400 25.780,290.040 25.600,289.600 25.600 C 289.160 25.600,288.800 25.420,288.800 25.200 C 288.800 24.980,288.440 24.800,288.000 24.800 C 287.560 24.800,287.200 24.620,287.200 24.400 C 287.200 24.180,286.840 24.000,286.400 24.000 C 285.960 24.000,285.600 23.820,285.600 23.600 C 285.600 23.380,285.240 23.200,284.800 23.200 C 284.360 23.200,284.000 23.020,284.000 22.800 C 284.000 22.580,283.728 22.400,283.395 22.400 C 283.062 22.400,282.477 22.243,282.095 22.050 C 279.120 20.552,277.847 20.000,277.362 20.000 C 277.053 20.000,276.800 19.820,276.800 19.600 C 276.800 19.380,276.350 19.200,275.800 19.200 C 275.250 19.200,274.800 19.020,274.800 18.800 C 274.800 18.580,274.350 18.400,273.800 18.400 C 273.250 18.400,272.800 18.220,272.800 18.000 C 272.800 17.780,272.440 17.600,272.000 17.600 C 271.560 17.600,271.200 17.420,271.200 17.200 C 271.200 16.980,270.761 16.800,270.224 16.800 C 269.687 16.800,269.136 16.620,269.000 16.400 C 268.864 16.180,268.313 16.000,267.776 16.000 C 267.239 16.000,266.800 15.820,266.800 15.600 C 266.800 15.380,266.260 15.200,265.600 15.200 C 264.940 15.200,264.400 15.020,264.400 14.800 C 264.400 14.580,263.860 14.400,263.200 14.400 C 262.540 14.400,262.000 14.220,262.000 14.000 C 262.000 13.780,261.561 13.600,261.024 13.600 C 260.487 13.600,259.936 13.420,259.800 13.200 C 259.664 12.980,259.124 12.800,258.600 12.800 C 258.076 12.800,257.536 12.620,257.400 12.400 C 257.264 12.180,256.544 12.000,255.800 12.000 C 255.056 12.000,254.336 11.820,254.200 11.600 C 254.064 11.380,253.434 11.200,252.800 11.200 C 252.166 11.200,251.544 11.033,251.417 10.828 C 251.291 10.623,250.155 10.345,248.894 10.208 C 247.632 10.072,246.287 9.790,245.905 9.580 C 245.523 9.371,244.589 9.200,243.829 9.200 C 243.069 9.200,242.336 9.020,242.200 8.800 C 242.064 8.580,241.063 8.400,239.976 8.400 C 238.889 8.400,238.000 8.220,238.000 8.000 C 238.000 7.780,237.111 7.600,236.024 7.600 C 234.937 7.600,233.936 7.420,233.800 7.200 C 233.664 6.980,232.753 6.800,231.776 6.800 C 230.799 6.800,230.000 6.620,230.000 6.400 C 230.000 6.167,228.667 6.000,226.800 6.000 C 224.933 6.000,223.600 5.833,223.600 5.600 C 223.600 5.357,221.800 5.200,219.000 5.200 C 216.200 5.200,214.400 5.043,214.400 4.800 C 214.400 4.541,209.541 4.400,200.624 4.400 C 191.871 4.400,186.757 4.546,186.600 4.800 M31.446 100.986 C 31.091 101.528,30.800 102.158,30.800 102.386 C 30.800 102.614,30.620 102.800,30.400 102.800 C 30.180 102.800,30.000 103.145,30.000 103.567 C 30.000 103.988,29.843 104.393,29.651 104.467 C 29.179 104.647,27.200 108.619,27.200 109.387 C 27.200 109.724,27.020 110.000,26.800 110.000 C 26.580 110.000,26.400 110.360,26.400 110.800 C 26.400 111.240,26.220 111.600,26.000 111.600 C 25.780 111.600,25.600 111.870,25.600 112.200 C 25.600 112.530,25.420 112.800,25.200 112.800 C 24.980 112.800,24.800 113.160,24.800 113.600 C 24.800 114.040,24.620 114.400,24.400 114.400 C 24.180 114.400,24.000 114.749,24.000 115.176 C 24.000 115.603,23.820 116.064,23.600 116.200 C 23.380 116.336,23.200 116.804,23.200 117.240 C 23.200 117.677,22.840 118.420,22.400 118.892 C 21.960 119.364,21.600 120.167,21.600 120.675 C 21.600 121.184,21.420 121.600,21.200 121.600 C 20.980 121.600,20.800 121.960,20.800 122.400 C 20.800 122.840,20.620 123.200,20.400 123.200 C 20.180 123.200,20.000 123.740,20.000 124.400 C 20.000 125.060,19.820 125.600,19.600 125.600 C 19.380 125.600,19.200 125.960,19.200 126.400 C 19.200 126.840,19.020 127.200,18.800 127.200 C 18.580 127.200,18.400 127.472,18.400 127.805 C 18.400 128.138,18.220 128.768,18.000 129.205 C 17.780 129.642,17.420 130.358,17.200 130.795 C 16.980 131.232,16.800 131.952,16.800 132.395 C 16.800 132.838,16.620 133.200,16.400 133.200 C 16.180 133.200,16.000 133.740,16.000 134.400 C 16.000 135.060,15.864 135.600,15.697 135.600 C 15.331 135.600,14.400 138.467,14.400 139.594 C 14.400 140.037,14.220 140.400,14.000 140.400 C 13.780 140.400,13.600 140.940,13.600 141.600 C 13.600 142.260,13.420 142.800,13.200 142.800 C 12.980 142.800,12.800 143.342,12.800 144.005 C 12.800 144.668,12.641 145.523,12.446 145.905 C 11.573 147.618,10.429 152.049,10.175 154.700 C 10.022 156.295,9.740 157.600,9.548 157.600 C 9.357 157.600,9.200 158.500,9.200 159.600 C 9.200 160.700,9.020 161.600,8.800 161.600 C 8.580 161.600,8.400 162.320,8.400 163.200 C 8.400 164.080,8.220 164.800,8.000 164.800 C 7.780 164.800,7.600 165.779,7.600 166.976 C 7.600 168.173,7.420 169.264,7.200 169.400 C 6.980 169.536,6.800 170.976,6.800 172.600 C 6.800 174.224,6.620 175.664,6.400 175.800 C 6.177 175.938,6.000 177.804,6.000 180.024 C 6.000 182.408,5.840 184.000,5.600 184.000 C 5.340 184.000,5.200 189.600,5.200 200.000 C 5.200 210.400,5.340 216.000,5.600 216.000 C 5.841 216.000,6.000 217.667,6.000 220.200 C 6.000 222.733,6.159 224.400,6.400 224.400 C 6.631 224.400,6.800 225.659,6.800 227.376 C 6.800 229.013,6.980 230.464,7.200 230.600 C 7.420 230.736,7.600 231.816,7.600 233.000 C 7.600 234.184,7.780 235.264,8.000 235.400 C 8.220 235.536,8.400 236.256,8.400 237.000 C 8.400 237.744,8.580 238.464,8.800 238.600 C 9.020 238.736,9.200 239.647,9.200 240.624 C 9.200 241.601,9.357 242.400,9.548 242.400 C 9.740 242.400,10.022 243.705,10.175 245.300 C 10.429 247.951,11.573 252.382,12.446 254.095 C 12.641 254.477,12.800 255.321,12.800 255.971 C 12.800 256.621,12.980 257.264,13.200 257.400 C 13.420 257.536,13.600 258.087,13.600 258.624 C 13.600 259.161,13.780 259.600,14.000 259.600 C 14.220 259.600,14.400 260.219,14.400 260.976 C 14.400 261.733,14.580 262.464,14.800 262.600 C 15.020 262.736,15.200 263.197,15.200 263.624 C 15.200 264.051,15.380 264.400,15.600 264.400 C 15.820 264.400,16.000 264.940,16.000 265.600 C 16.000 266.260,16.180 266.800,16.400 266.800 C 16.620 266.800,16.800 267.239,16.800 267.776 C 16.800 268.313,16.980 268.864,17.200 269.000 C 17.420 269.136,17.600 269.687,17.600 270.224 C 17.600 270.761,17.780 271.200,18.000 271.200 C 18.220 271.200,18.400 271.549,18.400 271.976 C 18.400 272.403,18.580 272.864,18.800 273.000 C 19.020 273.136,19.200 273.597,19.200 274.024 C 19.200 274.451,19.380 274.800,19.600 274.800 C 19.820 274.800,20.000 275.250,20.000 275.800 C 20.000 276.350,20.180 276.800,20.400 276.800 C 20.620 276.800,20.800 277.160,20.800 277.600 C 20.800 278.040,20.980 278.400,21.200 278.400 C 21.420 278.400,21.600 278.816,21.600 279.325 C 21.600 279.833,21.960 280.636,22.400 281.108 C 22.840 281.580,23.200 282.244,23.200 282.583 C 23.200 282.922,23.380 283.200,23.600 283.200 C 23.820 283.200,24.000 283.740,24.000 284.400 C 24.000 285.060,24.180 285.600,24.400 285.600 C 24.620 285.600,24.800 285.960,24.800 286.400 C 24.800 286.840,24.980 287.200,25.200 287.200 C 25.420 287.200,25.600 287.560,25.600 288.000 C 25.600 288.440,25.780 288.800,26.000 288.800 C 26.220 288.800,26.400 289.070,26.400 289.400 C 26.400 289.730,26.580 290.000,26.800 290.000 C 27.020 290.000,27.200 290.276,27.200 290.613 C 27.200 291.381,29.179 295.353,29.651 295.533 C 29.843 295.607,30.000 296.012,30.000 296.433 C 30.000 296.855,30.159 297.200,30.353 297.200 C 30.548 297.200,30.807 297.515,30.929 297.900 C 31.146 298.587,32.405 300.806,32.801 301.200 C 32.911 301.310,33.256 301.895,33.568 302.500 C 33.880 303.105,34.285 303.600,34.468 303.600 C 34.650 303.600,34.800 303.960,34.800 304.400 C 34.800 304.840,34.980 305.200,35.200 305.200 C 35.420 305.200,35.600 305.470,35.600 305.800 C 35.600 306.130,35.780 306.400,36.000 306.400 C 36.220 306.400,36.400 306.630,36.400 306.912 C 36.400 307.193,36.760 307.683,37.200 308.000 C 37.640 308.317,38.000 308.807,38.000 309.088 C 38.000 309.370,38.180 309.600,38.400 309.600 C 38.620 309.600,38.800 309.888,38.800 310.240 C 38.800 310.591,39.340 311.383,40.000 312.000 C 40.660 312.617,41.200 313.369,41.200 313.672 C 41.200 313.975,41.560 314.483,42.000 314.800 C 42.440 315.117,42.800 315.614,42.800 315.905 C 42.800 316.449,43.143 316.936,44.700 318.601 C 45.195 319.130,45.600 319.730,45.600 319.934 C 45.600 320.137,46.320 321.045,47.200 321.952 C 48.080 322.859,48.800 323.727,48.800 323.880 C 48.800 324.034,49.700 325.004,50.800 326.037 C 51.900 327.070,52.800 328.116,52.800 328.362 C 52.800 328.609,54.501 330.563,56.579 332.705 C 58.658 334.847,61.583 337.890,63.079 339.468 C 64.576 341.045,65.944 342.350,66.119 342.368 C 66.295 342.385,67.681 343.660,69.200 345.200 C 70.719 346.740,72.162 348.000,72.407 348.000 C 72.652 348.000,73.729 348.900,74.800 350.000 C 75.871 351.100,76.850 352.000,76.974 352.000 C 77.098 352.000,77.941 352.720,78.848 353.600 C 79.755 354.480,80.665 355.200,80.870 355.200 C 81.075 355.200,81.819 355.739,82.522 356.398 C 83.225 357.057,83.948 357.597,84.129 357.598 C 84.309 357.599,84.708 357.825,85.015 358.100 C 86.012 358.994,86.581 359.390,87.700 359.968 C 88.305 360.280,88.800 360.685,88.800 360.868 C 88.800 361.050,89.120 361.200,89.512 361.200 C 89.903 361.200,90.483 361.560,90.800 362.000 C 91.117 362.440,91.657 362.800,92.000 362.800 C 92.343 362.800,92.883 363.160,93.200 363.600 C 93.517 364.040,93.924 364.400,94.105 364.400 C 94.286 364.400,94.820 364.760,95.292 365.200 C 95.764 365.640,96.387 366.000,96.675 366.000 C 96.964 366.000,97.200 366.180,97.200 366.400 C 97.200 366.620,97.470 366.800,97.800 366.800 C 98.130 366.800,98.400 366.980,98.400 367.200 C 98.400 367.420,98.670 367.600,99.000 367.600 C 99.330 367.600,99.600 367.780,99.600 368.000 C 99.600 368.220,99.960 368.400,100.400 368.400 C 100.840 368.400,101.200 368.580,101.200 368.800 C 101.200 369.020,101.478 369.200,101.817 369.200 C 102.156 369.200,102.820 369.560,103.292 370.000 C 103.764 370.440,104.387 370.800,104.675 370.800 C 104.964 370.800,105.200 370.980,105.200 371.200 C 105.200 371.420,105.560 371.600,106.000 371.600 C 106.440 371.600,106.800 371.780,106.800 372.000 C 106.800 372.220,107.160 372.400,107.600 372.400 C 108.040 372.400,108.400 372.580,108.400 372.800 C 108.400 373.020,108.745 373.200,109.167 373.200 C 109.588 373.200,109.993 373.337,110.067 373.504 C 110.287 374.006,114.417 376.000,115.237 376.000 C 115.657 376.000,116.000 376.180,116.000 376.400 C 116.000 376.620,116.360 376.800,116.800 376.800 C 117.240 376.800,117.600 376.980,117.600 377.200 C 117.600 377.420,117.870 377.600,118.200 377.600 C 118.530 377.600,118.800 377.780,118.800 378.000 C 118.800 378.220,119.250 378.400,119.800 378.400 C 120.350 378.400,120.800 378.580,120.800 378.800 C 120.800 379.020,121.160 379.200,121.600 379.200 C 122.040 379.200,122.400 379.380,122.400 379.600 C 122.400 379.820,122.940 380.000,123.600 380.000 C 124.260 380.000,124.800 380.180,124.800 380.400 C 124.800 380.620,125.160 380.800,125.600 380.800 C 126.040 380.800,126.400 380.980,126.400 381.200 C 126.400 381.420,126.760 381.600,127.200 381.600 C 127.640 381.600,128.000 381.780,128.000 382.000 C 128.000 382.220,128.450 382.400,129.000 382.400 C 129.550 382.400,130.000 382.580,130.000 382.800 C 130.000 383.020,130.540 383.200,131.200 383.200 C 131.860 383.200,132.400 383.380,132.400 383.600 C 132.400 383.820,132.940 384.000,133.600 384.000 C 134.260 384.000,134.800 384.180,134.800 384.400 C 134.800 384.620,135.149 384.800,135.576 384.800 C 136.003 384.800,136.464 384.980,136.600 385.200 C 136.736 385.420,137.287 385.600,137.824 385.600 C 138.361 385.600,138.800 385.780,138.800 386.000 C 138.800 386.220,139.340 386.400,140.000 386.400 C 140.660 386.400,141.200 386.580,141.200 386.800 C 141.200 387.020,141.819 387.200,142.576 387.200 C 143.333 387.200,144.064 387.380,144.200 387.600 C 144.336 387.820,144.941 388.000,145.544 388.000 C 146.147 388.000,146.811 388.149,147.020 388.330 C 147.229 388.512,148.210 388.884,149.200 389.158 C 150.190 389.431,151.553 389.822,152.228 390.027 C 152.904 390.232,154.029 390.400,154.728 390.400 C 155.428 390.400,156.000 390.559,156.000 390.753 C 156.000 390.947,157.349 391.232,158.997 391.387 C 160.646 391.541,162.096 391.833,162.221 392.034 C 162.345 392.235,163.337 392.400,164.424 392.400 C 165.511 392.400,166.400 392.580,166.400 392.800 C 166.400 393.025,167.525 393.200,168.976 393.200 C 170.393 393.200,171.664 393.380,171.800 393.600 C 171.936 393.820,173.466 394.000,175.200 394.000 C 176.934 394.000,178.464 394.180,178.600 394.400 C 179.063 395.150,188.000 394.909,188.000 394.147 C 188.000 393.788,188.329 393.203,188.730 392.847 C 189.132 392.491,189.716 391.615,190.028 390.900 C 190.340 390.185,190.731 389.600,190.898 389.600 C 191.064 389.600,191.200 389.253,191.200 388.829 C 191.200 388.404,191.470 387.787,191.800 387.457 C 192.130 387.127,192.400 386.657,192.400 386.412 C 192.400 386.167,192.760 385.580,193.200 385.108 C 193.640 384.636,194.000 384.013,194.000 383.725 C 194.000 383.436,194.180 383.200,194.400 383.200 C 194.620 383.200,194.800 382.840,194.800 382.400 C 194.800 381.960,194.980 381.600,195.200 381.600 C 195.420 381.600,195.600 381.364,195.600 381.075 C 195.600 380.787,195.960 380.164,196.400 379.692 C 196.840 379.220,197.200 378.556,197.200 378.217 C 197.200 377.878,197.380 377.600,197.600 377.600 C 197.820 377.600,198.000 377.240,198.000 376.800 C 198.000 376.360,198.180 376.000,198.400 376.000 C 198.620 376.000,198.800 375.730,198.800 375.400 C 198.800 375.070,198.980 374.800,199.200 374.800 C 199.420 374.800,199.600 374.530,199.600 374.200 C 199.600 373.870,199.780 373.600,200.000 373.600 C 200.220 373.600,200.400 373.330,200.400 373.000 C 200.400 372.670,200.580 372.400,200.800 372.400 C 201.020 372.400,201.200 372.040,201.200 371.600 C 201.200 371.160,201.380 370.800,201.600 370.800 C 201.820 370.800,202.000 370.440,202.000 370.000 C 202.000 369.560,202.158 369.200,202.351 369.200 C 202.545 369.200,202.927 368.660,203.200 368.000 C 203.473 367.340,203.855 366.800,204.049 366.800 C 204.242 366.800,204.400 366.440,204.400 366.000 C 204.400 365.560,204.580 365.200,204.800 365.200 C 205.020 365.200,205.200 364.840,205.200 364.400 C 205.200 363.960,205.380 363.600,205.600 363.600 C 205.820 363.600,206.000 363.364,206.000 363.075 C 206.000 362.787,206.360 362.164,206.800 361.692 C 207.240 361.220,207.600 360.556,207.600 360.217 C 207.600 359.878,207.753 359.600,207.940 359.600 C 208.127 359.600,208.613 358.790,209.022 357.800 C 209.430 356.810,209.907 356.000,210.082 356.000 C 210.257 356.000,210.400 355.730,210.400 355.400 C 210.400 355.070,210.580 354.800,210.800 354.800 C 211.020 354.800,211.200 354.530,211.200 354.200 C 211.200 353.870,211.380 353.600,211.600 353.600 C 211.820 353.600,212.000 353.240,212.000 352.800 C 212.000 352.360,212.180 352.000,212.400 352.000 C 212.620 352.000,212.800 351.722,212.800 351.383 C 212.800 351.044,213.160 350.380,213.600 349.908 C 214.040 349.436,214.400 348.813,214.400 348.525 C 214.400 348.236,214.580 348.000,214.800 348.000 C 215.020 348.000,215.200 347.640,215.200 347.200 C 215.200 346.760,215.380 346.400,215.600 346.400 C 215.820 346.400,216.000 346.040,216.000 345.600 C 216.000 345.160,216.180 344.800,216.400 344.800 C 216.620 344.800,216.800 344.350,216.800 343.800 C 216.800 342.812,216.760 342.800,213.400 342.800 C 211.400 342.800,210.000 342.965,210.000 343.200 C 210.000 343.455,206.800 343.600,201.200 343.600 C 195.600 343.600,192.400 343.455,192.400 343.200 C 192.400 342.959,190.733 342.800,188.200 342.800 C 185.667 342.800,184.000 342.641,184.000 342.400 C 184.000 342.167,182.667 342.000,180.800 342.000 C 178.933 342.000,177.600 341.833,177.600 341.600 C 177.600 341.380,177.071 341.200,176.424 341.200 C 175.777 341.200,175.136 341.020,175.000 340.800 C 174.864 340.580,173.863 340.400,172.776 340.400 C 171.689 340.400,170.800 340.220,170.800 340.000 C 170.800 339.780,170.091 339.600,169.224 339.600 C 168.357 339.600,167.536 339.420,167.400 339.200 C 167.264 338.980,166.353 338.800,165.376 338.800 C 164.399 338.800,163.600 338.620,163.600 338.400 C 163.600 338.180,163.060 338.000,162.400 338.000 C 161.740 338.000,161.200 337.820,161.200 337.600 C 161.200 337.380,160.761 337.200,160.224 337.200 C 159.687 337.200,159.136 337.020,159.000 336.800 C 158.864 336.580,158.324 336.400,157.800 336.400 C 157.276 336.400,156.736 336.220,156.600 336.000 C 156.464 335.780,155.913 335.600,155.376 335.600 C 154.839 335.600,154.400 335.420,154.400 335.200 C 154.400 334.980,153.860 334.800,153.200 334.800 C 152.540 334.800,152.000 334.620,152.000 334.400 C 152.000 334.180,151.550 334.000,151.000 334.000 C 150.450 334.000,150.000 333.820,150.000 333.600 C 150.000 333.380,149.550 333.200,149.000 333.200 C 148.450 333.200,148.000 333.020,148.000 332.800 C 148.000 332.580,147.640 332.400,147.200 332.400 C 146.760 332.400,146.400 332.220,146.400 332.000 C 146.400 331.780,145.860 331.600,145.200 331.600 C 144.540 331.600,144.000 331.420,144.000 331.200 C 144.000 330.980,143.640 330.800,143.200 330.800 C 142.760 330.800,142.400 330.620,142.400 330.400 C 142.400 330.180,142.055 330.000,141.633 330.000 C 141.212 330.000,140.807 329.858,140.733 329.685 C 140.539 329.228,136.237 327.200,135.460 327.200 C 135.097 327.200,134.800 327.020,134.800 326.800 C 134.800 326.580,134.440 326.400,134.000 326.400 C 133.560 326.400,133.200 326.220,133.200 326.000 C 133.200 325.780,132.922 325.600,132.583 325.600 C 132.244 325.600,131.580 325.240,131.108 324.800 C 130.636 324.360,130.013 324.000,129.725 324.000 C 129.436 324.000,129.200 323.820,129.200 323.600 C 129.200 323.380,128.964 323.200,128.675 323.200 C 128.387 323.200,127.764 322.840,127.292 322.400 C 126.820 321.960,126.156 321.600,125.817 321.600 C 125.478 321.600,125.200 321.420,125.200 321.200 C 125.200 320.980,124.930 320.800,124.600 320.800 C 124.270 320.800,124.000 320.662,124.000 320.494 C 124.000 320.326,123.280 319.744,122.400 319.200 C 121.520 318.656,120.800 318.074,120.800 317.906 C 120.800 317.738,120.573 317.600,120.296 317.600 C 120.018 317.600,119.073 316.973,118.196 316.208 C 117.318 315.442,116.473 314.812,116.318 314.808 C 116.163 314.803,115.586 314.350,115.036 313.800 C 114.486 313.250,113.842 312.800,113.605 312.800 C 113.368 312.800,112.559 312.215,111.808 311.500 C 110.061 309.835,109.289 309.200,109.014 309.200 C 108.730 309.200,94.000 294.474,94.000 294.189 C 94.000 294.071,93.415 293.359,92.700 292.608 C 90.889 290.707,90.400 290.087,90.400 289.692 C 90.400 289.505,90.080 289.002,89.689 288.575 C 89.298 288.149,88.538 287.170,88.000 286.400 C 87.462 285.630,86.702 284.651,86.311 284.225 C 85.920 283.798,85.600 283.279,85.600 283.071 C 85.600 282.864,85.284 282.403,84.897 282.047 C 84.511 281.691,83.940 280.905,83.630 280.300 C 83.319 279.695,82.915 279.200,82.732 279.200 C 82.550 279.200,82.400 279.013,82.400 278.784 C 82.400 278.310,80.755 275.869,80.300 275.667 C 80.135 275.593,80.000 275.228,80.000 274.855 C 80.000 274.482,79.640 273.917,79.200 273.600 C 78.760 273.283,78.400 272.703,78.400 272.312 C 78.400 271.920,78.220 271.600,78.000 271.600 C 77.780 271.600,77.600 271.240,77.600 270.800 C 77.600 270.360,77.420 270.000,77.200 270.000 C 76.980 270.000,76.800 269.640,76.800 269.200 C 76.800 268.760,76.620 268.400,76.400 268.400 C 76.180 268.400,76.000 268.040,76.000 267.600 C 76.000 267.160,75.820 266.800,75.600 266.800 C 75.380 266.800,75.200 266.513,75.200 266.162 C 75.200 265.456,73.973 263.077,73.500 262.867 C 73.335 262.793,73.200 262.399,73.200 261.990 C 73.200 261.582,73.020 261.136,72.800 261.000 C 72.580 260.864,72.400 260.403,72.400 259.976 C 72.400 259.549,72.264 259.200,72.098 259.200 C 71.932 259.200,71.572 258.570,71.298 257.800 C 71.024 257.030,70.576 255.770,70.302 255.000 C 70.028 254.230,69.668 253.600,69.502 253.600 C 69.336 253.600,69.200 253.161,69.200 252.624 C 69.200 252.087,69.020 251.536,68.800 251.400 C 68.580 251.264,68.400 250.713,68.400 250.176 C 68.400 249.639,68.220 249.200,68.000 249.200 C 67.780 249.200,67.600 248.660,67.600 248.000 C 67.600 247.340,67.420 246.800,67.200 246.800 C 66.980 246.800,66.800 246.451,66.800 246.024 C 66.800 245.597,66.620 245.136,66.400 245.000 C 66.180 244.864,66.000 244.313,66.000 243.776 C 66.000 243.239,65.820 242.800,65.600 242.800 C 65.380 242.800,65.200 242.080,65.200 241.200 C 65.200 240.320,65.020 239.600,64.800 239.600 C 64.580 239.600,64.400 238.880,64.400 238.000 C 64.400 237.120,64.220 236.400,64.000 236.400 C 63.780 236.400,63.600 235.691,63.600 234.824 C 63.600 233.957,63.420 233.136,63.200 233.000 C 62.980 232.864,62.800 232.234,62.800 231.600 C 62.800 230.966,62.620 230.336,62.400 230.200 C 62.180 230.064,62.000 229.153,62.000 228.176 C 62.000 227.199,61.820 226.400,61.600 226.400 C 61.371 226.400,61.200 225.200,61.200 223.600 C 61.200 222.000,61.029 220.800,60.800 220.800 C 60.559 220.800,60.400 219.133,60.400 216.600 C 60.400 214.067,60.241 212.400,60.000 212.400 C 59.743 212.400,59.600 208.533,59.600 201.600 C 59.600 194.667,59.743 190.800,60.000 190.800 C 60.238 190.800,60.400 189.275,60.400 187.024 C 60.400 184.937,60.579 183.137,60.800 183.000 C 61.020 182.864,61.200 181.413,61.200 179.776 C 61.200 178.059,61.369 176.800,61.600 176.800 C 61.820 176.800,62.000 176.001,62.000 175.024 C 62.000 174.047,62.180 173.136,62.400 173.000 C 62.620 172.864,62.800 172.234,62.800 171.600 C 62.800 170.966,62.980 170.336,63.200 170.200 C 63.420 170.064,63.600 169.243,63.600 168.376 C 63.600 167.509,63.780 166.800,64.000 166.800 C 64.220 166.800,64.400 166.080,64.400 165.200 C 64.400 164.320,64.580 163.600,64.800 163.600 C 65.020 163.600,65.200 162.880,65.200 162.000 C 65.200 161.120,65.380 160.400,65.600 160.400 C 65.820 160.400,66.000 159.410,66.000 158.200 C 66.000 156.990,65.820 156.000,65.600 156.000 C 65.380 156.000,65.200 155.640,65.200 155.200 C 65.200 154.760,65.020 154.400,64.800 154.400 C 64.580 154.400,64.400 154.040,64.400 153.600 C 64.400 153.160,64.220 152.800,64.000 152.800 C 63.780 152.800,63.600 152.564,63.600 152.275 C 63.600 151.987,63.240 151.364,62.800 150.892 C 62.360 150.420,62.000 149.756,62.000 149.417 C 62.000 149.078,61.820 148.800,61.600 148.800 C 61.380 148.800,61.200 148.440,61.200 148.000 C 61.200 147.560,61.020 147.200,60.800 147.200 C 60.580 147.200,60.400 146.930,60.400 146.600 C 60.400 146.270,60.220 146.000,60.000 146.000 C 59.780 146.000,59.600 145.730,59.600 145.400 C 59.600 145.070,59.420 144.800,59.200 144.800 C 58.980 144.800,58.800 144.593,58.800 144.340 C 58.800 143.647,56.680 139.600,56.316 139.600 C 56.142 139.600,56.000 139.322,56.000 138.983 C 56.000 138.644,55.640 137.980,55.200 137.508 C 54.760 137.036,54.400 136.413,54.400 136.125 C 54.400 135.836,54.220 135.600,54.000 135.600 C 53.780 135.600,53.600 135.240,53.600 134.800 C 53.600 134.360,53.420 134.000,53.200 134.000 C 52.980 134.000,52.800 133.764,52.800 133.475 C 52.800 133.187,52.440 132.564,52.000 132.092 C 51.560 131.620,51.200 130.956,51.200 130.617 C 51.200 130.278,51.020 130.000,50.800 130.000 C 50.580 130.000,50.400 129.640,50.400 129.200 C 50.400 128.760,50.220 128.400,50.000 128.400 C 49.780 128.400,49.600 128.170,49.600 127.888 C 49.600 127.607,49.240 127.117,48.800 126.800 C 48.360 126.483,48.000 125.903,48.000 125.512 C 48.000 125.120,47.820 124.800,47.600 124.800 C 47.380 124.800,47.200 124.440,47.200 124.000 C 47.200 123.560,47.020 123.200,46.800 123.200 C 46.580 123.200,46.400 122.840,46.400 122.400 C 46.400 121.960,46.220 121.600,46.000 121.600 C 45.780 121.600,45.600 121.364,45.600 121.075 C 45.600 120.787,45.240 120.164,44.800 119.692 C 44.360 119.220,44.000 118.556,44.000 118.217 C 44.000 117.878,43.820 117.600,43.600 117.600 C 43.380 117.600,43.200 117.240,43.200 116.800 C 43.200 116.360,43.065 115.998,42.900 115.995 C 42.735 115.993,42.241 115.228,41.801 114.295 C 41.362 113.363,40.687 112.251,40.301 111.825 C 39.916 111.398,39.600 110.813,39.600 110.525 C 39.600 110.236,39.420 110.000,39.200 110.000 C 38.980 110.000,38.800 109.640,38.800 109.200 C 38.800 108.760,38.620 108.400,38.400 108.400 C 38.180 108.400,38.000 108.164,38.000 107.875 C 38.000 107.587,37.640 106.964,37.200 106.492 C 36.760 106.020,36.400 105.356,36.400 105.017 C 36.400 104.678,36.220 104.400,36.000 104.400 C 35.780 104.400,35.600 104.040,35.600 103.600 C 35.600 103.160,35.450 102.800,35.268 102.800 C 35.085 102.800,34.680 102.305,34.368 101.700 C 33.346 99.717,32.425 99.492,31.446 100.986 M314.400 115.805 C 314.400 116.528,315.166 117.957,316.003 118.796 C 316.334 119.128,316.860 119.895,317.170 120.500 C 317.481 121.105,317.885 121.600,318.068 121.600 C 318.250 121.600,318.400 121.870,318.400 122.200 C 318.400 122.530,318.580 122.800,318.800 122.800 C 319.020 122.800,319.200 123.070,319.200 123.400 C 319.200 123.730,319.380 124.000,319.600 124.000 C 319.820 124.000,320.000 124.230,320.000 124.512 C 320.000 124.793,320.360 125.283,320.800 125.600 C 321.240 125.917,321.600 126.457,321.600 126.800 C 321.600 127.143,321.960 127.683,322.400 128.000 C 322.840 128.317,323.200 128.897,323.200 129.288 C 323.200 129.680,323.380 130.000,323.600 130.000 C 323.820 130.000,324.000 130.320,324.000 130.712 C 324.000 131.103,324.360 131.683,324.800 132.000 C 325.240 132.317,325.600 132.897,325.600 133.288 C 325.600 133.680,325.780 134.000,326.000 134.000 C 326.220 134.000,326.400 134.450,326.400 135.000 C 326.400 135.550,326.580 136.000,326.800 136.000 C 327.020 136.000,327.200 136.271,327.200 136.603 C 327.200 137.294,329.248 141.332,329.700 141.533 C 329.865 141.607,330.000 142.006,330.000 142.421 C 330.000 142.836,330.360 143.817,330.800 144.600 C 331.240 145.383,331.600 146.289,331.600 146.612 C 331.600 146.935,331.780 147.200,332.000 147.200 C 332.220 147.200,332.400 147.639,332.400 148.176 C 332.400 148.713,332.580 149.264,332.800 149.400 C 333.020 149.536,333.200 149.997,333.200 150.424 C 333.200 150.851,333.380 151.200,333.600 151.200 C 333.820 151.200,334.000 151.740,334.000 152.400 C 334.000 153.060,334.180 153.600,334.400 153.600 C 334.620 153.600,334.800 153.949,334.800 154.376 C 334.800 154.803,334.980 155.264,335.200 155.400 C 335.420 155.536,335.600 156.087,335.600 156.624 C 335.600 157.161,335.780 157.600,336.000 157.600 C 336.220 157.600,336.400 158.230,336.400 159.000 C 336.400 159.770,336.580 160.400,336.800 160.400 C 337.020 160.400,337.200 161.019,337.200 161.776 C 337.200 162.533,337.380 163.264,337.600 163.400 C 337.820 163.536,338.000 164.256,338.000 165.000 C 338.000 165.744,338.180 166.464,338.400 166.600 C 338.620 166.736,338.800 167.287,338.800 167.824 C 338.800 168.361,338.980 168.800,339.200 168.800 C 339.420 168.800,339.600 169.610,339.600 170.600 C 339.600 171.590,339.780 172.400,340.000 172.400 C 340.220 172.400,340.400 173.390,340.400 174.600 C 340.400 175.810,340.580 176.800,340.800 176.800 C 341.021 176.800,341.200 177.840,341.200 179.120 C 341.200 180.396,341.367 181.611,341.571 181.820 C 341.936 182.194,342.165 184.700,342.629 193.400 C 342.758 195.820,343.030 197.971,343.232 198.180 C 343.730 198.695,343.702 204.690,343.200 205.000 C 342.971 205.141,342.800 207.196,342.800 209.800 C 342.800 212.404,342.629 214.459,342.400 214.600 C 342.180 214.736,342.000 216.367,342.000 218.224 C 342.000 220.208,341.835 221.600,341.600 221.600 C 341.375 221.600,341.200 222.725,341.200 224.176 C 341.200 225.593,341.020 226.864,340.800 227.000 C 340.580 227.136,340.400 228.047,340.400 229.024 C 340.400 230.001,340.220 230.800,340.000 230.800 C 339.780 230.800,339.600 231.700,339.600 232.800 C 339.600 233.900,339.420 234.800,339.200 234.800 C 338.980 234.800,338.800 235.239,338.800 235.776 C 338.800 236.313,338.620 236.864,338.400 237.000 C 338.180 237.136,338.000 237.856,338.000 238.600 C 338.000 239.344,337.820 240.064,337.600 240.200 C 337.380 240.336,337.200 240.977,337.200 241.624 C 337.200 242.271,337.020 242.800,336.800 242.800 C 336.580 242.800,336.400 243.430,336.400 244.200 C 336.400 244.970,336.220 245.600,336.000 245.600 C 335.780 245.600,335.600 246.140,335.600 246.800 C 335.600 247.460,335.420 248.000,335.200 248.000 C 334.980 248.000,334.800 248.349,334.800 248.776 C 334.800 249.203,334.620 249.664,334.400 249.800 C 334.180 249.936,334.000 250.487,334.000 251.024 C 334.000 251.561,333.820 252.000,333.600 252.000 C 333.380 252.000,333.200 252.540,333.200 253.200 C 333.200 253.860,333.020 254.400,332.800 254.400 C 332.580 254.400,332.400 254.760,332.400 255.200 C 332.400 255.640,332.220 256.000,332.000 256.000 C 331.780 256.000,331.600 256.253,331.600 256.562 C 331.600 256.871,331.258 257.816,330.839 258.662 C 328.477 263.436,327.200 266.337,327.200 266.930 C 327.200 267.298,327.020 267.600,326.800 267.600 C 326.580 267.600,326.400 267.960,326.400 268.400 C 326.400 268.840,326.220 269.200,326.000 269.200 C 325.780 269.200,325.600 269.520,325.600 269.912 C 325.600 270.303,325.240 270.883,324.800 271.200 C 324.360 271.517,324.000 272.097,324.000 272.488 C 324.000 272.880,323.820 273.200,323.600 273.200 C 323.380 273.200,323.200 273.520,323.200 273.912 C 323.200 274.303,322.840 274.883,322.400 275.200 C 321.960 275.517,321.600 276.020,321.600 276.317 C 321.600 276.614,321.375 277.094,321.100 277.384 C 319.879 278.670,319.200 279.647,319.200 280.116 C 319.200 280.395,318.840 280.883,318.400 281.200 C 317.960 281.517,317.600 281.980,317.600 282.229 C 317.600 282.478,317.060 283.246,316.400 283.937 C 315.740 284.628,315.200 285.398,315.200 285.649 C 315.200 285.901,314.876 286.397,314.481 286.753 C 314.086 287.109,313.325 288.030,312.790 288.800 C 312.255 289.570,311.453 290.596,311.009 291.081 C 309.731 292.472,309.200 293.149,309.200 293.386 C 309.200 293.506,305.690 297.115,301.400 301.405 C 297.110 305.695,293.600 309.384,293.600 309.603 C 293.600 309.821,293.245 310.000,292.811 310.000 C 292.376 310.000,291.211 310.810,290.221 311.800 C 289.231 312.790,288.235 313.600,288.007 313.600 C 287.779 313.600,287.028 314.140,286.337 314.800 C 285.646 315.460,284.878 316.000,284.629 316.000 C 284.380 316.000,283.917 316.360,283.600 316.800 C 283.283 317.240,282.769 317.600,282.459 317.600 C 282.148 317.600,281.603 317.916,281.247 318.303 C 280.891 318.689,280.105 319.260,279.500 319.570 C 278.895 319.881,278.400 320.285,278.400 320.468 C 278.400 320.650,278.130 320.800,277.800 320.800 C 277.470 320.800,277.200 320.980,277.200 321.200 C 277.200 321.420,276.975 321.600,276.700 321.601 C 276.425 321.601,275.570 322.141,274.800 322.800 C 274.030 323.459,273.175 323.999,272.900 323.999 C 272.625 324.000,272.400 324.180,272.400 324.400 C 272.400 324.620,272.040 324.800,271.600 324.800 C 271.160 324.800,270.800 324.980,270.800 325.200 C 270.800 325.420,270.440 325.600,270.000 325.600 C 269.560 325.600,269.200 325.780,269.200 326.000 C 269.200 326.220,268.840 326.400,268.400 326.400 C 267.960 326.400,267.600 326.580,267.600 326.800 C 267.600 327.020,267.367 327.200,267.082 327.200 C 266.797 327.200,264.952 328.010,262.982 328.999 C 261.012 329.988,259.175 330.798,258.900 330.799 C 258.625 330.800,258.400 330.980,258.400 331.200 C 258.400 331.420,258.040 331.600,257.600 331.600 C 257.160 331.600,256.800 331.780,256.800 332.000 C 256.800 332.220,256.260 332.400,255.600 332.400 C 254.940 332.400,254.400 332.580,254.400 332.800 C 254.400 333.020,254.051 333.200,253.624 333.200 C 253.197 333.200,252.736 333.380,252.600 333.600 C 252.464 333.820,251.913 334.000,251.376 334.000 C 250.839 334.000,250.400 334.180,250.400 334.400 C 250.400 334.620,249.961 334.800,249.424 334.800 C 248.887 334.800,248.336 334.980,248.200 335.200 C 248.064 335.420,247.513 335.600,246.976 335.600 C 246.439 335.600,246.000 335.780,246.000 336.000 C 246.000 336.220,245.460 336.400,244.800 336.400 C 244.140 336.400,243.600 336.580,243.600 336.800 C 243.600 337.020,243.161 337.200,242.624 337.200 C 242.087 337.200,241.536 337.380,241.400 337.600 C 241.264 337.820,240.623 338.000,239.976 338.000 C 239.329 338.000,238.800 338.180,238.800 338.400 C 238.800 338.620,238.080 338.800,237.200 338.800 C 236.320 338.800,235.600 338.980,235.600 339.200 C 235.600 339.420,234.700 339.600,233.600 339.600 C 232.500 339.600,231.600 339.780,231.600 340.000 C 231.600 340.220,231.060 340.400,230.400 340.400 C 229.467 340.400,229.200 340.578,229.200 341.200 C 229.200 341.640,229.048 342.000,228.863 342.000 C 228.678 342.000,228.183 342.675,227.763 343.500 C 227.343 344.325,226.896 345.090,226.768 345.200 C 226.640 345.310,226.281 345.985,225.970 346.700 C 225.659 347.415,225.269 348.000,225.102 348.000 C 224.936 348.000,224.800 348.360,224.800 348.800 C 224.800 349.240,224.620 349.600,224.400 349.600 C 224.180 349.600,224.000 349.836,224.000 350.125 C 224.000 350.413,223.640 351.036,223.200 351.508 C 222.760 351.980,222.400 352.644,222.400 352.983 C 222.400 353.322,222.220 353.600,222.000 353.600 C 221.780 353.600,221.600 353.960,221.600 354.400 C 221.600 354.840,221.420 355.200,221.200 355.200 C 220.980 355.200,220.800 355.520,220.800 355.912 C 220.800 356.303,220.440 356.883,220.000 357.200 C 219.560 357.517,219.200 358.097,219.200 358.488 C 219.200 358.880,219.020 359.200,218.800 359.200 C 218.580 359.200,218.400 359.470,218.400 359.800 C 218.400 360.130,218.220 360.400,218.000 360.400 C 217.780 360.400,217.600 360.760,217.600 361.200 C 217.600 361.640,217.420 362.000,217.200 362.000 C 216.980 362.000,216.800 362.270,216.800 362.600 C 216.800 362.930,216.620 363.200,216.400 363.200 C 216.180 363.200,216.000 363.470,216.000 363.800 C 216.000 364.130,215.820 364.400,215.600 364.400 C 215.380 364.400,215.200 364.760,215.200 365.200 C 215.200 365.640,215.020 366.000,214.800 366.000 C 214.580 366.000,214.400 366.360,214.400 366.800 C 214.400 367.240,214.250 367.600,214.068 367.600 C 213.885 367.600,213.480 368.095,213.168 368.700 C 212.856 369.305,212.490 369.890,212.353 370.000 C 211.948 370.326,210.000 374.333,210.000 374.840 C 210.000 375.096,209.671 375.597,209.270 375.953 C 208.868 376.309,208.284 377.185,207.972 377.900 C 207.660 378.615,207.269 379.200,207.102 379.200 C 206.936 379.200,206.800 379.560,206.800 380.000 C 206.800 380.440,206.620 380.800,206.400 380.800 C 206.180 380.800,206.000 381.036,206.000 381.325 C 206.000 381.613,205.640 382.236,205.200 382.708 C 204.760 383.180,204.400 383.844,204.400 384.183 C 204.400 384.522,204.220 384.800,204.000 384.800 C 203.780 384.800,203.600 385.160,203.600 385.600 C 203.600 386.040,203.420 386.400,203.200 386.400 C 202.980 386.400,202.800 386.720,202.800 387.112 C 202.800 387.503,202.440 388.083,202.000 388.400 C 201.560 388.717,201.200 389.297,201.200 389.688 C 201.200 390.080,201.020 390.400,200.800 390.400 C 200.580 390.400,200.400 390.760,200.400 391.200 C 200.400 391.640,200.250 392.000,200.068 392.000 C 199.885 392.000,199.480 392.495,199.168 393.100 C 198.856 393.705,198.443 394.315,198.249 394.455 C 198.056 394.596,198.021 394.911,198.172 395.155 C 198.531 395.735,213.043 395.778,213.400 395.200 C 213.542 394.971,215.604 394.800,218.224 394.800 C 221.008 394.800,222.800 394.643,222.800 394.400 C 222.800 394.167,224.133 394.000,226.000 394.000 C 227.867 394.000,229.200 393.833,229.200 393.600 C 229.200 393.371,230.400 393.200,232.000 393.200 C 233.600 393.200,234.800 393.029,234.800 392.800 C 234.800 392.580,235.599 392.400,236.576 392.400 C 237.553 392.400,238.457 392.232,238.583 392.027 C 238.710 391.822,240.255 391.528,242.016 391.374 C 243.777 391.221,245.314 390.939,245.432 390.748 C 245.551 390.556,246.256 390.400,247.000 390.400 C 247.744 390.400,248.464 390.220,248.600 390.000 C 248.736 389.780,249.332 389.597,249.924 389.594 C 251.040 389.588,253.780 388.754,254.259 388.274 C 254.410 388.123,255.033 388.000,255.643 388.000 C 256.253 388.000,256.864 387.820,257.000 387.600 C 257.136 387.380,257.777 387.200,258.424 387.200 C 259.071 387.200,259.600 387.020,259.600 386.800 C 259.600 386.580,260.005 386.397,260.500 386.394 C 261.476 386.387,264.215 385.518,264.659 385.074 C 264.810 384.923,265.353 384.800,265.867 384.800 C 266.380 384.800,266.800 384.620,266.800 384.400 C 266.800 384.180,267.239 384.000,267.776 384.000 C 268.313 384.000,268.864 383.820,269.000 383.600 C 269.136 383.380,269.597 383.200,270.024 383.200 C 270.451 383.200,270.800 383.020,270.800 382.800 C 270.800 382.580,271.239 382.400,271.776 382.400 C 272.313 382.400,272.864 382.220,273.000 382.000 C 273.136 381.780,273.597 381.600,274.024 381.600 C 274.451 381.600,274.800 381.420,274.800 381.200 C 274.800 380.980,275.250 380.800,275.800 380.800 C 276.350 380.800,276.800 380.620,276.800 380.400 C 276.800 380.180,277.160 380.000,277.600 380.000 C 278.040 380.000,278.400 379.820,278.400 379.600 C 278.400 379.380,278.940 379.200,279.600 379.200 C 280.260 379.200,280.800 379.020,280.800 378.800 C 280.800 378.580,281.160 378.400,281.600 378.400 C 282.040 378.400,282.400 378.220,282.400 378.000 C 282.400 377.780,282.760 377.600,283.200 377.600 C 283.640 377.600,284.000 377.420,284.000 377.200 C 284.000 376.980,284.360 376.800,284.800 376.800 C 285.240 376.800,285.600 376.620,285.600 376.400 C 285.600 376.180,285.960 376.000,286.400 376.000 C 286.840 376.000,287.200 375.820,287.200 375.600 C 287.200 375.380,287.515 375.199,287.900 375.198 C 288.598 375.195,289.250 374.896,292.112 373.263 C 292.944 372.788,293.889 372.400,294.212 372.400 C 294.535 372.400,294.800 372.242,294.800 372.049 C 294.800 371.855,295.340 371.473,296.000 371.200 C 296.660 370.927,297.200 370.545,297.200 370.351 C 297.200 370.158,297.560 370.000,298.000 370.000 C 298.440 370.000,298.800 369.841,298.800 369.647 C 298.800 369.452,299.115 369.193,299.500 369.071 C 300.436 368.775,302.566 367.476,302.733 367.100 C 302.807 366.935,303.122 366.800,303.433 366.800 C 303.745 366.800,304.000 366.620,304.000 366.400 C 304.000 366.180,304.270 366.000,304.600 366.000 C 304.930 366.000,305.200 365.864,305.200 365.698 C 305.200 365.531,305.785 365.138,306.500 364.825 C 307.215 364.511,308.277 363.747,308.860 363.127 C 309.444 362.507,310.169 362.000,310.472 362.000 C 310.775 362.000,311.283 361.640,311.600 361.200 C 311.917 360.760,312.431 360.400,312.741 360.400 C 313.052 360.400,313.597 360.066,313.953 359.657 C 314.309 359.249,315.035 358.777,315.566 358.609 C 316.097 358.441,316.961 357.876,317.484 357.352 C 318.008 356.828,318.600 356.400,318.800 356.400 C 319.000 356.400,319.578 355.995,320.084 355.500 C 320.591 355.005,321.855 353.970,322.893 353.200 C 323.931 352.430,324.887 351.485,325.017 351.100 C 325.147 350.715,325.519 350.400,325.844 350.400 C 326.169 350.400,327.859 348.960,329.600 347.200 C 331.341 345.440,332.945 344.000,333.164 344.000 C 333.610 344.000,337.209 340.737,339.744 338.035 C 340.655 337.064,342.345 335.313,343.500 334.144 C 344.655 332.974,345.600 331.831,345.600 331.602 C 345.600 331.374,346.905 329.865,348.500 328.250 C 350.095 326.635,351.672 324.973,352.006 324.557 C 352.339 324.140,353.239 322.996,354.006 322.014 C 354.772 321.032,355.715 319.873,356.100 319.438 C 356.485 319.004,356.800 318.495,356.800 318.306 C 356.800 318.118,357.250 317.514,357.800 316.964 C 358.350 316.414,358.800 315.702,358.800 315.382 C 358.800 315.062,358.980 314.800,359.200 314.800 C 359.420 314.800,359.600 314.530,359.600 314.200 C 359.600 313.870,359.780 313.600,360.000 313.600 C 360.220 313.600,360.400 313.312,360.400 312.960 C 360.400 312.609,360.940 311.817,361.600 311.200 C 362.260 310.583,362.800 309.831,362.800 309.528 C 362.800 309.225,363.160 308.717,363.600 308.400 C 364.040 308.083,364.400 307.676,364.400 307.495 C 364.400 307.314,364.760 306.780,365.200 306.308 C 365.640 305.836,366.000 305.213,366.000 304.925 C 366.000 304.636,366.180 304.400,366.400 304.400 C 366.620 304.400,366.800 304.080,366.800 303.688 C 366.800 303.297,367.160 302.717,367.600 302.400 C 368.040 302.083,368.400 301.586,368.400 301.295 C 368.400 301.004,368.760 300.380,369.200 299.908 C 369.640 299.436,370.000 298.813,370.000 298.525 C 370.000 298.236,370.180 298.000,370.400 298.000 C 370.620 298.000,370.800 297.640,370.800 297.200 C 370.800 296.760,370.980 296.400,371.200 296.400 C 371.420 296.400,371.600 296.055,371.600 295.633 C 371.600 295.212,371.755 294.807,371.945 294.733 C 372.286 294.601,374.602 290.206,375.651 287.700 C 375.950 286.985,376.331 286.400,376.498 286.400 C 376.664 286.400,376.800 286.040,376.800 285.600 C 376.800 285.160,376.980 284.800,377.200 284.800 C 377.420 284.800,377.600 284.260,377.600 283.600 C 377.600 282.940,377.780 282.400,378.000 282.400 C 378.220 282.400,378.400 282.040,378.400 281.600 C 378.400 281.160,378.535 280.799,378.700 280.797 C 379.059 280.793,380.000 278.856,380.000 278.120 C 380.000 277.834,380.180 277.600,380.400 277.600 C 380.620 277.600,380.800 277.060,380.800 276.400 C 380.800 275.740,380.936 275.200,381.102 275.200 C 381.269 275.200,381.640 274.615,381.929 273.900 C 382.217 273.185,382.621 272.287,382.826 271.905 C 383.032 271.523,383.200 270.938,383.200 270.605 C 383.200 270.272,383.380 270.000,383.600 270.000 C 383.820 270.000,384.000 269.460,384.000 268.800 C 384.000 268.140,384.180 267.600,384.400 267.600 C 384.620 267.600,384.800 267.060,384.800 266.400 C 384.800 265.740,384.980 265.200,385.200 265.200 C 385.420 265.200,385.600 264.660,385.600 264.000 C 385.600 263.340,385.780 262.800,386.000 262.800 C 386.220 262.800,386.400 262.451,386.400 262.024 C 386.400 261.597,386.580 261.136,386.800 261.000 C 387.020 260.864,387.200 260.313,387.200 259.776 C 387.200 259.239,387.380 258.800,387.600 258.800 C 387.820 258.800,388.000 258.181,388.000 257.424 C 388.000 256.667,388.180 255.936,388.400 255.800 C 388.620 255.664,388.800 254.933,388.800 254.176 C 388.800 253.419,388.980 252.800,389.200 252.800 C 389.420 252.800,389.600 252.392,389.600 251.894 C 389.600 251.396,389.949 250.035,390.375 248.869 C 390.801 247.703,391.274 245.321,391.426 243.575 C 391.579 241.829,391.860 240.400,392.052 240.400 C 392.243 240.400,392.400 239.500,392.400 238.400 C 392.400 237.300,392.580 236.400,392.800 236.400 C 393.020 236.400,393.200 235.691,393.200 234.824 C 393.200 233.957,393.380 233.136,393.600 233.000 C 393.820 232.864,394.000 231.593,394.000 230.176 C 394.000 228.725,394.175 227.600,394.400 227.600 C 394.635 227.600,394.800 226.200,394.800 224.200 C 394.800 222.200,394.965 220.800,395.200 220.800 C 395.448 220.800,395.600 218.667,395.600 215.200 C 395.600 211.733,395.752 209.600,396.000 209.600 C 396.256 209.600,396.400 206.133,396.400 200.000 C 396.400 193.867,396.256 190.400,396.000 190.400 C 395.752 190.400,395.600 188.267,395.600 184.800 C 395.600 181.333,395.448 179.200,395.200 179.200 C 394.965 179.200,394.800 177.800,394.800 175.800 C 394.800 173.800,394.635 172.400,394.400 172.400 C 394.175 172.400,394.000 171.275,394.000 169.824 C 394.000 168.407,393.820 167.136,393.600 167.000 C 393.380 166.864,393.200 166.043,393.200 165.176 C 393.200 164.309,393.020 163.600,392.800 163.600 C 392.580 163.600,392.400 162.790,392.400 161.800 C 392.400 160.810,392.245 160.000,392.055 160.000 C 391.865 160.000,391.588 158.492,391.438 156.648 C 391.288 154.804,390.814 152.332,390.383 151.154 C 389.952 149.975,389.600 148.614,389.600 148.129 C 389.600 147.644,389.420 147.136,389.200 147.000 C 388.980 146.864,388.800 146.234,388.800 145.600 C 388.800 144.966,388.620 144.336,388.400 144.200 C 388.180 144.064,388.000 143.434,388.000 142.800 C 388.000 142.166,387.820 141.536,387.600 141.400 C 387.380 141.264,387.200 140.724,387.200 140.200 C 387.200 139.676,387.020 139.136,386.800 139.000 C 386.580 138.864,386.400 138.403,386.400 137.976 C 386.400 137.549,386.220 137.200,386.000 137.200 C 385.780 137.200,385.600 136.660,385.600 136.000 C 385.600 135.340,385.420 134.800,385.200 134.800 C 384.980 134.800,384.800 134.260,384.800 133.600 C 384.800 132.940,384.620 132.400,384.400 132.400 C 384.180 132.400,384.000 131.860,384.000 131.200 C 384.000 130.540,383.820 130.000,383.600 130.000 C 383.380 130.000,383.200 129.651,383.200 129.224 C 383.200 128.797,383.020 128.336,382.800 128.200 C 382.580 128.064,382.400 127.603,382.400 127.176 C 382.400 126.749,382.220 126.400,382.000 126.400 C 381.780 126.400,381.600 126.040,381.600 125.600 C 381.600 125.160,381.420 124.800,381.200 124.800 C 380.980 124.800,380.800 124.260,380.800 123.600 C 380.800 122.940,380.620 122.400,380.400 122.400 C 380.180 122.400,380.000 122.166,380.000 121.880 C 380.000 121.144,379.059 119.207,378.700 119.203 C 378.535 119.201,378.400 118.840,378.400 118.400 C 378.400 117.960,378.220 117.600,378.000 117.600 C 377.780 117.600,377.600 117.060,377.600 116.400 L 377.600 115.200 346.000 115.200 C 318.052 115.200,314.400 115.270,314.400 115.805 " stroke="none" fill="#043c44" fill-rule="evenodd"></path></g></svg>