<svg id="svg" version="1.1" width="400" height="93.0909090909091" viewBox="0 0 400 93.0909090909091" xmlns="http://www.w3.org/2000/svg" xmlns:xlink="http://www.w3.org/1999/xlink" ><g id="svgg"><path id="path0" d="M28.167 34.419 L 28.167 38.839 32.542 38.794 L 36.917 38.750 36.961 34.375 L 37.006 30.000 32.586 30.000 L 28.167 30.000 28.167 34.419 M39.333 34.416 L 39.333 38.833 47.250 38.833 L 55.167 38.833 55.167 40.000 L 55.167 41.167 59.497 41.167 L 63.827 41.167 63.918 40.792 C 63.969 40.585,63.989 38.092,63.963 35.250 L 63.917 30.083 51.625 30.041 L 39.333 29.998 39.333 34.416 M124.132 30.572 C 122.145 30.924,120.006 31.673,119.395 32.230 C 119.282 32.333,118.807 32.679,118.338 33.000 C 114.257 35.796,113.818 43.046,117.501 46.812 C 119.151 48.499,120.545 49.169,124.333 50.097 C 132.300 52.049,133.562 52.777,133.558 55.417 C 133.554 58.114,131.680 59.422,127.833 59.411 C 124.172 59.400,121.851 57.683,121.549 54.761 L 121.458 53.879 120.771 53.948 C 119.631 54.061,115.466 54.518,114.708 54.612 C 114.319 54.661,114.000 54.749,114.000 54.808 C 114.003 56.242,114.923 59.346,115.681 60.481 C 117.059 62.545,118.950 63.909,121.917 64.978 C 124.669 65.970,134.083 65.762,134.827 64.693 C 134.876 64.622,135.179 64.461,135.500 64.335 C 136.959 63.762,139.047 62.037,139.618 60.933 C 139.765 60.649,140.023 60.229,140.191 60.000 C 141.524 58.186,141.400 50.984,140.016 49.833 C 139.961 49.788,139.591 49.322,139.193 48.799 C 137.805 46.971,135.251 45.711,131.167 44.839 C 130.204 44.634,129.267 44.400,129.083 44.319 C 128.900 44.238,128.071 44.024,127.241 43.843 C 123.714 43.074,122.490 42.135,122.475 40.189 C 122.436 35.168,132.133 35.057,132.947 40.070 C 133.000 40.398,133.128 40.674,133.230 40.682 C 133.784 40.728,134.939 40.620,135.083 40.509 C 135.175 40.438,136.388 40.284,137.780 40.166 C 139.171 40.048,140.405 39.892,140.521 39.820 C 140.765 39.669,140.260 37.167,139.986 37.167 C 139.902 37.167,139.833 37.084,139.833 36.984 C 139.833 36.354,138.577 34.387,137.622 33.521 C 136.056 32.102,134.490 31.331,131.833 30.671 C 130.628 30.372,125.625 30.308,124.132 30.572 M188.833 34.000 L 188.833 37.000 192.667 37.000 L 196.500 37.000 196.500 34.000 L 196.500 31.000 192.667 31.000 L 188.833 31.000 188.833 34.000 M201.129 32.875 C 201.288 35.338,201.286 60.326,201.126 62.961 L 201.002 65.006 204.779 64.961 L 208.556 64.917 208.486 63.667 C 208.448 62.979,208.417 55.348,208.417 46.708 L 208.417 31.000 204.712 31.000 L 201.008 31.000 201.129 32.875 M239.667 31.170 C 239.667 31.266,239.775 31.511,239.906 31.714 C 240.038 31.917,240.505 33.433,240.943 35.083 C 241.381 36.733,241.786 38.121,241.843 38.167 C 241.900 38.212,242.305 39.712,242.743 41.500 C 243.180 43.288,243.637 44.975,243.758 45.250 C 243.879 45.525,244.358 47.288,244.823 49.167 C 245.287 51.046,245.737 52.705,245.822 52.854 C 245.907 53.003,246.359 54.639,246.826 56.489 C 247.294 58.339,247.746 59.980,247.830 60.135 C 247.915 60.290,248.220 61.448,248.507 62.708 L 249.029 65.000 252.576 65.000 L 256.123 65.000 256.326 63.958 C 256.667 62.204,257.813 57.590,258.058 56.986 C 258.186 56.673,258.650 54.954,259.090 53.167 C 259.530 51.379,259.942 49.879,260.005 49.833 C 260.151 49.727,261.228 45.239,261.605 43.167 L 261.894 41.583 262.250 43.500 C 262.722 46.034,263.684 49.902,263.860 49.972 C 263.937 50.003,264.000 50.131,264.000 50.258 C 264.000 50.588,265.636 56.851,265.826 57.250 C 265.914 57.433,266.180 58.371,266.417 59.333 C 266.655 60.296,266.952 61.496,267.077 62.000 C 267.202 62.504,267.355 63.283,267.416 63.730 C 267.603 65.098,267.305 65.000,271.257 65.000 C 274.499 65.000,274.818 64.974,274.894 64.708 C 274.940 64.548,275.178 63.479,275.423 62.333 C 275.668 61.188,275.926 60.175,275.996 60.083 C 276.067 59.992,276.512 58.379,276.986 56.500 C 277.459 54.621,277.919 52.933,278.007 52.750 C 278.095 52.567,278.545 50.917,279.007 49.083 C 279.469 47.250,279.918 45.600,280.006 45.417 C 280.094 45.233,280.544 43.583,281.007 41.750 C 281.469 39.917,281.919 38.267,282.006 38.083 C 282.094 37.900,282.356 37.000,282.589 36.083 C 283.160 33.838,283.843 31.619,284.021 31.425 C 284.371 31.045,283.941 31.000,279.941 31.000 L 275.716 31.000 275.611 32.292 C 275.500 33.673,274.110 40.694,273.838 41.250 C 273.749 41.433,273.298 43.383,272.837 45.583 C 272.375 47.783,271.926 49.708,271.839 49.861 C 271.752 50.014,271.550 50.968,271.390 51.980 C 271.230 52.993,271.079 53.801,271.054 53.776 C 271.030 53.752,270.851 52.911,270.658 51.907 C 270.465 50.904,270.205 49.858,270.080 49.583 C 269.954 49.308,269.473 47.583,269.010 45.750 C 268.546 43.917,268.092 42.267,268.000 42.083 C 267.826 41.737,266.334 36.086,266.332 35.766 C 266.332 35.665,266.221 35.372,266.086 35.114 C 265.952 34.856,265.677 33.824,265.476 32.822 L 265.109 31.000 261.891 31.000 C 258.686 31.000,258.673 31.001,258.603 31.375 C 258.314 32.922,257.939 34.516,257.740 35.039 C 257.611 35.382,257.166 37.032,256.751 38.706 C 256.337 40.380,255.925 41.879,255.834 42.036 C 255.744 42.194,255.294 43.806,254.834 45.620 C 254.374 47.433,253.921 49.067,253.827 49.250 C 253.732 49.433,253.450 50.579,253.199 51.796 L 252.742 54.009 252.439 52.213 C 252.272 51.225,252.076 50.342,252.004 50.250 C 251.932 50.158,251.484 48.213,251.009 45.927 C 250.534 43.641,250.083 41.653,250.007 41.510 C 249.776 41.072,248.322 33.712,248.199 32.357 L 248.083 31.083 243.875 31.039 C 241.013 31.009,239.667 31.050,239.667 31.170 M314.293 32.792 C 314.454 35.124,314.454 60.303,314.293 62.958 L 314.169 65.000 317.914 65.000 L 321.658 65.000 321.537 64.458 C 321.471 64.160,321.417 56.754,321.417 48.000 C 321.417 39.246,321.471 31.840,321.537 31.542 L 321.658 31.000 317.914 31.000 L 314.170 31.000 314.293 32.792 M326.293 32.792 C 326.454 35.124,326.454 60.303,326.293 62.958 L 326.169 65.000 329.914 65.000 L 333.658 65.000 333.537 64.458 C 333.471 64.160,333.417 56.754,333.417 48.000 C 333.417 39.246,333.471 31.840,333.537 31.542 L 333.658 31.000 329.914 31.000 L 326.170 31.000 326.293 32.792 M368.480 33.742 C 368.435 33.787,368.455 34.332,368.524 34.954 C 368.593 35.575,368.653 37.006,368.658 38.133 L 368.667 40.183 366.458 40.069 C 365.244 40.006,364.063 39.946,363.833 39.936 L 363.417 39.917 363.371 42.954 L 363.326 45.991 365.984 45.887 L 368.643 45.782 368.704 53.433 C 368.780 62.868,368.938 63.472,371.679 64.799 C 373.649 65.753,380.722 65.704,381.666 64.730 C 381.802 64.589,381.268 59.212,381.101 59.046 C 381.057 59.002,380.783 59.084,380.493 59.228 C 379.196 59.875,377.264 59.940,376.296 59.368 C 375.544 58.924,375.500 58.517,375.500 51.949 L 375.500 45.782 378.375 45.880 L 381.250 45.979 381.216 42.956 L 381.182 39.932 380.466 39.962 C 380.072 39.978,378.782 40.040,377.598 40.100 L 375.447 40.208 375.557 37.313 C 375.618 35.720,375.686 34.267,375.709 34.083 C 375.748 33.765,368.785 33.437,368.480 33.742 M222.250 39.440 C 219.311 39.888,215.603 42.121,214.423 44.151 C 214.152 44.618,213.878 45.000,213.814 45.000 C 213.112 45.000,212.111 49.382,212.101 52.500 C 212.077 60.257,216.102 64.958,223.373 65.667 C 225.739 65.898,229.860 65.404,230.617 64.799 C 230.728 64.711,231.328 64.394,231.951 64.094 C 233.163 63.512,235.521 61.404,235.738 60.708 C 235.803 60.502,235.912 60.333,235.981 60.333 C 236.369 60.333,237.573 57.288,237.769 55.809 C 237.829 55.360,237.942 54.952,238.022 54.903 C 238.102 54.854,238.167 53.899,238.167 52.782 C 238.169 46.090,235.080 41.532,229.333 39.747 C 228.428 39.466,223.484 39.251,222.250 39.440 M346.667 39.516 C 345.575 39.729,344.167 40.192,344.167 40.338 C 344.167 40.407,343.968 40.514,343.724 40.575 C 342.005 41.006,339.080 44.084,338.293 46.291 C 338.105 46.818,337.889 47.291,337.814 47.340 C 336.903 47.939,336.903 57.230,337.814 57.827 C 337.890 57.876,338.046 58.217,338.161 58.583 C 338.779 60.552,341.765 64.167,342.773 64.167 C 342.824 64.167,343.064 64.304,343.308 64.472 C 345.733 66.148,352.739 66.323,355.797 64.783 C 356.900 64.227,359.000 62.862,359.000 62.701 C 359.000 62.627,359.334 62.233,359.742 61.825 C 360.518 61.049,361.770 58.675,361.615 58.272 C 361.568 58.149,361.091 57.934,360.556 57.794 C 357.625 57.029,356.228 56.619,356.047 56.469 C 355.708 56.189,355.512 56.373,354.857 57.586 C 352.603 61.763,345.345 60.836,344.316 56.239 C 344.203 55.733,344.048 55.280,343.972 55.233 C 343.896 55.185,343.833 54.964,343.833 54.740 L 343.833 54.333 353.018 54.333 L 362.203 54.333 362.102 53.708 C 362.046 53.365,361.925 52.333,361.834 51.417 C 361.574 48.811,360.471 44.833,360.008 44.833 C 359.934 44.833,359.774 44.590,359.652 44.292 C 358.262 40.903,351.778 38.518,346.667 39.516 M294.134 39.820 C 293.338 39.993,292.515 40.254,292.306 40.401 C 292.097 40.547,291.816 40.667,291.681 40.667 C 290.458 40.667,287.724 43.318,286.886 45.317 C 286.221 46.904,286.065 46.791,289.699 47.355 C 293.488 47.942,293.224 47.951,293.485 47.229 C 294.150 45.390,296.839 44.368,299.780 44.838 C 301.828 45.165,302.474 45.820,302.617 47.713 L 302.711 48.948 301.814 49.056 C 301.320 49.115,300.381 49.164,299.726 49.165 C 293.438 49.173,288.255 51.209,286.689 54.287 C 285.940 55.761,285.424 58.729,285.828 59.250 C 285.898 59.342,286.010 59.714,286.076 60.078 C 286.398 61.860,287.817 63.593,289.583 64.360 C 289.858 64.479,290.121 64.619,290.167 64.670 C 290.893 65.485,298.947 65.508,299.489 64.697 C 299.541 64.619,299.826 64.472,300.122 64.370 C 300.418 64.269,301.112 63.922,301.664 63.598 L 302.667 63.010 302.667 64.005 L 302.667 65.000 306.186 65.000 L 309.706 65.000 309.582 64.625 C 309.514 64.419,309.409 59.975,309.348 54.750 C 309.221 43.912,309.256 44.187,307.745 42.437 C 306.894 41.451,305.053 40.390,303.329 39.893 C 301.834 39.461,295.998 39.415,294.134 39.820 M157.000 39.891 C 155.847 40.162,153.882 41.227,153.013 42.051 L 152.348 42.681 152.299 41.465 L 152.250 40.250 148.707 40.205 L 145.165 40.160 145.291 42.122 C 145.453 44.648,145.455 60.289,145.293 62.958 L 145.169 65.000 148.936 65.000 L 152.703 65.000 152.606 64.375 C 152.552 64.031,152.458 60.849,152.396 57.304 L 152.284 50.859 152.883 49.597 C 153.213 48.903,153.661 48.166,153.879 47.960 C 155.747 46.187,156.418 45.819,157.833 45.790 C 159.567 45.755,160.633 46.648,161.007 48.448 C 161.217 49.461,161.135 63.698,160.914 64.545 L 160.793 65.006 164.605 64.962 L 168.417 64.917 168.372 64.417 C 168.347 64.142,168.285 60.917,168.234 57.250 L 168.142 50.583 168.797 49.246 C 170.609 45.545,175.105 44.405,176.524 47.286 L 176.917 48.083 176.917 55.333 C 176.917 59.321,176.879 63.108,176.833 63.750 L 176.750 64.917 180.500 64.917 L 184.250 64.917 184.232 64.333 C 184.222 64.012,184.156 63.188,184.086 62.500 C 184.016 61.813,183.906 57.762,183.841 53.500 C 183.711 44.920,183.673 44.613,182.537 42.977 C 179.619 38.777,172.250 38.412,167.936 42.255 L 166.943 43.139 166.406 42.436 C 164.641 40.125,160.621 39.037,157.000 39.891 M188.964 42.372 C 189.122 45.293,189.117 59.983,188.958 62.792 L 188.832 65.000 192.661 65.000 L 196.490 65.000 196.370 63.625 C 196.235 62.076,196.205 43.855,196.333 41.667 L 196.417 40.250 192.630 40.205 L 188.844 40.160 188.964 42.372 M28.167 46.750 L 28.167 52.333 41.179 52.333 C 52.233 52.333,54.226 52.369,54.429 52.571 C 54.609 52.751,54.667 53.300,54.667 54.821 L 54.667 56.833 41.417 56.833 L 28.167 56.833 28.167 61.250 L 28.167 65.667 45.982 65.667 C 62.074 65.667,63.807 65.641,63.899 65.403 C 64.031 65.059,64.031 44.108,63.899 43.764 C 63.808 43.526,62.463 43.500,50.399 43.500 L 37.000 43.500 37.000 42.333 L 37.000 41.167 32.583 41.167 L 28.167 41.167 28.167 46.750 M227.504 45.318 C 232.602 47.226,232.413 58.142,227.254 59.733 C 222.985 61.051,219.647 58.738,218.977 54.000 C 218.434 50.157,219.835 46.594,222.326 45.480 C 223.943 44.757,225.845 44.697,227.504 45.318 M352.083 45.313 C 353.540 45.960,354.655 47.297,354.921 48.716 L 355.037 49.333 349.599 49.333 L 344.160 49.333 344.270 48.875 C 345.048 45.630,348.871 43.888,352.083 45.313 M302.667 54.547 C 302.667 58.245,298.667 60.951,294.596 60.007 C 292.073 59.422,292.032 56.179,294.533 55.075 C 294.928 54.901,295.291 54.702,295.341 54.633 C 295.574 54.310,298.798 53.868,302.208 53.690 C 302.653 53.667,302.667 53.692,302.667 54.547 " stroke="none" fill="#04c3a4" fill-rule="evenodd"></path><path id="path1" d="M42.083 1.178 C 40.132 1.349,38.000 1.696,38.000 1.842 C 38.000 1.905,37.636 2.005,37.191 2.064 C 35.596 2.276,31.170 3.544,30.199 4.068 C 29.952 4.201,29.020 4.590,28.127 4.932 C 27.235 5.274,26.366 5.683,26.198 5.840 C 26.029 5.997,25.728 6.178,25.529 6.241 C 25.122 6.370,22.579 7.755,22.278 8.012 C 22.171 8.103,21.568 8.518,20.937 8.934 C 17.884 10.948,12.550 15.919,11.000 18.195 C 10.771 18.532,10.396 19.020,10.167 19.281 C 8.677 20.974,8.622 21.365,9.672 22.814 C 9.924 23.162,10.484 24.115,10.916 24.932 C 11.348 25.749,11.796 26.529,11.912 26.667 C 12.028 26.804,12.440 27.517,12.827 28.250 C 13.215 28.983,13.637 29.701,13.765 29.845 C 13.893 29.990,14.307 30.702,14.684 31.429 C 15.805 33.589,16.667 34.626,16.667 33.816 C 16.667 33.523,17.926 31.029,18.747 29.694 C 19.161 29.022,19.500 28.416,19.500 28.348 C 19.500 28.280,19.691 28.045,19.925 27.826 C 20.159 27.606,20.619 27.020,20.949 26.524 C 21.578 25.577,25.766 21.333,26.072 21.333 C 26.170 21.333,26.567 21.043,26.955 20.689 C 27.774 19.940,31.404 17.700,32.500 17.267 C 32.912 17.104,33.325 16.912,33.417 16.840 C 33.508 16.769,33.883 16.614,34.250 16.498 C 34.617 16.381,34.964 16.213,35.021 16.125 C 35.283 15.722,41.590 14.281,44.417 13.979 C 46.037 13.806,50.535 13.932,50.978 14.164 C 51.128 14.242,51.813 14.396,52.500 14.507 C 54.936 14.900,57.530 15.601,58.917 16.241 C 59.375 16.453,60.012 16.741,60.333 16.882 C 60.654 17.023,61.345 17.327,61.870 17.558 C 62.394 17.788,62.989 18.132,63.193 18.322 C 63.396 18.511,63.627 18.667,63.706 18.667 C 63.785 18.667,64.260 18.929,64.761 19.250 C 65.263 19.571,65.743 19.833,65.828 19.833 C 65.914 19.833,66.043 19.940,66.117 20.071 C 66.190 20.201,66.737 20.679,67.333 21.132 C 67.929 21.585,69.042 22.566,69.806 23.311 L 71.195 24.667 78.865 24.667 L 86.536 24.667 86.426 24.229 C 86.366 23.988,86.058 23.452,85.742 23.038 C 85.425 22.624,85.166 22.202,85.166 22.101 C 85.166 22.000,84.882 21.542,84.535 21.083 C 84.189 20.625,83.534 19.725,83.080 19.083 C 82.626 18.442,81.860 17.504,81.378 17.000 C 80.896 16.496,80.501 16.039,80.501 15.984 C 80.500 15.897,79.014 14.410,76.917 12.398 C 76.550 12.046,75.762 11.402,75.167 10.966 C 74.571 10.530,73.933 10.028,73.750 9.849 C 73.567 9.670,72.899 9.210,72.266 8.827 C 71.633 8.445,70.981 8.008,70.817 7.858 C 70.654 7.707,69.859 7.248,69.051 6.837 C 68.244 6.427,67.561 6.039,67.533 5.977 C 67.505 5.914,66.717 5.550,65.783 5.169 C 64.848 4.788,63.708 4.302,63.250 4.090 C 61.797 3.416,57.844 2.283,56.208 2.071 C 55.727 2.008,55.333 1.906,55.333 1.844 C 55.333 1.258,46.336 0.805,42.083 1.178 M7.382 23.371 C 7.291 23.488,6.924 24.183,6.567 24.917 C 6.209 25.650,5.863 26.290,5.798 26.339 C 5.644 26.455,4.005 30.519,4.002 30.792 C 4.001 30.906,3.935 31.000,3.856 31.000 C 3.677 31.000,2.613 34.763,2.254 36.667 C 2.107 37.446,1.911 38.263,1.819 38.483 C 1.060 40.294,0.969 51.043,1.689 53.917 C 1.781 54.283,2.036 55.427,2.256 56.457 C 2.719 58.625,3.641 61.878,3.828 62.000 C 3.898 62.046,4.009 62.271,4.076 62.500 C 4.579 64.235,6.849 68.975,7.682 70.032 C 7.948 70.370,8.167 70.702,8.167 70.770 C 8.167 70.930,9.661 73.154,10.057 73.583 C 10.226 73.767,10.597 74.254,10.880 74.667 C 11.780 75.977,16.784 81.074,17.833 81.750 C 18.154 81.956,18.628 82.323,18.886 82.565 C 19.400 83.046,21.749 84.667,21.932 84.667 C 21.995 84.667,22.130 84.774,22.232 84.906 C 22.333 85.038,23.092 85.496,23.917 85.925 C 24.742 86.355,25.679 86.876,26.000 87.085 C 26.321 87.294,27.408 87.791,28.417 88.191 C 29.425 88.590,30.287 88.962,30.333 89.017 C 30.526 89.249,34.827 90.509,36.250 90.750 C 36.617 90.812,36.992 90.918,37.083 90.985 C 37.445 91.250,41.279 91.820,42.750 91.827 C 43.706 91.832,43.760 91.771,45.332 88.917 C 45.635 88.367,45.935 87.879,45.999 87.833 C 46.063 87.787,46.507 87.000,46.986 86.083 C 47.465 85.167,47.956 84.304,48.077 84.167 C 48.198 84.029,48.620 83.317,49.015 82.583 C 49.410 81.850,49.906 80.996,50.117 80.685 C 50.805 79.670,50.756 79.646,48.292 79.766 C 45.067 79.924,39.480 79.320,38.083 78.662 C 37.900 78.576,36.752 78.173,35.533 77.766 C 34.314 77.360,33.143 76.914,32.931 76.775 C 32.719 76.636,31.805 76.137,30.901 75.667 C 29.996 75.197,29.217 74.755,29.170 74.687 C 29.122 74.618,28.521 74.184,27.833 73.724 C 25.685 72.284,21.867 68.641,20.613 66.833 C 18.511 63.805,16.862 61.020,16.839 60.459 C 16.836 60.390,16.619 59.865,16.357 59.292 C 14.008 54.153,13.284 46.427,14.581 40.333 C 14.708 39.737,14.946 38.627,15.110 37.865 L 15.408 36.480 14.918 35.543 C 14.648 35.028,14.265 34.367,14.066 34.073 C 13.866 33.780,13.386 32.949,12.998 32.228 C 12.611 31.507,12.207 30.842,12.102 30.750 C 11.997 30.658,11.547 29.871,11.102 29.000 C 10.656 28.129,10.195 27.304,10.076 27.167 C 9.828 26.878,8.757 24.988,8.422 24.247 C 8.093 23.519,7.594 23.099,7.382 23.371 M73.167 26.994 C 73.167 27.083,73.373 27.401,73.625 27.703 C 73.877 28.004,74.192 28.438,74.324 28.667 C 74.904 29.671,75.666 30.930,75.786 31.083 C 76.135 31.529,77.667 35.103,77.667 35.472 C 77.667 35.564,77.737 35.664,77.824 35.694 C 78.665 35.992,80.106 45.580,79.760 48.583 C 79.394 51.765,79.297 52.519,79.150 53.333 C 78.879 54.827,78.150 57.551,77.901 58.000 C 77.774 58.229,77.416 59.054,77.106 59.833 C 76.395 61.620,75.971 62.526,75.720 62.792 C 75.611 62.907,75.217 63.554,74.844 64.231 C 74.471 64.907,74.048 65.557,73.906 65.676 C 73.763 65.794,73.369 66.308,73.031 66.818 C 71.806 68.665,67.058 73.167,65.484 73.974 C 65.245 74.096,64.833 74.386,64.567 74.619 C 64.301 74.851,63.446 75.355,62.667 75.738 C 61.887 76.121,61.055 76.563,60.816 76.720 C 60.322 77.046,56.233 78.492,55.792 78.497 C 55.631 78.499,55.500 78.567,55.500 78.648 C 55.500 78.729,55.027 78.885,54.449 78.994 C 53.340 79.203,53.295 79.242,52.628 80.554 C 52.434 80.937,52.119 81.472,51.929 81.744 C 51.495 82.364,50.574 84.051,50.219 84.875 C 50.071 85.219,49.892 85.500,49.822 85.500 C 49.753 85.500,49.304 86.231,48.826 87.125 C 48.348 88.019,47.863 88.862,47.749 89.000 C 47.521 89.273,46.167 91.764,46.167 91.910 C 46.167 92.340,55.343 91.512,56.321 90.994 C 56.465 90.917,57.296 90.692,58.167 90.493 C 60.000 90.075,62.878 89.185,63.000 89.000 C 63.046 88.930,63.457 88.746,63.914 88.592 C 65.267 88.134,67.500 87.138,67.500 86.991 C 67.500 86.917,67.669 86.805,67.875 86.742 C 68.291 86.616,71.202 85.019,71.333 84.844 C 71.379 84.783,71.965 84.372,72.635 83.931 C 75.055 82.336,79.550 78.382,80.589 76.933 C 80.714 76.759,81.142 76.271,81.540 75.850 C 82.200 75.149,83.833 72.963,83.833 72.779 C 83.833 72.737,84.049 72.471,84.313 72.188 C 84.577 71.906,84.947 71.347,85.135 70.947 C 85.323 70.547,85.660 70.002,85.885 69.735 C 86.294 69.248,87.833 66.174,87.833 65.843 C 87.833 65.746,87.901 65.667,87.983 65.667 C 88.133 65.667,89.055 63.372,89.590 61.667 C 89.748 61.163,89.949 60.659,90.037 60.548 C 90.412 60.074,91.580 54.714,91.773 52.583 C 91.831 51.942,91.961 51.313,92.062 51.185 C 92.185 51.030,92.246 49.490,92.246 46.500 C 92.246 43.510,92.185 41.970,92.062 41.815 C 91.961 41.687,91.831 41.058,91.773 40.417 C 91.580 38.286,90.412 32.926,90.037 32.452 C 89.949 32.341,89.707 31.725,89.498 31.083 C 88.837 29.054,88.143 27.333,87.985 27.333 C 87.902 27.333,87.833 27.221,87.833 27.083 C 87.833 26.865,86.907 26.833,80.500 26.833 C 75.898 26.833,73.167 26.893,73.167 26.994 M381.235 43.000 C 381.235 44.604,381.260 45.260,381.291 44.458 C 381.321 43.656,381.321 42.344,381.291 41.542 C 381.260 40.740,381.235 41.396,381.235 43.000 " stroke="none" fill="#043c44" fill-rule="evenodd"></path></g></svg>